<mxfile host="app.diagrams.net" modified="2023-09-12T21:15:26.525Z" agent="Mozilla/5.0 (Windows NT 10.0; Win64; x64) AppleWebKit/537.36 (KHTML, like Gecko) Chrome/116.0.0.0 Safari/537.36" etag="5bOKVBPesYpqWn86C5VC" version="21.7.4" type="device">
  <diagram id="PKuwIOO52CEnXTLaivXP" name="DLX">
    <mxGraphModel dx="4780" dy="2500" grid="1" gridSize="10" guides="1" tooltips="1" connect="1" arrows="1" fold="1" page="1" pageScale="1" pageWidth="8000" pageHeight="3000" math="0" shadow="0">
      <root>
        <mxCell id="0" />
        <mxCell id="1" parent="0" />
        <mxCell id="uQGv06zmIQrsjEMMD4d0-6" style="edgeStyle=orthogonalEdgeStyle;rounded=0;orthogonalLoop=1;jettySize=auto;html=1;exitX=1;exitY=0.5;exitDx=0;exitDy=-5;exitPerimeter=0;entryX=0;entryY=0.5;entryDx=0;entryDy=0;fontSize=25;" parent="1" source="2WCjkeM8zDRuVRi0GRMw-1" target="uQGv06zmIQrsjEMMD4d0-1" edge="1">
          <mxGeometry relative="1" as="geometry" />
        </mxCell>
        <mxCell id="2WCjkeM8zDRuVRi0GRMw-1" value="Mux" style="shadow=0;dashed=0;align=center;html=1;strokeWidth=1;shape=mxgraph.electrical.abstract.mux2;rotation=90;fillColor=#fad9d5;strokeColor=none;" parent="1" vertex="1">
          <mxGeometry x="350" y="1299.67" width="80" height="120" as="geometry" />
        </mxCell>
        <mxCell id="uQGv06zmIQrsjEMMD4d0-7" style="edgeStyle=orthogonalEdgeStyle;rounded=0;orthogonalLoop=1;jettySize=auto;html=1;entryX=0;entryY=0.75;entryDx=0;entryDy=0;fontSize=25;startArrow=oval;startFill=1;" parent="1" target="uQGv06zmIQrsjEMMD4d0-4" edge="1">
          <mxGeometry relative="1" as="geometry">
            <Array as="points">
              <mxPoint x="550" y="1510" />
              <mxPoint x="550" y="1250" />
            </Array>
            <mxPoint x="550" y="1510" as="sourcePoint" />
          </mxGeometry>
        </mxCell>
        <mxCell id="uQGv06zmIQrsjEMMD4d0-1" value="PC" style="whiteSpace=wrap;html=1;aspect=fixed;fillColor=#e1d5e7;strokeColor=none;" parent="1" vertex="1">
          <mxGeometry x="450" y="1469.67" width="80" height="80" as="geometry" />
        </mxCell>
        <mxCell id="uQGv06zmIQrsjEMMD4d0-12" style="edgeStyle=orthogonalEdgeStyle;rounded=0;orthogonalLoop=1;jettySize=auto;html=1;fontSize=25;entryX=0;entryY=0.21666666666666667;entryDx=0;entryDy=3;entryPerimeter=0;targetPerimeterSpacing=0;startArrow=oval;startFill=1;" parent="1" target="2WCjkeM8zDRuVRi0GRMw-1" edge="1">
          <mxGeometry relative="1" as="geometry">
            <Array as="points">
              <mxPoint x="720" y="1230" />
              <mxPoint x="720" y="1130" />
              <mxPoint x="421" y="1130" />
            </Array>
            <mxPoint x="720" y="1230" as="sourcePoint" />
          </mxGeometry>
        </mxCell>
        <mxCell id="uQGv06zmIQrsjEMMD4d0-4" value="&lt;font style=&quot;font-size: 25px;&quot;&gt;&lt;b&gt;+&lt;/b&gt;&lt;/font&gt;" style="whiteSpace=wrap;html=1;aspect=fixed;fillColor=#dae8fc;strokeColor=none;" parent="1" vertex="1">
          <mxGeometry x="590" y="1189.67" width="80" height="80" as="geometry" />
        </mxCell>
        <mxCell id="uQGv06zmIQrsjEMMD4d0-8" value="" style="endArrow=classic;html=1;rounded=0;fontSize=25;entryX=0;entryY=0.25;entryDx=0;entryDy=0;" parent="1" target="uQGv06zmIQrsjEMMD4d0-4" edge="1">
          <mxGeometry width="50" height="50" relative="1" as="geometry">
            <mxPoint x="510" y="1209.67" as="sourcePoint" />
            <mxPoint x="560" y="1189.67" as="targetPoint" />
          </mxGeometry>
        </mxCell>
        <mxCell id="uQGv06zmIQrsjEMMD4d0-10" style="edgeStyle=orthogonalEdgeStyle;rounded=0;orthogonalLoop=1;jettySize=auto;html=1;entryX=0.375;entryY=1;entryDx=10;entryDy=0;entryPerimeter=0;fontSize=25;fillColor=#0050ef;strokeColor=#001DBC;" parent="1" source="uQGv06zmIQrsjEMMD4d0-9" target="2WCjkeM8zDRuVRi0GRMw-1" edge="1">
          <mxGeometry relative="1" as="geometry" />
        </mxCell>
        <mxCell id="uQGv06zmIQrsjEMMD4d0-9" value="CU" style="ellipse;shape=cloud;whiteSpace=wrap;html=1;fontSize=25;fillColor=#fa6800;fontColor=#000000;strokeColor=none;gradientColor=none;opacity=70;" parent="1" vertex="1">
          <mxGeometry x="230" y="1489.67" width="120" height="80" as="geometry" />
        </mxCell>
        <mxCell id="uQGv06zmIQrsjEMMD4d0-95" style="edgeStyle=orthogonalEdgeStyle;rounded=0;orthogonalLoop=1;jettySize=auto;html=1;exitX=1;exitY=0.5;exitDx=0;exitDy=0;fontSize=12;endArrow=none;endFill=0;" parent="1" source="uQGv06zmIQrsjEMMD4d0-11" edge="1">
          <mxGeometry relative="1" as="geometry">
            <Array as="points">
              <mxPoint x="1010" y="1229.67" />
              <mxPoint x="1010" y="1043.67" />
            </Array>
            <mxPoint x="1010" y="560" as="targetPoint" />
          </mxGeometry>
        </mxCell>
        <mxCell id="uQGv06zmIQrsjEMMD4d0-11" value="NPC" style="whiteSpace=wrap;html=1;aspect=fixed;fillColor=#e1d5e7;strokeColor=none;" parent="1" vertex="1">
          <mxGeometry x="770" y="1189.67" width="80" height="80" as="geometry" />
        </mxCell>
        <mxCell id="uQGv06zmIQrsjEMMD4d0-13" value="" style="endArrow=classic;html=1;rounded=0;fontSize=25;entryX=0;entryY=0.5;entryDx=0;entryDy=0;" parent="1" target="uQGv06zmIQrsjEMMD4d0-11" edge="1">
          <mxGeometry width="50" height="50" relative="1" as="geometry">
            <mxPoint x="720" y="1229.67" as="sourcePoint" />
            <mxPoint x="650" y="1209.67" as="targetPoint" />
          </mxGeometry>
        </mxCell>
        <mxCell id="uQGv06zmIQrsjEMMD4d0-14" value="" style="endArrow=classic;html=1;rounded=0;fontSize=25;entryX=0;entryY=0.65;entryDx=0;entryDy=3;entryPerimeter=0;" parent="1" target="2WCjkeM8zDRuVRi0GRMw-1" edge="1">
          <mxGeometry width="50" height="50" relative="1" as="geometry">
            <mxPoint x="369" y="420" as="sourcePoint" />
            <mxPoint x="480" y="1209.67" as="targetPoint" />
          </mxGeometry>
        </mxCell>
        <mxCell id="uQGv06zmIQrsjEMMD4d0-18" style="edgeStyle=orthogonalEdgeStyle;rounded=0;orthogonalLoop=1;jettySize=auto;html=1;exitX=0.75;exitY=0;exitDx=0;exitDy=0;entryX=0;entryY=0.5;entryDx=0;entryDy=0;fontSize=25;" parent="1" source="uQGv06zmIQrsjEMMD4d0-15" target="uQGv06zmIQrsjEMMD4d0-17" edge="1">
          <mxGeometry relative="1" as="geometry" />
        </mxCell>
        <mxCell id="uQGv06zmIQrsjEMMD4d0-15" value="IRAM" style="whiteSpace=wrap;html=1;aspect=fixed;fillColor=#d5e8d4;strokeColor=none;" parent="1" vertex="1">
          <mxGeometry x="610" y="1589.67" width="80" height="80" as="geometry" />
        </mxCell>
        <mxCell id="uQGv06zmIQrsjEMMD4d0-16" value="" style="endArrow=classic;html=1;rounded=0;fontSize=25;entryX=0.25;entryY=0;entryDx=0;entryDy=0;" parent="1" target="uQGv06zmIQrsjEMMD4d0-15" edge="1">
          <mxGeometry width="50" height="50" relative="1" as="geometry">
            <mxPoint x="550" y="1509.67" as="sourcePoint" />
            <mxPoint x="680" y="1519.67" as="targetPoint" />
            <Array as="points">
              <mxPoint x="630" y="1509.67" />
            </Array>
          </mxGeometry>
        </mxCell>
        <mxCell id="uQGv06zmIQrsjEMMD4d0-57" style="edgeStyle=orthogonalEdgeStyle;rounded=0;orthogonalLoop=1;jettySize=auto;html=1;exitX=1;exitY=0.5;exitDx=0;exitDy=0;entryX=0;entryY=0.5;entryDx=0;entryDy=0;fontSize=12;" parent="1" source="uQGv06zmIQrsjEMMD4d0-17" target="uQGv06zmIQrsjEMMD4d0-42" edge="1">
          <mxGeometry relative="1" as="geometry" />
        </mxCell>
        <mxCell id="uQGv06zmIQrsjEMMD4d0-17" value="IR" style="whiteSpace=wrap;html=1;aspect=fixed;fillColor=#e1d5e7;strokeColor=none;" parent="1" vertex="1">
          <mxGeometry x="770" y="1499.67" width="80" height="80" as="geometry" />
        </mxCell>
        <mxCell id="uQGv06zmIQrsjEMMD4d0-20" value="&lt;font style=&quot;font-size: 12px;&quot;&gt;EN&lt;/font&gt;" style="edgeStyle=orthogonalEdgeStyle;rounded=0;orthogonalLoop=1;jettySize=auto;html=1;exitX=0.55;exitY=0.95;exitDx=0;exitDy=0;exitPerimeter=0;entryX=0.75;entryY=1;entryDx=0;entryDy=0;fontSize=25;fillColor=#0050ef;strokeColor=#001DBC;" parent="1" source="uQGv06zmIQrsjEMMD4d0-19" target="uQGv06zmIQrsjEMMD4d0-17" edge="1">
          <mxGeometry x="0.594" y="4" relative="1" as="geometry">
            <Array as="points">
              <mxPoint x="886" y="1629.67" />
              <mxPoint x="830" y="1629.67" />
            </Array>
            <mxPoint as="offset" />
          </mxGeometry>
        </mxCell>
        <mxCell id="uQGv06zmIQrsjEMMD4d0-37" style="edgeStyle=orthogonalEdgeStyle;rounded=0;orthogonalLoop=1;jettySize=auto;html=1;exitX=0.8;exitY=0.8;exitDx=0;exitDy=0;exitPerimeter=0;entryX=0.25;entryY=1;entryDx=0;entryDy=0;fontSize=12;strokeColor=#001DBC;" parent="1" source="uQGv06zmIQrsjEMMD4d0-19" target="uQGv06zmIQrsjEMMD4d0-17" edge="1">
          <mxGeometry relative="1" as="geometry">
            <Array as="points">
              <mxPoint x="916" y="1669.67" />
              <mxPoint x="790" y="1669.67" />
            </Array>
          </mxGeometry>
        </mxCell>
        <mxCell id="uQGv06zmIQrsjEMMD4d0-38" value="SET" style="edgeLabel;html=1;align=center;verticalAlign=middle;resizable=0;points=[];fontSize=12;" parent="uQGv06zmIQrsjEMMD4d0-37" connectable="0" vertex="1">
          <mxGeometry x="0.6082" y="-2" relative="1" as="geometry">
            <mxPoint y="22" as="offset" />
          </mxGeometry>
        </mxCell>
        <mxCell id="uQGv06zmIQrsjEMMD4d0-19" value="CU" style="ellipse;shape=cloud;whiteSpace=wrap;html=1;fontSize=25;fillColor=#fa6800;fontColor=#000000;strokeColor=none;gradientColor=none;opacity=70;" parent="1" vertex="1">
          <mxGeometry x="820" y="989.6700000000001" width="120" height="80" as="geometry" />
        </mxCell>
        <mxCell id="uQGv06zmIQrsjEMMD4d0-21" value="&lt;font style=&quot;font-size: 11px;&quot;&gt;EN&lt;/font&gt;" style="endArrow=classic;html=1;rounded=0;fontSize=25;entryX=0.75;entryY=0;entryDx=0;entryDy=0;startArrow=oval;startFill=1;fillColor=#0050ef;strokeColor=#001DBC;" parent="1" target="uQGv06zmIQrsjEMMD4d0-11" edge="1">
          <mxGeometry x="0.3333" width="50" height="50" relative="1" as="geometry">
            <mxPoint x="886" y="1090" as="sourcePoint" />
            <mxPoint x="980" y="1209.67" as="targetPoint" />
            <Array as="points">
              <mxPoint x="886" y="1089.67" />
              <mxPoint x="830" y="1089.67" />
              <mxPoint x="830" y="1129.67" />
            </Array>
            <mxPoint as="offset" />
          </mxGeometry>
        </mxCell>
        <mxCell id="uQGv06zmIQrsjEMMD4d0-22" value="" style="endArrow=classic;html=1;rounded=0;fontSize=12;entryX=0.25;entryY=0;entryDx=0;entryDy=0;" parent="1" target="uQGv06zmIQrsjEMMD4d0-11" edge="1">
          <mxGeometry width="50" height="50" relative="1" as="geometry">
            <mxPoint x="790" y="1109.67" as="sourcePoint" />
            <mxPoint x="950" y="1249.67" as="targetPoint" />
          </mxGeometry>
        </mxCell>
        <mxCell id="uQGv06zmIQrsjEMMD4d0-23" value="SET" style="edgeLabel;html=1;align=center;verticalAlign=middle;resizable=0;points=[];fontSize=12;" parent="uQGv06zmIQrsjEMMD4d0-22" connectable="0" vertex="1">
          <mxGeometry x="-0.5" y="-2" relative="1" as="geometry">
            <mxPoint as="offset" />
          </mxGeometry>
        </mxCell>
        <mxCell id="uQGv06zmIQrsjEMMD4d0-24" value="&#39;0&#39;" style="text;html=1;resizable=0;autosize=1;align=center;verticalAlign=middle;points=[];fillColor=none;strokeColor=none;rounded=0;fontSize=12;" parent="1" vertex="1">
          <mxGeometry x="775" y="1079.67" width="30" height="20" as="geometry" />
        </mxCell>
        <mxCell id="uQGv06zmIQrsjEMMD4d0-28" value="32" style="text;html=1;resizable=0;autosize=1;align=center;verticalAlign=middle;points=[];fillColor=none;strokeColor=none;rounded=0;fontSize=12;" parent="1" vertex="1">
          <mxGeometry x="530" y="1189.67" width="30" height="20" as="geometry" />
        </mxCell>
        <mxCell id="uQGv06zmIQrsjEMMD4d0-31" value="" style="endArrow=none;html=1;rounded=0;fontSize=12;" parent="1" edge="1">
          <mxGeometry width="50" height="50" relative="1" as="geometry">
            <mxPoint x="541" y="1214.67" as="sourcePoint" />
            <mxPoint x="551" y="1204.67" as="targetPoint" />
          </mxGeometry>
        </mxCell>
        <mxCell id="uQGv06zmIQrsjEMMD4d0-32" value="32" style="text;html=1;resizable=0;autosize=1;align=center;verticalAlign=middle;points=[];fillColor=none;strokeColor=none;rounded=0;fontSize=12;" parent="1" vertex="1">
          <mxGeometry x="590" y="1489.67" width="30" height="20" as="geometry" />
        </mxCell>
        <mxCell id="uQGv06zmIQrsjEMMD4d0-33" value="" style="endArrow=none;html=1;rounded=0;fontSize=12;" parent="1" edge="1">
          <mxGeometry width="50" height="50" relative="1" as="geometry">
            <mxPoint x="601" y="1514.67" as="sourcePoint" />
            <mxPoint x="611" y="1504.67" as="targetPoint" />
          </mxGeometry>
        </mxCell>
        <mxCell id="uQGv06zmIQrsjEMMD4d0-60" style="edgeStyle=orthogonalEdgeStyle;rounded=0;orthogonalLoop=1;jettySize=auto;html=1;exitX=0.4;exitY=0.1;exitDx=0;exitDy=0;exitPerimeter=0;entryX=-0.012;entryY=0.432;entryDx=0;entryDy=0;entryPerimeter=0;fontSize=12;" parent="1" source="uQGv06zmIQrsjEMMD4d0-41" target="uQGv06zmIQrsjEMMD4d0-54" edge="1">
          <mxGeometry relative="1" as="geometry" />
        </mxCell>
        <mxCell id="uQGv06zmIQrsjEMMD4d0-96" style="edgeStyle=orthogonalEdgeStyle;rounded=0;orthogonalLoop=1;jettySize=auto;html=1;exitX=0.625;exitY=0.2;exitDx=0;exitDy=0;exitPerimeter=0;entryX=0.006;entryY=0.283;entryDx=0;entryDy=0;entryPerimeter=0;fontSize=12;" parent="1" source="uQGv06zmIQrsjEMMD4d0-41" target="uQGv06zmIQrsjEMMD4d0-53" edge="1">
          <mxGeometry relative="1" as="geometry">
            <Array as="points">
              <mxPoint x="1280" y="1285.67" />
              <mxPoint x="1280" y="1205.67" />
            </Array>
          </mxGeometry>
        </mxCell>
        <mxCell id="uQGv06zmIQrsjEMMD4d0-41" value="WB" style="ellipse;shape=cloud;whiteSpace=wrap;html=1;fontSize=25;fillColor=#e3c800;fontColor=#000000;strokeColor=#B09500;opacity=70;" parent="1" vertex="1">
          <mxGeometry x="1211" y="1269.67" width="120" height="80" as="geometry" />
        </mxCell>
        <mxCell id="uQGv06zmIQrsjEMMD4d0-46" style="edgeStyle=orthogonalEdgeStyle;rounded=0;orthogonalLoop=1;jettySize=auto;html=1;exitX=1;exitY=0.5;exitDx=0;exitDy=0;entryX=0;entryY=0.21666666666666667;entryDx=0;entryDy=3;entryPerimeter=0;fontSize=12;" parent="1" source="uQGv06zmIQrsjEMMD4d0-42" target="uQGv06zmIQrsjEMMD4d0-44" edge="1">
          <mxGeometry relative="1" as="geometry" />
        </mxCell>
        <mxCell id="uQGv06zmIQrsjEMMD4d0-42" value="SIGN EXT" style="rounded=0;whiteSpace=wrap;html=1;fontSize=12;fillColor=#dae8fc;strokeColor=none;" parent="1" vertex="1">
          <mxGeometry x="1320" y="1399.67" width="120" height="60" as="geometry" />
        </mxCell>
        <mxCell id="uQGv06zmIQrsjEMMD4d0-45" style="edgeStyle=orthogonalEdgeStyle;rounded=0;orthogonalLoop=1;jettySize=auto;html=1;exitX=1;exitY=0.5;exitDx=0;exitDy=0;entryX=0;entryY=0.65;entryDx=0;entryDy=3;entryPerimeter=0;fontSize=12;" parent="1" source="uQGv06zmIQrsjEMMD4d0-43" target="uQGv06zmIQrsjEMMD4d0-44" edge="1">
          <mxGeometry relative="1" as="geometry" />
        </mxCell>
        <mxCell id="uQGv06zmIQrsjEMMD4d0-43" value="ADDR EXT" style="rounded=0;whiteSpace=wrap;html=1;fontSize=12;fillColor=#dae8fc;strokeColor=none;" parent="1" vertex="1">
          <mxGeometry x="1320" y="1489.67" width="120" height="60" as="geometry" />
        </mxCell>
        <mxCell id="uQGv06zmIQrsjEMMD4d0-64" style="edgeStyle=orthogonalEdgeStyle;rounded=0;orthogonalLoop=1;jettySize=auto;html=1;exitX=1;exitY=0.5;exitDx=0;exitDy=-5;exitPerimeter=0;entryX=0;entryY=0.5;entryDx=0;entryDy=0;fontSize=12;" parent="1" source="uQGv06zmIQrsjEMMD4d0-44" target="uQGv06zmIQrsjEMMD4d0-63" edge="1">
          <mxGeometry relative="1" as="geometry" />
        </mxCell>
        <mxCell id="uQGv06zmIQrsjEMMD4d0-44" value="Mux" style="shadow=0;dashed=0;align=center;html=1;strokeWidth=1;shape=mxgraph.electrical.abstract.mux2;rotation=0;fillColor=#fad9d5;strokeColor=none;" parent="1" vertex="1">
          <mxGeometry x="1510" y="1409.67" width="80" height="120" as="geometry" />
        </mxCell>
        <mxCell id="uQGv06zmIQrsjEMMD4d0-49" style="edgeStyle=orthogonalEdgeStyle;rounded=0;orthogonalLoop=1;jettySize=auto;html=1;exitX=0.625;exitY=0.2;exitDx=0;exitDy=0;exitPerimeter=0;entryX=0.375;entryY=1;entryDx=10;entryDy=0;entryPerimeter=0;fontSize=12;fillColor=#0050ef;strokeColor=#001DBC;" parent="1" source="uQGv06zmIQrsjEMMD4d0-48" target="uQGv06zmIQrsjEMMD4d0-44" edge="1">
          <mxGeometry relative="1" as="geometry" />
        </mxCell>
        <mxCell id="uQGv06zmIQrsjEMMD4d0-48" value="CU" style="ellipse;shape=cloud;whiteSpace=wrap;html=1;fontSize=25;fillColor=#fa6800;fontColor=#000000;strokeColor=none;gradientColor=none;opacity=70;" parent="1" vertex="1">
          <mxGeometry x="1475" y="1569.67" width="120" height="80" as="geometry" />
        </mxCell>
        <mxCell id="uQGv06zmIQrsjEMMD4d0-75" style="edgeStyle=orthogonalEdgeStyle;rounded=0;orthogonalLoop=1;jettySize=auto;html=1;exitX=1;exitY=0.25;exitDx=0;exitDy=0;entryX=0;entryY=0.21666666666666667;entryDx=0;entryDy=3;entryPerimeter=0;fontSize=12;" parent="1" source="uQGv06zmIQrsjEMMD4d0-50" target="uQGv06zmIQrsjEMMD4d0-68" edge="1">
          <mxGeometry relative="1" as="geometry">
            <Array as="points">
              <mxPoint x="1510" y="1102.67" />
              <mxPoint x="1510" y="1008.6700000000001" />
            </Array>
          </mxGeometry>
        </mxCell>
        <mxCell id="uQGv06zmIQrsjEMMD4d0-76" style="edgeStyle=orthogonalEdgeStyle;rounded=0;orthogonalLoop=1;jettySize=auto;html=1;exitX=1;exitY=0.75;exitDx=0;exitDy=0;entryX=0;entryY=0.21666666666666667;entryDx=0;entryDy=3;entryPerimeter=0;fontSize=12;" parent="1" source="uQGv06zmIQrsjEMMD4d0-50" target="uQGv06zmIQrsjEMMD4d0-67" edge="1">
          <mxGeometry relative="1" as="geometry">
            <Array as="points">
              <mxPoint x="1570" y="1187.67" />
              <mxPoint x="1570" y="1168.67" />
            </Array>
          </mxGeometry>
        </mxCell>
        <mxCell id="uQGv06zmIQrsjEMMD4d0-50" value="RF" style="whiteSpace=wrap;html=1;aspect=fixed;fontSize=12;fillColor=#d5e8d4;strokeColor=none;" parent="1" vertex="1">
          <mxGeometry x="1310" y="1059.67" width="170" height="170" as="geometry" />
        </mxCell>
        <mxCell id="uQGv06zmIQrsjEMMD4d0-53" value="WR data" style="text;html=1;resizable=0;autosize=1;align=center;verticalAlign=middle;points=[];fillColor=none;strokeColor=none;rounded=0;fontSize=12;" parent="1" vertex="1">
          <mxGeometry x="1310" y="1199.67" width="60" height="20" as="geometry" />
        </mxCell>
        <mxCell id="uQGv06zmIQrsjEMMD4d0-54" value="WR" style="text;html=1;resizable=0;autosize=1;align=center;verticalAlign=middle;points=[];fillColor=none;strokeColor=none;rounded=0;fontSize=12;" parent="1" vertex="1">
          <mxGeometry x="1310" y="1159.67" width="40" height="20" as="geometry" />
        </mxCell>
        <mxCell id="uQGv06zmIQrsjEMMD4d0-55" value="RP2" style="text;html=1;resizable=0;autosize=1;align=center;verticalAlign=middle;points=[];fillColor=none;strokeColor=none;rounded=0;fontSize=12;" parent="1" vertex="1">
          <mxGeometry x="1310" y="1129.67" width="40" height="20" as="geometry" />
        </mxCell>
        <mxCell id="uQGv06zmIQrsjEMMD4d0-56" value="RP1" style="text;html=1;resizable=0;autosize=1;align=center;verticalAlign=middle;points=[];fillColor=none;strokeColor=none;rounded=0;fontSize=12;" parent="1" vertex="1">
          <mxGeometry x="1310" y="1089.67" width="40" height="20" as="geometry" />
        </mxCell>
        <mxCell id="uQGv06zmIQrsjEMMD4d0-62" value="" style="endArrow=classic;html=1;rounded=0;fontSize=12;entryX=0;entryY=0.5;entryDx=0;entryDy=0;startArrow=oval;startFill=1;" parent="1" target="uQGv06zmIQrsjEMMD4d0-43" edge="1">
          <mxGeometry width="50" height="50" relative="1" as="geometry">
            <mxPoint x="1210" y="1430" as="sourcePoint" />
            <mxPoint x="1310" y="1509.67" as="targetPoint" />
            <Array as="points">
              <mxPoint x="1210" y="1519.67" />
            </Array>
          </mxGeometry>
        </mxCell>
        <mxCell id="uQGv06zmIQrsjEMMD4d0-165" style="edgeStyle=orthogonalEdgeStyle;rounded=0;orthogonalLoop=1;jettySize=auto;html=1;exitX=1;exitY=0.5;exitDx=0;exitDy=0;fontSize=12;" parent="1" source="uQGv06zmIQrsjEMMD4d0-63" edge="1">
          <mxGeometry relative="1" as="geometry">
            <mxPoint x="2440" y="1500" as="targetPoint" />
          </mxGeometry>
        </mxCell>
        <mxCell id="uQGv06zmIQrsjEMMD4d0-63" value="IMM" style="whiteSpace=wrap;html=1;aspect=fixed;fillColor=#e1d5e7;strokeColor=none;" parent="1" vertex="1">
          <mxGeometry x="1660" y="1424.67" width="80" height="80" as="geometry" />
        </mxCell>
        <mxCell id="uQGv06zmIQrsjEMMD4d0-65" value="SET" style="endArrow=classic;html=1;rounded=0;fontSize=12;entryX=0.75;entryY=1;entryDx=0;entryDy=0;" parent="1" target="uQGv06zmIQrsjEMMD4d0-63" edge="1">
          <mxGeometry x="-0.6226" width="50" height="50" relative="1" as="geometry">
            <mxPoint x="1790" y="1539.67" as="sourcePoint" />
            <mxPoint x="1700" y="1389.67" as="targetPoint" />
            <Array as="points">
              <mxPoint x="1720" y="1539.67" />
            </Array>
            <mxPoint as="offset" />
          </mxGeometry>
        </mxCell>
        <mxCell id="uQGv06zmIQrsjEMMD4d0-66" value="&#39;0&#39;" style="text;html=1;resizable=0;autosize=1;align=center;verticalAlign=middle;points=[];fillColor=none;strokeColor=none;rounded=0;fontSize=12;" parent="1" vertex="1">
          <mxGeometry x="1805" y="1529.67" width="30" height="20" as="geometry" />
        </mxCell>
        <mxCell id="uQGv06zmIQrsjEMMD4d0-81" style="edgeStyle=orthogonalEdgeStyle;rounded=0;orthogonalLoop=1;jettySize=auto;html=1;exitX=1;exitY=0.5;exitDx=0;exitDy=-5;exitPerimeter=0;fontSize=12;" parent="1" source="uQGv06zmIQrsjEMMD4d0-67" target="uQGv06zmIQrsjEMMD4d0-80" edge="1">
          <mxGeometry relative="1" as="geometry" />
        </mxCell>
        <mxCell id="uQGv06zmIQrsjEMMD4d0-67" value="Mux" style="shadow=0;dashed=0;align=center;html=1;strokeWidth=1;shape=mxgraph.electrical.abstract.mux2;rotation=0;fillColor=#fad9d5;strokeColor=none;" parent="1" vertex="1">
          <mxGeometry x="1620" y="1139.67" width="80" height="120.33" as="geometry" />
        </mxCell>
        <mxCell id="uQGv06zmIQrsjEMMD4d0-82" style="edgeStyle=orthogonalEdgeStyle;rounded=0;orthogonalLoop=1;jettySize=auto;html=1;exitX=1;exitY=0.5;exitDx=0;exitDy=-5;exitPerimeter=0;fontSize=12;" parent="1" source="uQGv06zmIQrsjEMMD4d0-68" target="uQGv06zmIQrsjEMMD4d0-79" edge="1">
          <mxGeometry relative="1" as="geometry" />
        </mxCell>
        <mxCell id="uQGv06zmIQrsjEMMD4d0-68" value="Mux" style="shadow=0;dashed=0;align=center;html=1;strokeWidth=1;shape=mxgraph.electrical.abstract.mux2;rotation=0;fillColor=#fad9d5;strokeColor=none;" parent="1" vertex="1">
          <mxGeometry x="1620" y="979.6700000000001" width="80" height="120" as="geometry" />
        </mxCell>
        <mxCell id="uQGv06zmIQrsjEMMD4d0-71" style="edgeStyle=orthogonalEdgeStyle;rounded=0;orthogonalLoop=1;jettySize=auto;html=1;exitX=0.55;exitY=0.95;exitDx=0;exitDy=0;exitPerimeter=0;fontSize=12;fillColor=#0050ef;strokeColor=#001DBC;" parent="1" edge="1">
          <mxGeometry relative="1" as="geometry">
            <Array as="points">
              <mxPoint x="1816" y="1265" />
              <mxPoint x="1660" y="1265" />
            </Array>
            <mxPoint x="1816" y="880.6700000000001" as="sourcePoint" />
            <mxPoint x="1660" y="1244" as="targetPoint" />
          </mxGeometry>
        </mxCell>
        <mxCell id="uQGv06zmIQrsjEMMD4d0-87" style="edgeStyle=orthogonalEdgeStyle;rounded=0;orthogonalLoop=1;jettySize=auto;html=1;exitX=0.96;exitY=0.7;exitDx=0;exitDy=0;exitPerimeter=0;entryX=0.25;entryY=1;entryDx=0;entryDy=0;fontSize=12;fillColor=#0050ef;strokeColor=#001DBC;" parent="1" source="uQGv06zmIQrsjEMMD4d0-69" target="uQGv06zmIQrsjEMMD4d0-79" edge="1">
          <mxGeometry relative="1" as="geometry">
            <Array as="points">
              <mxPoint x="2090" y="875.6700000000001" />
              <mxPoint x="2090" y="1129.67" />
              <mxPoint x="1870" y="1129.67" />
            </Array>
          </mxGeometry>
        </mxCell>
        <mxCell id="uQGv06zmIQrsjEMMD4d0-93" style="edgeStyle=orthogonalEdgeStyle;rounded=0;orthogonalLoop=1;jettySize=auto;html=1;exitX=0.88;exitY=0.25;exitDx=0;exitDy=0;exitPerimeter=0;entryX=0.75;entryY=1;entryDx=0;entryDy=0;fontSize=12;fillColor=#0050ef;strokeColor=#001DBC;" parent="1" source="uQGv06zmIQrsjEMMD4d0-69" target="uQGv06zmIQrsjEMMD4d0-91" edge="1">
          <mxGeometry relative="1" as="geometry">
            <Array as="points">
              <mxPoint x="2120" y="839.6700000000001" />
              <mxPoint x="2120" y="1729.67" />
              <mxPoint x="1750" y="1729.67" />
            </Array>
          </mxGeometry>
        </mxCell>
        <mxCell id="uQGv06zmIQrsjEMMD4d0-184" value="EN" style="edgeLabel;html=1;align=center;verticalAlign=middle;resizable=0;points=[];fontSize=18;" parent="uQGv06zmIQrsjEMMD4d0-93" connectable="0" vertex="1">
          <mxGeometry x="0.8883" y="-3" relative="1" as="geometry">
            <mxPoint as="offset" />
          </mxGeometry>
        </mxCell>
        <mxCell id="uQGv06zmIQrsjEMMD4d0-69" value="CU" style="ellipse;shape=cloud;whiteSpace=wrap;html=1;fontSize=25;fillColor=#fa6800;fontColor=#000000;strokeColor=none;gradientColor=none;opacity=70;" parent="1" vertex="1">
          <mxGeometry x="1750" y="819.6700000000001" width="120" height="80" as="geometry" />
        </mxCell>
        <mxCell id="uQGv06zmIQrsjEMMD4d0-73" style="edgeStyle=orthogonalEdgeStyle;rounded=0;orthogonalLoop=1;jettySize=auto;html=1;exitX=0.55;exitY=0.95;exitDx=0;exitDy=0;exitPerimeter=0;entryX=0;entryY=0.65;entryDx=0;entryDy=3;entryPerimeter=0;fontSize=12;" parent="1" source="uQGv06zmIQrsjEMMD4d0-72" target="uQGv06zmIQrsjEMMD4d0-68" edge="1">
          <mxGeometry relative="1" as="geometry">
            <Array as="points">
              <mxPoint x="1540" y="865.6700000000001" />
              <mxPoint x="1540" y="1060.67" />
            </Array>
          </mxGeometry>
        </mxCell>
        <mxCell id="uQGv06zmIQrsjEMMD4d0-72" value="WB" style="ellipse;shape=cloud;whiteSpace=wrap;html=1;fontSize=25;fillColor=#e3c800;fontColor=#000000;strokeColor=#B09500;opacity=70;" parent="1" vertex="1">
          <mxGeometry x="1480" y="789.6700000000001" width="120" height="80" as="geometry" />
        </mxCell>
        <mxCell id="uQGv06zmIQrsjEMMD4d0-74" value="" style="endArrow=classic;html=1;rounded=0;fontSize=12;startArrow=oval;startFill=1;" parent="1" edge="1">
          <mxGeometry width="50" height="50" relative="1" as="geometry">
            <mxPoint x="1540" y="1061" as="sourcePoint" />
            <mxPoint x="1620" y="1221" as="targetPoint" />
            <Array as="points">
              <mxPoint x="1540" y="1221" />
            </Array>
          </mxGeometry>
        </mxCell>
        <mxCell id="uQGv06zmIQrsjEMMD4d0-77" value="A" style="text;html=1;resizable=0;autosize=1;align=center;verticalAlign=middle;points=[];fillColor=none;strokeColor=none;rounded=0;fontSize=12;" parent="1" vertex="1">
          <mxGeometry x="1460" y="1089.67" width="20" height="20" as="geometry" />
        </mxCell>
        <mxCell id="uQGv06zmIQrsjEMMD4d0-78" value="B" style="text;html=1;resizable=0;autosize=1;align=center;verticalAlign=middle;points=[];fillColor=none;strokeColor=none;rounded=0;fontSize=12;" parent="1" vertex="1">
          <mxGeometry x="1460" y="1179.67" width="20" height="20" as="geometry" />
        </mxCell>
        <mxCell id="uQGv06zmIQrsjEMMD4d0-141" style="edgeStyle=orthogonalEdgeStyle;rounded=0;orthogonalLoop=1;jettySize=auto;html=1;exitX=1;exitY=0.5;exitDx=0;exitDy=0;fontSize=12;" parent="1" source="uQGv06zmIQrsjEMMD4d0-79" edge="1">
          <mxGeometry relative="1" as="geometry">
            <mxPoint x="2440" y="1160" as="targetPoint" />
            <Array as="points">
              <mxPoint x="2140" y="1035" />
              <mxPoint x="2140" y="1160" />
              <mxPoint x="2435" y="1160" />
            </Array>
          </mxGeometry>
        </mxCell>
        <mxCell id="uQGv06zmIQrsjEMMD4d0-79" value="A" style="whiteSpace=wrap;html=1;aspect=fixed;fillColor=#e1d5e7;strokeColor=none;" parent="1" vertex="1">
          <mxGeometry x="1850" y="994.6700000000001" width="80" height="80" as="geometry" />
        </mxCell>
        <mxCell id="uQGv06zmIQrsjEMMD4d0-162" style="edgeStyle=orthogonalEdgeStyle;rounded=0;orthogonalLoop=1;jettySize=auto;html=1;exitX=1;exitY=0.5;exitDx=0;exitDy=0;fontSize=12;" parent="1" source="uQGv06zmIQrsjEMMD4d0-80" edge="1">
          <mxGeometry relative="1" as="geometry">
            <mxPoint x="2440" y="1460" as="targetPoint" />
            <Array as="points">
              <mxPoint x="1930" y="1209.67" />
              <mxPoint x="2140" y="1209.67" />
              <mxPoint x="2140" y="1459.67" />
            </Array>
          </mxGeometry>
        </mxCell>
        <mxCell id="uQGv06zmIQrsjEMMD4d0-80" value="B" style="whiteSpace=wrap;html=1;aspect=fixed;fillColor=#e1d5e7;strokeColor=none;" parent="1" vertex="1">
          <mxGeometry x="1850" y="1154.67" width="80" height="80" as="geometry" />
        </mxCell>
        <mxCell id="uQGv06zmIQrsjEMMD4d0-83" value="SET" style="endArrow=classic;html=1;rounded=0;fontSize=12;entryX=0.75;entryY=1;entryDx=0;entryDy=0;" parent="1" edge="1">
          <mxGeometry x="-0.6226" width="50" height="50" relative="1" as="geometry">
            <mxPoint x="1980" y="1269.67" as="sourcePoint" />
            <mxPoint x="1910" y="1234.67" as="targetPoint" />
            <Array as="points">
              <mxPoint x="1910" y="1269.67" />
            </Array>
            <mxPoint as="offset" />
          </mxGeometry>
        </mxCell>
        <mxCell id="uQGv06zmIQrsjEMMD4d0-84" value="&#39;0&#39;" style="text;html=1;resizable=0;autosize=1;align=center;verticalAlign=middle;points=[];fillColor=none;strokeColor=none;rounded=0;fontSize=12;" parent="1" vertex="1">
          <mxGeometry x="1995" y="1259.67" width="30" height="20" as="geometry" />
        </mxCell>
        <mxCell id="uQGv06zmIQrsjEMMD4d0-85" value="SET" style="endArrow=classic;html=1;rounded=0;fontSize=12;entryX=0.75;entryY=1;entryDx=0;entryDy=0;" parent="1" edge="1">
          <mxGeometry x="-0.6226" width="50" height="50" relative="1" as="geometry">
            <mxPoint x="1980" y="1109.67" as="sourcePoint" />
            <mxPoint x="1910" y="1074.67" as="targetPoint" />
            <Array as="points">
              <mxPoint x="1910" y="1109.67" />
            </Array>
            <mxPoint as="offset" />
          </mxGeometry>
        </mxCell>
        <mxCell id="uQGv06zmIQrsjEMMD4d0-86" value="&#39;0&#39;" style="text;html=1;resizable=0;autosize=1;align=center;verticalAlign=middle;points=[];fillColor=none;strokeColor=none;rounded=0;fontSize=12;" parent="1" vertex="1">
          <mxGeometry x="1995" y="1099.67" width="30" height="20" as="geometry" />
        </mxCell>
        <mxCell id="uQGv06zmIQrsjEMMD4d0-89" value="" style="endArrow=classic;html=1;rounded=0;fontSize=12;entryX=0.25;entryY=1;entryDx=0;entryDy=0;fillColor=#0050ef;strokeColor=#001DBC;startArrow=oval;startFill=1;" parent="1" target="uQGv06zmIQrsjEMMD4d0-80" edge="1">
          <mxGeometry width="50" height="50" relative="1" as="geometry">
            <mxPoint x="2090" y="1129.67" as="sourcePoint" />
            <mxPoint x="2090" y="1149.67" as="targetPoint" />
            <Array as="points">
              <mxPoint x="2090" y="1349.67" />
              <mxPoint x="1870" y="1349.67" />
            </Array>
          </mxGeometry>
        </mxCell>
        <mxCell id="uQGv06zmIQrsjEMMD4d0-90" value="" style="endArrow=classic;html=1;rounded=0;fontSize=12;entryX=0.25;entryY=1;entryDx=0;entryDy=0;fillColor=#0050ef;strokeColor=#001DBC;startArrow=oval;startFill=1;" parent="1" target="uQGv06zmIQrsjEMMD4d0-63" edge="1">
          <mxGeometry width="50" height="50" relative="1" as="geometry">
            <mxPoint x="2090" y="1349.67" as="sourcePoint" />
            <mxPoint x="1950" y="1409.67" as="targetPoint" />
            <Array as="points">
              <mxPoint x="2090" y="1579.67" />
              <mxPoint x="1890" y="1579.67" />
              <mxPoint x="1680" y="1579.67" />
            </Array>
          </mxGeometry>
        </mxCell>
        <mxCell id="uQGv06zmIQrsjEMMD4d0-186" style="edgeStyle=orthogonalEdgeStyle;rounded=0;orthogonalLoop=1;jettySize=auto;html=1;exitX=1;exitY=0.5;exitDx=0;exitDy=0;entryX=0;entryY=0.5;entryDx=0;entryDy=0;fontSize=18;" parent="1" source="uQGv06zmIQrsjEMMD4d0-91" target="uQGv06zmIQrsjEMMD4d0-179" edge="1">
          <mxGeometry relative="1" as="geometry">
            <Array as="points">
              <mxPoint x="2270" y="1670" />
              <mxPoint x="2270" y="1780" />
            </Array>
          </mxGeometry>
        </mxCell>
        <mxCell id="uQGv06zmIQrsjEMMD4d0-91" value="IR" style="whiteSpace=wrap;html=1;aspect=fixed;fillColor=#e1d5e7;strokeColor=none;" parent="1" vertex="1">
          <mxGeometry x="1690" y="1629.67" width="80" height="80" as="geometry" />
        </mxCell>
        <mxCell id="uQGv06zmIQrsjEMMD4d0-92" value="" style="endArrow=classic;html=1;rounded=0;fontSize=12;entryX=0;entryY=0.5;entryDx=0;entryDy=0;startArrow=oval;startFill=1;" parent="1" target="uQGv06zmIQrsjEMMD4d0-91" edge="1">
          <mxGeometry width="50" height="50" relative="1" as="geometry">
            <mxPoint x="1210" y="1519.67" as="sourcePoint" />
            <mxPoint x="1530" y="1569.67" as="targetPoint" />
            <Array as="points">
              <mxPoint x="1210" y="1669.67" />
              <mxPoint x="1650" y="1669.67" />
            </Array>
          </mxGeometry>
        </mxCell>
        <mxCell id="uQGv06zmIQrsjEMMD4d0-94" value="" style="endArrow=classic;html=1;rounded=0;fontSize=12;entryX=0.25;entryY=1;entryDx=0;entryDy=0;fillColor=#0050ef;strokeColor=#001DBC;startArrow=oval;startFill=1;" parent="1" target="uQGv06zmIQrsjEMMD4d0-91" edge="1">
          <mxGeometry width="50" height="50" relative="1" as="geometry">
            <mxPoint x="2090" y="1579.67" as="sourcePoint" />
            <mxPoint x="1950" y="1619.67" as="targetPoint" />
            <Array as="points">
              <mxPoint x="2090" y="1769.67" />
              <mxPoint x="1710" y="1769.67" />
            </Array>
          </mxGeometry>
        </mxCell>
        <mxCell id="uQGv06zmIQrsjEMMD4d0-185" value="SET" style="edgeLabel;html=1;align=center;verticalAlign=middle;resizable=0;points=[];fontSize=18;" parent="uQGv06zmIQrsjEMMD4d0-94" connectable="0" vertex="1">
          <mxGeometry x="0.6134" y="8" relative="1" as="geometry">
            <mxPoint x="1" as="offset" />
          </mxGeometry>
        </mxCell>
        <mxCell id="uQGv06zmIQrsjEMMD4d0-97" value="" style="endArrow=none;html=1;rounded=0;fontSize=12;" parent="1" edge="1">
          <mxGeometry width="50" height="50" relative="1" as="geometry">
            <mxPoint x="1531" y="949.6700000000001" as="sourcePoint" />
            <mxPoint x="1546" y="939.6700000000001" as="targetPoint" />
          </mxGeometry>
        </mxCell>
        <mxCell id="uQGv06zmIQrsjEMMD4d0-98" value="32" style="text;html=1;resizable=0;autosize=1;align=center;verticalAlign=middle;points=[];fillColor=none;strokeColor=none;rounded=0;fontSize=12;" parent="1" vertex="1">
          <mxGeometry x="1506" y="929.6700000000001" width="30" height="20" as="geometry" />
        </mxCell>
        <mxCell id="uQGv06zmIQrsjEMMD4d0-99" value="32" style="text;html=1;resizable=0;autosize=1;align=center;verticalAlign=middle;points=[];fillColor=none;strokeColor=none;rounded=0;fontSize=12;" parent="1" vertex="1">
          <mxGeometry x="680" y="1520.17" width="30" height="20" as="geometry" />
        </mxCell>
        <mxCell id="uQGv06zmIQrsjEMMD4d0-100" value="" style="endArrow=none;html=1;rounded=0;fontSize=12;" parent="1" edge="1">
          <mxGeometry width="50" height="50" relative="1" as="geometry">
            <mxPoint x="691" y="1545.17" as="sourcePoint" />
            <mxPoint x="701" y="1535.17" as="targetPoint" />
          </mxGeometry>
        </mxCell>
        <mxCell id="uQGv06zmIQrsjEMMD4d0-101" value="32" style="text;html=1;resizable=0;autosize=1;align=center;verticalAlign=middle;points=[];fillColor=none;strokeColor=none;rounded=0;fontSize=12;" parent="1" vertex="1">
          <mxGeometry x="548" y="1229.67" width="30" height="20" as="geometry" />
        </mxCell>
        <mxCell id="uQGv06zmIQrsjEMMD4d0-102" value="" style="endArrow=none;html=1;rounded=0;fontSize=12;" parent="1" edge="1">
          <mxGeometry width="50" height="50" relative="1" as="geometry">
            <mxPoint x="559" y="1254.67" as="sourcePoint" />
            <mxPoint x="569" y="1244.67" as="targetPoint" />
          </mxGeometry>
        </mxCell>
        <mxCell id="uQGv06zmIQrsjEMMD4d0-103" value="32" style="text;html=1;resizable=0;autosize=1;align=center;verticalAlign=middle;points=[];fillColor=none;strokeColor=none;rounded=0;fontSize=12;" parent="1" vertex="1">
          <mxGeometry x="548" y="1109.67" width="30" height="20" as="geometry" />
        </mxCell>
        <mxCell id="uQGv06zmIQrsjEMMD4d0-104" value="" style="endArrow=none;html=1;rounded=0;fontSize=12;" parent="1" edge="1">
          <mxGeometry width="50" height="50" relative="1" as="geometry">
            <mxPoint x="559" y="1134.67" as="sourcePoint" />
            <mxPoint x="569" y="1124.67" as="targetPoint" />
          </mxGeometry>
        </mxCell>
        <mxCell id="uQGv06zmIQrsjEMMD4d0-105" value="16" style="text;html=1;resizable=0;autosize=1;align=center;verticalAlign=middle;points=[];fillColor=none;strokeColor=none;rounded=0;fontSize=12;" parent="1" vertex="1">
          <mxGeometry x="1240" y="1411.17" width="30" height="20" as="geometry" />
        </mxCell>
        <mxCell id="uQGv06zmIQrsjEMMD4d0-106" value="" style="endArrow=none;html=1;rounded=0;fontSize=12;" parent="1" edge="1">
          <mxGeometry width="50" height="50" relative="1" as="geometry">
            <mxPoint x="1251" y="1436.17" as="sourcePoint" />
            <mxPoint x="1261" y="1426.17" as="targetPoint" />
          </mxGeometry>
        </mxCell>
        <mxCell id="uQGv06zmIQrsjEMMD4d0-107" value="26" style="text;html=1;resizable=0;autosize=1;align=center;verticalAlign=middle;points=[];fillColor=none;strokeColor=none;rounded=0;fontSize=12;" parent="1" vertex="1">
          <mxGeometry x="1240" y="1499.67" width="30" height="20" as="geometry" />
        </mxCell>
        <mxCell id="uQGv06zmIQrsjEMMD4d0-108" value="" style="endArrow=none;html=1;rounded=0;fontSize=12;" parent="1" edge="1">
          <mxGeometry width="50" height="50" relative="1" as="geometry">
            <mxPoint x="1251" y="1524.67" as="sourcePoint" />
            <mxPoint x="1261" y="1514.67" as="targetPoint" />
          </mxGeometry>
        </mxCell>
        <mxCell id="uQGv06zmIQrsjEMMD4d0-109" value="32" style="text;html=1;resizable=0;autosize=1;align=center;verticalAlign=middle;points=[];fillColor=none;strokeColor=none;rounded=0;fontSize=12;" parent="1" vertex="1">
          <mxGeometry x="1445" y="1409.67" width="30" height="20" as="geometry" />
        </mxCell>
        <mxCell id="uQGv06zmIQrsjEMMD4d0-110" value="" style="endArrow=none;html=1;rounded=0;fontSize=12;" parent="1" edge="1">
          <mxGeometry width="50" height="50" relative="1" as="geometry">
            <mxPoint x="1456" y="1434.67" as="sourcePoint" />
            <mxPoint x="1466" y="1424.67" as="targetPoint" />
          </mxGeometry>
        </mxCell>
        <mxCell id="uQGv06zmIQrsjEMMD4d0-111" value="32" style="text;html=1;resizable=0;autosize=1;align=center;verticalAlign=middle;points=[];fillColor=none;strokeColor=none;rounded=0;fontSize=12;" parent="1" vertex="1">
          <mxGeometry x="1445" y="1499.67" width="30" height="20" as="geometry" />
        </mxCell>
        <mxCell id="uQGv06zmIQrsjEMMD4d0-112" value="" style="endArrow=none;html=1;rounded=0;fontSize=12;" parent="1" edge="1">
          <mxGeometry width="50" height="50" relative="1" as="geometry">
            <mxPoint x="1456" y="1524.67" as="sourcePoint" />
            <mxPoint x="1466" y="1514.67" as="targetPoint" />
          </mxGeometry>
        </mxCell>
        <mxCell id="uQGv06zmIQrsjEMMD4d0-117" value="5" style="text;html=1;resizable=0;autosize=1;align=center;verticalAlign=middle;points=[];fillColor=none;strokeColor=none;rounded=0;fontSize=12;" parent="1" vertex="1">
          <mxGeometry x="1245" y="1124.67" width="20" height="20" as="geometry" />
        </mxCell>
        <mxCell id="uQGv06zmIQrsjEMMD4d0-118" value="" style="endArrow=none;html=1;rounded=0;fontSize=12;" parent="1" edge="1">
          <mxGeometry width="50" height="50" relative="1" as="geometry">
            <mxPoint x="1251" y="1149.67" as="sourcePoint" />
            <mxPoint x="1261" y="1139.67" as="targetPoint" />
          </mxGeometry>
        </mxCell>
        <mxCell id="uQGv06zmIQrsjEMMD4d0-119" value="5&lt;span style=&quot;color: rgba(0, 0, 0, 0); font-family: monospace; font-size: 0px; text-align: start;&quot;&gt;%3CmxGraphModel%3E%3Croot%3E%3CmxCell%20id%3D%220%22%2F%3E%3CmxCell%20id%3D%221%22%20parent%3D%220%22%2F%3E%3CmxCell%20id%3D%222%22%20value%3D%2216%22%20style%3D%22text%3Bhtml%3D1%3Bresizable%3D0%3Bautosize%3D1%3Balign%3Dcenter%3BverticalAlign%3Dmiddle%3Bpoints%3D%5B%5D%3BfillColor%3Dnone%3BstrokeColor%3Dnone%3Brounded%3D0%3BfontSize%3D12%3B%22%20vertex%3D%221%22%20parent%3D%221%22%3E%3CmxGeometry%20x%3D%221190%22%20y%3D%22565%22%20width%3D%2230%22%20height%3D%2220%22%20as%3D%22geometry%22%2F%3E%3C%2FmxCell%3E%3CmxCell%20id%3D%223%22%20value%3D%22%22%20style%3D%22endArrow%3Dnone%3Bhtml%3D1%3Brounded%3D0%3BfontSize%3D12%3B%22%20edge%3D%221%22%20parent%3D%221%22%3E%3CmxGeometry%20width%3D%2250%22%20height%3D%2250%22%20relative%3D%221%22%20as%3D%22geometry%22%3E%3CmxPoint%20x%3D%221201%22%20y%3D%22590%22%20as%3D%22sourcePoint%22%2F%3E%3CmxPoint%20x%3D%221211%22%20y%3D%22580%22%20as%3D%22targetPoint%22%2F%3E%3C%2FmxGeometry%3E%3C%2FmxCell%3E%3C%2Froot%3E%3C%2FmxGraphModel%3E&lt;/span&gt;" style="text;html=1;resizable=0;autosize=1;align=center;verticalAlign=middle;points=[];fillColor=none;strokeColor=none;rounded=0;fontSize=12;" parent="1" vertex="1">
          <mxGeometry x="1245" y="1083.67" width="20" height="20" as="geometry" />
        </mxCell>
        <mxCell id="uQGv06zmIQrsjEMMD4d0-120" value="" style="endArrow=none;html=1;rounded=0;fontSize=12;" parent="1" edge="1">
          <mxGeometry width="50" height="50" relative="1" as="geometry">
            <mxPoint x="1251" y="1108.67" as="sourcePoint" />
            <mxPoint x="1261" y="1098.67" as="targetPoint" />
          </mxGeometry>
        </mxCell>
        <mxCell id="uQGv06zmIQrsjEMMD4d0-121" value="5" style="text;html=1;resizable=0;autosize=1;align=center;verticalAlign=middle;points=[];fillColor=none;strokeColor=none;rounded=0;fontSize=12;" parent="1" vertex="1">
          <mxGeometry x="1265" y="1149.67" width="20" height="20" as="geometry" />
        </mxCell>
        <mxCell id="uQGv06zmIQrsjEMMD4d0-122" value="" style="endArrow=none;html=1;rounded=0;fontSize=12;" parent="1" edge="1">
          <mxGeometry width="50" height="50" relative="1" as="geometry">
            <mxPoint x="1271" y="1174.67" as="sourcePoint" />
            <mxPoint x="1281" y="1164.67" as="targetPoint" />
          </mxGeometry>
        </mxCell>
        <mxCell id="uQGv06zmIQrsjEMMD4d0-123" value="32" style="text;html=1;resizable=0;autosize=1;align=center;verticalAlign=middle;points=[];fillColor=none;strokeColor=none;rounded=0;fontSize=12;" parent="1" vertex="1">
          <mxGeometry x="1274" y="1187.17" width="30" height="20" as="geometry" />
        </mxCell>
        <mxCell id="uQGv06zmIQrsjEMMD4d0-124" value="" style="endArrow=none;html=1;rounded=0;fontSize=12;" parent="1" edge="1">
          <mxGeometry width="50" height="50" relative="1" as="geometry">
            <mxPoint x="1285" y="1212.17" as="sourcePoint" />
            <mxPoint x="1295" y="1202.17" as="targetPoint" />
          </mxGeometry>
        </mxCell>
        <mxCell id="uQGv06zmIQrsjEMMD4d0-125" value="32" style="text;html=1;resizable=0;autosize=1;align=center;verticalAlign=middle;points=[];fillColor=none;strokeColor=none;rounded=0;fontSize=12;" parent="1" vertex="1">
          <mxGeometry x="1570" y="1149.67" width="30" height="20" as="geometry" />
        </mxCell>
        <mxCell id="uQGv06zmIQrsjEMMD4d0-126" value="" style="endArrow=none;html=1;rounded=0;fontSize=12;" parent="1" edge="1">
          <mxGeometry width="50" height="50" relative="1" as="geometry">
            <mxPoint x="1581" y="1174.67" as="sourcePoint" />
            <mxPoint x="1591" y="1164.67" as="targetPoint" />
          </mxGeometry>
        </mxCell>
        <mxCell id="uQGv06zmIQrsjEMMD4d0-127" value="32" style="text;html=1;resizable=0;autosize=1;align=center;verticalAlign=middle;points=[];fillColor=none;strokeColor=none;rounded=0;fontSize=12;" parent="1" vertex="1">
          <mxGeometry x="1570" y="989.6700000000001" width="30" height="20" as="geometry" />
        </mxCell>
        <mxCell id="uQGv06zmIQrsjEMMD4d0-128" value="" style="endArrow=none;html=1;rounded=0;fontSize=12;" parent="1" edge="1">
          <mxGeometry width="50" height="50" relative="1" as="geometry">
            <mxPoint x="1581" y="1014.6700000000001" as="sourcePoint" />
            <mxPoint x="1591" y="1004.6700000000001" as="targetPoint" />
          </mxGeometry>
        </mxCell>
        <mxCell id="uQGv06zmIQrsjEMMD4d0-131" value="4&amp;nbsp; &quot;100&quot;" style="text;html=1;resizable=0;autosize=1;align=center;verticalAlign=middle;points=[];fillColor=none;strokeColor=none;rounded=0;fontSize=12;" parent="1" vertex="1">
          <mxGeometry x="450" y="1199.67" width="60" height="20" as="geometry" />
        </mxCell>
        <mxCell id="uQGv06zmIQrsjEMMD4d0-175" style="edgeStyle=orthogonalEdgeStyle;rounded=0;orthogonalLoop=1;jettySize=auto;html=1;exitX=0.5;exitY=0;exitDx=0;exitDy=0;fontSize=18;endArrow=none;endFill=0;" parent="1" source="uQGv06zmIQrsjEMMD4d0-136" edge="1">
          <mxGeometry relative="1" as="geometry">
            <mxPoint x="2708" y="1134" as="targetPoint" />
          </mxGeometry>
        </mxCell>
        <mxCell id="uQGv06zmIQrsjEMMD4d0-136" value="" style="shape=trapezoid;perimeter=trapezoidPerimeter;whiteSpace=wrap;html=1;fixedSize=1;fontSize=12;rotation=90;fillColor=#fad9d5;strokeColor=none;" parent="1" vertex="1">
          <mxGeometry x="2358" y="1103.67" width="230" height="60" as="geometry" />
        </mxCell>
        <mxCell id="uQGv06zmIQrsjEMMD4d0-137" value="10" style="text;html=1;align=center;verticalAlign=middle;resizable=0;points=[];autosize=1;strokeColor=none;fillColor=none;fontSize=12;" parent="1" vertex="1">
          <mxGeometry x="2453" y="1144.67" width="30" height="20" as="geometry" />
        </mxCell>
        <mxCell id="uQGv06zmIQrsjEMMD4d0-138" value="01" style="text;html=1;align=center;verticalAlign=middle;resizable=0;points=[];autosize=1;strokeColor=none;fillColor=none;fontSize=12;" parent="1" vertex="1">
          <mxGeometry x="2453" y="1099.67" width="30" height="20" as="geometry" />
        </mxCell>
        <mxCell id="uQGv06zmIQrsjEMMD4d0-139" value="00" style="text;html=1;align=center;verticalAlign=middle;resizable=0;points=[];autosize=1;strokeColor=none;fillColor=none;fontSize=12;" parent="1" vertex="1">
          <mxGeometry x="2453" y="1059.67" width="30" height="20" as="geometry" />
        </mxCell>
        <mxCell id="uQGv06zmIQrsjEMMD4d0-140" value="11" style="text;html=1;align=center;verticalAlign=middle;resizable=0;points=[];autosize=1;strokeColor=none;fillColor=none;fontSize=12;" parent="1" vertex="1">
          <mxGeometry x="2453" y="1184.67" width="30" height="20" as="geometry" />
        </mxCell>
        <mxCell id="uQGv06zmIQrsjEMMD4d0-247" style="edgeStyle=orthogonalEdgeStyle;rounded=0;orthogonalLoop=1;jettySize=auto;html=1;exitX=0.5;exitY=0;exitDx=0;exitDy=0;fontSize=18;" parent="1" source="uQGv06zmIQrsjEMMD4d0-142" target="uQGv06zmIQrsjEMMD4d0-246" edge="1">
          <mxGeometry relative="1" as="geometry" />
        </mxCell>
        <mxCell id="uQGv06zmIQrsjEMMD4d0-142" value="" style="shape=trapezoid;perimeter=trapezoidPerimeter;whiteSpace=wrap;html=1;fixedSize=1;fontSize=12;rotation=90;fillColor=#fad9d5;strokeColor=none;" parent="1" vertex="1">
          <mxGeometry x="2528" y="779.6700000000001" width="230" height="60" as="geometry" />
        </mxCell>
        <mxCell id="uQGv06zmIQrsjEMMD4d0-143" value="10" style="text;html=1;align=center;verticalAlign=middle;resizable=0;points=[];autosize=1;strokeColor=none;fillColor=none;fontSize=12;" parent="1" vertex="1">
          <mxGeometry x="2623" y="820.6700000000001" width="30" height="20" as="geometry" />
        </mxCell>
        <mxCell id="uQGv06zmIQrsjEMMD4d0-144" value="01" style="text;html=1;align=center;verticalAlign=middle;resizable=0;points=[];autosize=1;strokeColor=none;fillColor=none;fontSize=12;" parent="1" vertex="1">
          <mxGeometry x="2623" y="780.6700000000001" width="30" height="20" as="geometry" />
        </mxCell>
        <mxCell id="uQGv06zmIQrsjEMMD4d0-145" value="&lt;div&gt;00&lt;/div&gt;" style="text;html=1;align=center;verticalAlign=middle;resizable=0;points=[];autosize=1;strokeColor=none;fillColor=none;fontSize=12;" parent="1" vertex="1">
          <mxGeometry x="2618" y="734.6700000000001" width="40" height="30" as="geometry" />
        </mxCell>
        <mxCell id="uQGv06zmIQrsjEMMD4d0-146" value="11" style="text;html=1;align=center;verticalAlign=middle;resizable=0;points=[];autosize=1;strokeColor=none;fillColor=none;fontSize=12;" parent="1" vertex="1">
          <mxGeometry x="2623" y="860.6700000000001" width="30" height="20" as="geometry" />
        </mxCell>
        <mxCell id="uQGv06zmIQrsjEMMD4d0-148" value="" style="endArrow=classic;html=1;rounded=0;fontSize=12;startArrow=oval;startFill=1;" parent="1" edge="1">
          <mxGeometry width="50" height="50" relative="1" as="geometry">
            <mxPoint x="2378" y="1159.67" as="sourcePoint" />
            <mxPoint x="2608" y="829.6700000000001" as="targetPoint" />
            <Array as="points">
              <mxPoint x="2378" y="829.6700000000001" />
              <mxPoint x="2478" y="829.6700000000001" />
            </Array>
          </mxGeometry>
        </mxCell>
        <mxCell id="uQGv06zmIQrsjEMMD4d0-152" style="edgeStyle=orthogonalEdgeStyle;rounded=0;orthogonalLoop=1;jettySize=auto;html=1;fontSize=12;" parent="1" edge="1">
          <mxGeometry relative="1" as="geometry">
            <mxPoint x="2610" y="790" as="targetPoint" />
            <Array as="points">
              <mxPoint x="2250" y="340" />
              <mxPoint x="2250" y="790" />
            </Array>
            <mxPoint x="2260" y="340" as="sourcePoint" />
          </mxGeometry>
        </mxCell>
        <mxCell id="uQGv06zmIQrsjEMMD4d0-153" style="edgeStyle=orthogonalEdgeStyle;rounded=0;orthogonalLoop=1;jettySize=auto;html=1;exitX=0.55;exitY=0.95;exitDx=0;exitDy=0;exitPerimeter=0;fontSize=12;" parent="1" source="uQGv06zmIQrsjEMMD4d0-151" edge="1">
          <mxGeometry relative="1" as="geometry">
            <mxPoint x="2608" y="750" as="targetPoint" />
            <Array as="points">
              <mxPoint x="2304" y="750" />
            </Array>
          </mxGeometry>
        </mxCell>
        <mxCell id="uQGv06zmIQrsjEMMD4d0-151" value="MEM" style="ellipse;shape=cloud;whiteSpace=wrap;html=1;fontSize=25;fillColor=#647687;fontColor=#ffffff;strokeColor=none;" parent="1" vertex="1">
          <mxGeometry x="2258" y="625.0000000000001" width="120" height="80" as="geometry" />
        </mxCell>
        <mxCell id="uQGv06zmIQrsjEMMD4d0-155" value="" style="endArrow=classic;html=1;rounded=0;fontSize=12;startArrow=oval;startFill=1;" parent="1" edge="1">
          <mxGeometry width="50" height="50" relative="1" as="geometry">
            <mxPoint x="2318" y="750" as="sourcePoint" />
            <mxPoint x="2438" y="1069.67" as="targetPoint" />
            <Array as="points">
              <mxPoint x="2318" y="859.6700000000001" />
              <mxPoint x="2318" y="1069.67" />
            </Array>
          </mxGeometry>
        </mxCell>
        <mxCell id="uQGv06zmIQrsjEMMD4d0-156" value="" style="endArrow=classic;html=1;rounded=0;fontSize=12;startArrow=oval;startFill=1;" parent="1" edge="1">
          <mxGeometry width="50" height="50" relative="1" as="geometry">
            <mxPoint x="2358" y="790" as="sourcePoint" />
            <mxPoint x="2438" y="1109.67" as="targetPoint" />
            <Array as="points">
              <mxPoint x="2358" y="1109.67" />
            </Array>
          </mxGeometry>
        </mxCell>
        <mxCell id="uQGv06zmIQrsjEMMD4d0-173" style="edgeStyle=orthogonalEdgeStyle;rounded=0;orthogonalLoop=1;jettySize=auto;html=1;exitX=0.5;exitY=0;exitDx=0;exitDy=0;entryX=0.75;entryY=1;entryDx=0;entryDy=0;fontSize=12;" parent="1" source="uQGv06zmIQrsjEMMD4d0-157" target="uQGv06zmIQrsjEMMD4d0-170" edge="1">
          <mxGeometry relative="1" as="geometry" />
        </mxCell>
        <mxCell id="uQGv06zmIQrsjEMMD4d0-157" value="" style="shape=trapezoid;perimeter=trapezoidPerimeter;whiteSpace=wrap;html=1;fixedSize=1;fontSize=12;rotation=90;fillColor=#fad9d5;strokeColor=none;" parent="1" vertex="1">
          <mxGeometry x="2358" y="1408.67" width="230" height="60" as="geometry" />
        </mxCell>
        <mxCell id="uQGv06zmIQrsjEMMD4d0-158" value="10" style="text;html=1;align=center;verticalAlign=middle;resizable=0;points=[];autosize=1;strokeColor=none;fillColor=none;fontSize=12;" parent="1" vertex="1">
          <mxGeometry x="2453" y="1449.67" width="30" height="20" as="geometry" />
        </mxCell>
        <mxCell id="uQGv06zmIQrsjEMMD4d0-159" value="01" style="text;html=1;align=center;verticalAlign=middle;resizable=0;points=[];autosize=1;strokeColor=none;fillColor=none;fontSize=12;" parent="1" vertex="1">
          <mxGeometry x="2453" y="1404.67" width="30" height="20" as="geometry" />
        </mxCell>
        <mxCell id="uQGv06zmIQrsjEMMD4d0-160" value="00" style="text;html=1;align=center;verticalAlign=middle;resizable=0;points=[];autosize=1;strokeColor=none;fillColor=none;fontSize=12;" parent="1" vertex="1">
          <mxGeometry x="2453" y="1364.67" width="30" height="20" as="geometry" />
        </mxCell>
        <mxCell id="uQGv06zmIQrsjEMMD4d0-161" value="11" style="text;html=1;align=center;verticalAlign=middle;resizable=0;points=[];autosize=1;strokeColor=none;fillColor=none;fontSize=12;" parent="1" vertex="1">
          <mxGeometry x="2453" y="1489.67" width="30" height="20" as="geometry" />
        </mxCell>
        <mxCell id="uQGv06zmIQrsjEMMD4d0-163" value="" style="endArrow=classic;html=1;rounded=0;fontSize=12;startArrow=oval;startFill=1;" parent="1" edge="1">
          <mxGeometry width="50" height="50" relative="1" as="geometry">
            <mxPoint x="2318" y="1069.67" as="sourcePoint" />
            <mxPoint x="2438" y="1369.67" as="targetPoint" />
            <Array as="points">
              <mxPoint x="2318" y="1369.67" />
            </Array>
          </mxGeometry>
        </mxCell>
        <mxCell id="uQGv06zmIQrsjEMMD4d0-164" value="" style="endArrow=classic;html=1;rounded=0;fontSize=12;startArrow=none;startFill=0;startSize=10;" parent="1" edge="1">
          <mxGeometry width="50" height="50" relative="1" as="geometry">
            <mxPoint x="2358" y="1109.67" as="sourcePoint" />
            <mxPoint x="2438" y="1419.67" as="targetPoint" />
            <Array as="points">
              <mxPoint x="2358" y="1419.67" />
            </Array>
          </mxGeometry>
        </mxCell>
        <mxCell id="uQGv06zmIQrsjEMMD4d0-166" value="CU" style="ellipse;shape=cloud;whiteSpace=wrap;html=1;fontSize=25;fillColor=#fa6800;fontColor=#000000;strokeColor=none;gradientColor=none;opacity=70;" parent="1" vertex="1">
          <mxGeometry x="2718" y="420" width="260" height="139.67" as="geometry" />
        </mxCell>
        <mxCell id="uQGv06zmIQrsjEMMD4d0-188" style="edgeStyle=orthogonalEdgeStyle;rounded=0;orthogonalLoop=1;jettySize=auto;html=1;exitX=0.5;exitY=0;exitDx=0;exitDy=0;fontSize=18;" parent="1" source="uQGv06zmIQrsjEMMD4d0-170" target="uQGv06zmIQrsjEMMD4d0-187" edge="1">
          <mxGeometry relative="1" as="geometry" />
        </mxCell>
        <mxCell id="uQGv06zmIQrsjEMMD4d0-170" value="&lt;font style=&quot;font-size: 18px;&quot;&gt;ALU&lt;/font&gt;" style="shape=trapezoid;perimeter=trapezoidPerimeter;whiteSpace=wrap;html=1;fixedSize=1;fontSize=12;rotation=90;fillColor=#dae8fc;strokeColor=none;" parent="1" vertex="1">
          <mxGeometry x="2828" y="1239.67" width="180" height="87.5" as="geometry" />
        </mxCell>
        <mxCell id="uQGv06zmIQrsjEMMD4d0-171" value="" style="triangle;whiteSpace=wrap;html=1;fontSize=12;fillColor=#dae8fc;strokeColor=#6c8ebf;" parent="1" vertex="1">
          <mxGeometry x="2874.25" y="1243.42" width="33.75" height="80" as="geometry" />
        </mxCell>
        <mxCell id="uQGv06zmIQrsjEMMD4d0-176" style="edgeStyle=orthogonalEdgeStyle;rounded=0;orthogonalLoop=1;jettySize=auto;html=1;exitX=1;exitY=0.5;exitDx=0;exitDy=0;entryX=0.25;entryY=1;entryDx=0;entryDy=0;fontSize=18;" parent="1" target="uQGv06zmIQrsjEMMD4d0-170" edge="1">
          <mxGeometry relative="1" as="geometry">
            <mxPoint x="2708" y="1133.67" as="sourcePoint" />
          </mxGeometry>
        </mxCell>
        <mxCell id="7qjSa7UYPRbw4jlqZfWL-167" style="edgeStyle=orthogonalEdgeStyle;rounded=0;orthogonalLoop=1;jettySize=auto;html=1;entryX=0;entryY=0.5;entryDx=0;entryDy=0;" parent="1" source="uQGv06zmIQrsjEMMD4d0-179" target="7qjSa7UYPRbw4jlqZfWL-166" edge="1">
          <mxGeometry relative="1" as="geometry" />
        </mxCell>
        <mxCell id="uQGv06zmIQrsjEMMD4d0-179" value="&lt;b&gt;IR&lt;/b&gt;" style="whiteSpace=wrap;html=1;aspect=fixed;fillColor=#e1d5e7;strokeColor=none;" parent="1" vertex="1">
          <mxGeometry x="3380" y="1740" width="80" height="80" as="geometry" />
        </mxCell>
        <mxCell id="uQGv06zmIQrsjEMMD4d0-187" value="&lt;b&gt;ALU OUT&lt;/b&gt;" style="whiteSpace=wrap;html=1;aspect=fixed;fillColor=#e1d5e7;strokeColor=none;" parent="1" vertex="1">
          <mxGeometry x="3380" y="1243.42" width="80" height="80" as="geometry" />
        </mxCell>
        <mxCell id="uQGv06zmIQrsjEMMD4d0-202" value="" style="endArrow=none;html=1;rounded=0;fontSize=12;" parent="1" edge="1">
          <mxGeometry width="50" height="50" relative="1" as="geometry">
            <mxPoint x="2357.9999999999995" y="789.6700000000001" as="sourcePoint" />
            <mxPoint x="2357.9999999999973" y="785.51" as="targetPoint" />
            <Array as="points" />
          </mxGeometry>
        </mxCell>
        <mxCell id="uQGv06zmIQrsjEMMD4d0-218" value="32" style="text;html=1;resizable=0;autosize=1;align=center;verticalAlign=middle;points=[];fillColor=none;strokeColor=none;rounded=0;fontSize=12;" parent="1" vertex="1">
          <mxGeometry x="2383" y="1349.67" width="30" height="20" as="geometry" />
        </mxCell>
        <mxCell id="uQGv06zmIQrsjEMMD4d0-219" value="" style="endArrow=none;html=1;rounded=0;fontSize=12;" parent="1" edge="1">
          <mxGeometry width="50" height="50" relative="1" as="geometry">
            <mxPoint x="2394" y="1374.67" as="sourcePoint" />
            <mxPoint x="2404" y="1364.67" as="targetPoint" />
          </mxGeometry>
        </mxCell>
        <mxCell id="uQGv06zmIQrsjEMMD4d0-220" value="32" style="text;html=1;resizable=0;autosize=1;align=center;verticalAlign=middle;points=[];fillColor=none;strokeColor=none;rounded=0;fontSize=12;" parent="1" vertex="1">
          <mxGeometry x="2384" y="1402.17" width="30" height="20" as="geometry" />
        </mxCell>
        <mxCell id="uQGv06zmIQrsjEMMD4d0-221" value="" style="endArrow=none;html=1;rounded=0;fontSize=12;" parent="1" edge="1">
          <mxGeometry width="50" height="50" relative="1" as="geometry">
            <mxPoint x="2395" y="1427.17" as="sourcePoint" />
            <mxPoint x="2405" y="1417.17" as="targetPoint" />
          </mxGeometry>
        </mxCell>
        <mxCell id="uQGv06zmIQrsjEMMD4d0-222" value="32" style="text;html=1;resizable=0;autosize=1;align=center;verticalAlign=middle;points=[];fillColor=none;strokeColor=none;rounded=0;fontSize=12;" parent="1" vertex="1">
          <mxGeometry x="2384" y="1438.67" width="30" height="20" as="geometry" />
        </mxCell>
        <mxCell id="uQGv06zmIQrsjEMMD4d0-223" value="" style="endArrow=none;html=1;rounded=0;fontSize=12;" parent="1" edge="1">
          <mxGeometry width="50" height="50" relative="1" as="geometry">
            <mxPoint x="2395" y="1463.67" as="sourcePoint" />
            <mxPoint x="2405" y="1453.67" as="targetPoint" />
          </mxGeometry>
        </mxCell>
        <mxCell id="uQGv06zmIQrsjEMMD4d0-224" value="32" style="text;html=1;resizable=0;autosize=1;align=center;verticalAlign=middle;points=[];fillColor=none;strokeColor=none;rounded=0;fontSize=12;" parent="1" vertex="1">
          <mxGeometry x="2385" y="1479.67" width="30" height="20" as="geometry" />
        </mxCell>
        <mxCell id="uQGv06zmIQrsjEMMD4d0-225" value="" style="endArrow=none;html=1;rounded=0;fontSize=12;" parent="1" edge="1">
          <mxGeometry width="50" height="50" relative="1" as="geometry">
            <mxPoint x="2396" y="1504.67" as="sourcePoint" />
            <mxPoint x="2406" y="1494.67" as="targetPoint" />
          </mxGeometry>
        </mxCell>
        <mxCell id="uQGv06zmIQrsjEMMD4d0-226" value="32" style="text;html=1;resizable=0;autosize=1;align=center;verticalAlign=middle;points=[];fillColor=none;strokeColor=none;rounded=0;fontSize=12;" parent="1" vertex="1">
          <mxGeometry x="2403" y="1179.67" width="30" height="20" as="geometry" />
        </mxCell>
        <mxCell id="uQGv06zmIQrsjEMMD4d0-227" value="" style="endArrow=none;html=1;rounded=0;fontSize=12;" parent="1" edge="1">
          <mxGeometry width="50" height="50" relative="1" as="geometry">
            <mxPoint x="2415" y="1204.67" as="sourcePoint" />
            <mxPoint x="2425" y="1194.67" as="targetPoint" />
          </mxGeometry>
        </mxCell>
        <mxCell id="uQGv06zmIQrsjEMMD4d0-228" value="32" style="text;html=1;resizable=0;autosize=1;align=center;verticalAlign=middle;points=[];fillColor=none;strokeColor=none;rounded=0;fontSize=12;" parent="1" vertex="1">
          <mxGeometry x="2403" y="1050" width="30" height="20" as="geometry" />
        </mxCell>
        <mxCell id="uQGv06zmIQrsjEMMD4d0-229" value="" style="endArrow=none;html=1;rounded=0;fontSize=12;" parent="1" edge="1">
          <mxGeometry width="50" height="50" relative="1" as="geometry">
            <mxPoint x="2414" y="1075" as="sourcePoint" />
            <mxPoint x="2424" y="1065" as="targetPoint" />
          </mxGeometry>
        </mxCell>
        <mxCell id="uQGv06zmIQrsjEMMD4d0-230" value="32" style="text;html=1;resizable=0;autosize=1;align=center;verticalAlign=middle;points=[];fillColor=none;strokeColor=none;rounded=0;fontSize=12;" parent="1" vertex="1">
          <mxGeometry x="2404" y="1090" width="30" height="20" as="geometry" />
        </mxCell>
        <mxCell id="uQGv06zmIQrsjEMMD4d0-231" value="" style="endArrow=none;html=1;rounded=0;fontSize=12;" parent="1" edge="1">
          <mxGeometry width="50" height="50" relative="1" as="geometry">
            <mxPoint x="2415" y="1115" as="sourcePoint" />
            <mxPoint x="2425" y="1105" as="targetPoint" />
          </mxGeometry>
        </mxCell>
        <mxCell id="uQGv06zmIQrsjEMMD4d0-232" value="32" style="text;html=1;resizable=0;autosize=1;align=center;verticalAlign=middle;points=[];fillColor=none;strokeColor=none;rounded=0;fontSize=12;" parent="1" vertex="1">
          <mxGeometry x="2404" y="1140" width="30" height="20" as="geometry" />
        </mxCell>
        <mxCell id="uQGv06zmIQrsjEMMD4d0-233" value="" style="endArrow=none;html=1;rounded=0;fontSize=12;" parent="1" edge="1">
          <mxGeometry width="50" height="50" relative="1" as="geometry">
            <mxPoint x="2415" y="1165" as="sourcePoint" />
            <mxPoint x="2425" y="1155" as="targetPoint" />
          </mxGeometry>
        </mxCell>
        <mxCell id="uQGv06zmIQrsjEMMD4d0-234" value="32" style="text;html=1;resizable=0;autosize=1;align=center;verticalAlign=middle;points=[];fillColor=none;strokeColor=none;rounded=0;fontSize=12;" parent="1" vertex="1">
          <mxGeometry x="2828" y="1215" width="30" height="20" as="geometry" />
        </mxCell>
        <mxCell id="uQGv06zmIQrsjEMMD4d0-235" value="" style="endArrow=none;html=1;rounded=0;fontSize=12;" parent="1" edge="1">
          <mxGeometry width="50" height="50" relative="1" as="geometry">
            <mxPoint x="2839" y="1244.67" as="sourcePoint" />
            <mxPoint x="2849" y="1234.67" as="targetPoint" />
          </mxGeometry>
        </mxCell>
        <mxCell id="uQGv06zmIQrsjEMMD4d0-238" value="32" style="text;html=1;resizable=0;autosize=1;align=center;verticalAlign=middle;points=[];fillColor=none;strokeColor=none;rounded=0;fontSize=12;" parent="1" vertex="1">
          <mxGeometry x="2528" y="847.17" width="30" height="20" as="geometry" />
        </mxCell>
        <mxCell id="uQGv06zmIQrsjEMMD4d0-239" value="" style="endArrow=none;html=1;rounded=0;fontSize=12;" parent="1" edge="1">
          <mxGeometry width="50" height="50" relative="1" as="geometry">
            <mxPoint x="2538" y="875.6699999999998" as="sourcePoint" />
            <mxPoint x="2548" y="865.6699999999998" as="targetPoint" />
          </mxGeometry>
        </mxCell>
        <mxCell id="uQGv06zmIQrsjEMMD4d0-240" value="32" style="text;html=1;resizable=0;autosize=1;align=center;verticalAlign=middle;points=[];fillColor=none;strokeColor=none;rounded=0;fontSize=12;" parent="1" vertex="1">
          <mxGeometry x="2528" y="810" width="30" height="20" as="geometry" />
        </mxCell>
        <mxCell id="uQGv06zmIQrsjEMMD4d0-241" value="" style="endArrow=none;html=1;rounded=0;fontSize=12;" parent="1" edge="1">
          <mxGeometry width="50" height="50" relative="1" as="geometry">
            <mxPoint x="2539" y="834.9999999999999" as="sourcePoint" />
            <mxPoint x="2549" y="824.9999999999999" as="targetPoint" />
          </mxGeometry>
        </mxCell>
        <mxCell id="uQGv06zmIQrsjEMMD4d0-242" value="32" style="text;html=1;resizable=0;autosize=1;align=center;verticalAlign=middle;points=[];fillColor=none;strokeColor=none;rounded=0;fontSize=12;" parent="1" vertex="1">
          <mxGeometry x="2528" y="770.8399999999999" width="30" height="20" as="geometry" />
        </mxCell>
        <mxCell id="uQGv06zmIQrsjEMMD4d0-243" value="" style="endArrow=none;html=1;rounded=0;fontSize=12;" parent="1" edge="1">
          <mxGeometry width="50" height="50" relative="1" as="geometry">
            <mxPoint x="2539" y="795.8399999999998" as="sourcePoint" />
            <mxPoint x="2549" y="785.8399999999998" as="targetPoint" />
          </mxGeometry>
        </mxCell>
        <mxCell id="uQGv06zmIQrsjEMMD4d0-244" value="32" style="text;html=1;resizable=0;autosize=1;align=center;verticalAlign=middle;points=[];fillColor=none;strokeColor=none;rounded=0;fontSize=12;" parent="1" vertex="1">
          <mxGeometry x="2528" y="730.67" width="30" height="20" as="geometry" />
        </mxCell>
        <mxCell id="uQGv06zmIQrsjEMMD4d0-245" value="" style="endArrow=none;html=1;rounded=0;fontSize=12;" parent="1" edge="1">
          <mxGeometry width="50" height="50" relative="1" as="geometry">
            <mxPoint x="2539" y="755.6699999999998" as="sourcePoint" />
            <mxPoint x="2549" y="745.6699999999998" as="targetPoint" />
          </mxGeometry>
        </mxCell>
        <mxCell id="uQGv06zmIQrsjEMMD4d0-251" style="edgeStyle=orthogonalEdgeStyle;rounded=0;orthogonalLoop=1;jettySize=auto;html=1;exitX=1;exitY=0.5;exitDx=0;exitDy=0;entryX=0;entryY=0.5;entryDx=0;entryDy=0;fontSize=18;" parent="1" source="uQGv06zmIQrsjEMMD4d0-246" target="uQGv06zmIQrsjEMMD4d0-250" edge="1">
          <mxGeometry relative="1" as="geometry" />
        </mxCell>
        <mxCell id="uQGv06zmIQrsjEMMD4d0-246" value="&lt;b&gt;=&lt;/b&gt;" style="whiteSpace=wrap;html=1;aspect=fixed;fontSize=18;fillColor=#dae8fc;strokeColor=none;" parent="1" vertex="1">
          <mxGeometry x="2958" y="769.67" width="80" height="80" as="geometry" />
        </mxCell>
        <mxCell id="uQGv06zmIQrsjEMMD4d0-248" value="32" style="text;html=1;resizable=0;autosize=1;align=center;verticalAlign=middle;points=[];fillColor=none;strokeColor=none;rounded=0;fontSize=12;" parent="1" vertex="1">
          <mxGeometry x="2888" y="790.8399999999999" width="30" height="20" as="geometry" />
        </mxCell>
        <mxCell id="uQGv06zmIQrsjEMMD4d0-249" value="" style="endArrow=none;html=1;rounded=0;fontSize=12;" parent="1" edge="1">
          <mxGeometry width="50" height="50" relative="1" as="geometry">
            <mxPoint x="2899" y="815.8399999999998" as="sourcePoint" />
            <mxPoint x="2909" y="805.8399999999998" as="targetPoint" />
          </mxGeometry>
        </mxCell>
        <mxCell id="uQGv06zmIQrsjEMMD4d0-250" value="&lt;font size=&quot;1&quot;&gt;&lt;b style=&quot;font-size: 12px;&quot;&gt;COND&lt;/b&gt;&lt;/font&gt;" style="whiteSpace=wrap;html=1;aspect=fixed;fontSize=18;fillColor=#dae8fc;strokeColor=none;" parent="1" vertex="1">
          <mxGeometry x="3110" y="769.67" width="80" height="80" as="geometry" />
        </mxCell>
        <mxCell id="uQGv06zmIQrsjEMMD4d0-252" value="" style="endArrow=classic;html=1;rounded=0;fontSize=18;entryX=0.5;entryY=0;entryDx=0;entryDy=0;" parent="1" target="uQGv06zmIQrsjEMMD4d0-246" edge="1">
          <mxGeometry width="50" height="50" relative="1" as="geometry">
            <mxPoint x="2998" y="710" as="sourcePoint" />
            <mxPoint x="3038" y="770" as="targetPoint" />
          </mxGeometry>
        </mxCell>
        <mxCell id="7qjSa7UYPRbw4jlqZfWL-1" value="" style="endArrow=none;html=1;rounded=0;" parent="1" edge="1">
          <mxGeometry width="50" height="50" relative="1" as="geometry">
            <mxPoint x="2393" y="560" as="sourcePoint" />
            <mxPoint x="2394" y="560" as="targetPoint" />
          </mxGeometry>
        </mxCell>
        <mxCell id="7qjSa7UYPRbw4jlqZfWL-2" value="" style="endArrow=oval;html=1;rounded=0;endFill=1;endSize=10;" parent="1" edge="1">
          <mxGeometry width="50" height="50" relative="1" as="geometry">
            <mxPoint x="2394" y="870.0000000000001" as="sourcePoint" />
            <mxPoint x="2394" y="560" as="targetPoint" />
          </mxGeometry>
        </mxCell>
        <mxCell id="7qjSa7UYPRbw4jlqZfWL-3" value="" style="endArrow=classic;html=1;rounded=0;" parent="1" edge="1">
          <mxGeometry width="50" height="50" relative="1" as="geometry">
            <mxPoint x="2394" y="870.6700000000001" as="sourcePoint" />
            <mxPoint x="2608" y="870.47" as="targetPoint" />
          </mxGeometry>
        </mxCell>
        <mxCell id="7qjSa7UYPRbw4jlqZfWL-6" value="" style="endArrow=none;html=1;rounded=0;" parent="1" edge="1">
          <mxGeometry width="50" height="50" relative="1" as="geometry">
            <mxPoint x="2394" y="880.67" as="sourcePoint" />
            <mxPoint x="2394" y="870.6700000000001" as="targetPoint" />
          </mxGeometry>
        </mxCell>
        <mxCell id="7qjSa7UYPRbw4jlqZfWL-8" value="" style="endArrow=classic;html=1;rounded=0;" parent="1" edge="1">
          <mxGeometry width="50" height="50" relative="1" as="geometry">
            <mxPoint x="2394" y="1199.67" as="sourcePoint" />
            <mxPoint x="2438" y="1199.67" as="targetPoint" />
          </mxGeometry>
        </mxCell>
        <mxCell id="7qjSa7UYPRbw4jlqZfWL-10" value="" style="edgeStyle=orthogonalEdgeStyle;rounded=0;orthogonalLoop=1;jettySize=auto;html=1;endArrow=none;endFill=0;startArrow=oval;startFill=1;" parent="1" edge="1">
          <mxGeometry relative="1" as="geometry">
            <mxPoint x="2394" y="1200" as="targetPoint" />
            <mxPoint x="2394" y="870.6700000000001" as="sourcePoint" />
          </mxGeometry>
        </mxCell>
        <mxCell id="7qjSa7UYPRbw4jlqZfWL-15" value="" style="endArrow=none;html=1;rounded=0;endFill=0;startSize=9;endSize=9;startArrow=none;startFill=0;" parent="1" source="TsRPudFhaTuacCyqWK5w-2" edge="1">
          <mxGeometry width="50" height="50" relative="1" as="geometry">
            <mxPoint x="1010" y="560" as="sourcePoint" />
            <mxPoint x="3300" y="560" as="targetPoint" />
          </mxGeometry>
        </mxCell>
        <mxCell id="7qjSa7UYPRbw4jlqZfWL-16" value="&lt;div&gt;&lt;b&gt;B&lt;/b&gt;&lt;/div&gt;" style="whiteSpace=wrap;html=1;aspect=fixed;fillColor=#e1d5e7;strokeColor=none;" parent="1" vertex="1">
          <mxGeometry x="3380" y="1540.5000000000002" width="80" height="80" as="geometry" />
        </mxCell>
        <mxCell id="7qjSa7UYPRbw4jlqZfWL-25" value="" style="endArrow=none;html=1;rounded=0;startArrow=oval;startFill=1;startSize=10;" parent="1" edge="1">
          <mxGeometry width="50" height="50" relative="1" as="geometry">
            <mxPoint x="2288" y="1460" as="sourcePoint" />
            <mxPoint x="2288" y="1564" as="targetPoint" />
          </mxGeometry>
        </mxCell>
        <mxCell id="7qjSa7UYPRbw4jlqZfWL-30" value="" style="endArrow=classic;html=1;rounded=0;" parent="1" edge="1">
          <mxGeometry width="50" height="50" relative="1" as="geometry">
            <mxPoint x="2288" y="1564.02" as="sourcePoint" />
            <mxPoint x="2688" y="1564.02" as="targetPoint" />
          </mxGeometry>
        </mxCell>
        <mxCell id="7qjSa7UYPRbw4jlqZfWL-32" value="&lt;div&gt;&lt;b&gt;COND_REG&lt;/b&gt;&lt;/div&gt;" style="whiteSpace=wrap;html=1;aspect=fixed;fillColor=#e1d5e7;strokeColor=none;" parent="1" vertex="1">
          <mxGeometry x="3380" y="769.6700000000002" width="80" height="80" as="geometry" />
        </mxCell>
        <mxCell id="7qjSa7UYPRbw4jlqZfWL-33" value="CU" style="ellipse;shape=cloud;whiteSpace=wrap;html=1;fontSize=25;fillColor=#fa6800;fontColor=#000000;strokeColor=none;gradientColor=none;opacity=70;" parent="1" vertex="1">
          <mxGeometry x="3010" y="2000" width="270" height="130" as="geometry" />
        </mxCell>
        <mxCell id="7qjSa7UYPRbw4jlqZfWL-35" value="" style="endArrow=none;html=1;rounded=0;entryX=0.957;entryY=0.584;entryDx=0;entryDy=0;entryPerimeter=0;fillColor=#0050ef;strokeColor=#001DBC;" parent="1" target="uQGv06zmIQrsjEMMD4d0-170" edge="1">
          <mxGeometry width="50" height="50" relative="1" as="geometry">
            <mxPoint x="2911" y="2070" as="sourcePoint" />
            <mxPoint x="3270" y="1500" as="targetPoint" />
          </mxGeometry>
        </mxCell>
        <mxCell id="7qjSa7UYPRbw4jlqZfWL-36" value="" style="endArrow=classic;html=1;rounded=0;fillColor=#0050ef;strokeColor=#001DBC;" parent="1" edge="1">
          <mxGeometry width="50" height="50" relative="1" as="geometry">
            <mxPoint x="2910" y="2070" as="sourcePoint" />
            <mxPoint x="3040" y="2070" as="targetPoint" />
          </mxGeometry>
        </mxCell>
        <mxCell id="7qjSa7UYPRbw4jlqZfWL-37" value="" style="endArrow=none;html=1;rounded=0;exitX=0.914;exitY=0.339;exitDx=0;exitDy=0;exitPerimeter=0;fillColor=#0050ef;strokeColor=#001DBC;" parent="1" source="7qjSa7UYPRbw4jlqZfWL-33" edge="1">
          <mxGeometry width="50" height="50" relative="1" as="geometry">
            <mxPoint x="3290" y="2000" as="sourcePoint" />
            <mxPoint x="3400" y="2044" as="targetPoint" />
          </mxGeometry>
        </mxCell>
        <mxCell id="7qjSa7UYPRbw4jlqZfWL-38" value="" style="endArrow=classic;html=1;rounded=0;entryX=0.25;entryY=1;entryDx=0;entryDy=0;fillColor=#0050ef;strokeColor=#001DBC;" parent="1" target="uQGv06zmIQrsjEMMD4d0-179" edge="1">
          <mxGeometry width="50" height="50" relative="1" as="geometry">
            <mxPoint x="3400" y="2044" as="sourcePoint" />
            <mxPoint x="3340" y="1950" as="targetPoint" />
          </mxGeometry>
        </mxCell>
        <mxCell id="7qjSa7UYPRbw4jlqZfWL-39" value="&lt;div style=&quot;font-size: 12px;&quot;&gt;&lt;font style=&quot;font-size: 18px;&quot;&gt;SET&lt;/font&gt;&lt;/div&gt;" style="edgeLabel;html=1;align=center;verticalAlign=middle;resizable=0;points=[];" parent="7qjSa7UYPRbw4jlqZfWL-38" vertex="1" connectable="0">
          <mxGeometry x="0.6404" y="5" relative="1" as="geometry">
            <mxPoint as="offset" />
          </mxGeometry>
        </mxCell>
        <mxCell id="7qjSa7UYPRbw4jlqZfWL-40" value="" style="endArrow=none;html=1;rounded=0;fillColor=#0050ef;strokeColor=#001DBC;" parent="1" edge="1">
          <mxGeometry width="50" height="50" relative="1" as="geometry">
            <mxPoint x="3266" y="2078" as="sourcePoint" />
            <mxPoint x="3550" y="2078" as="targetPoint" />
          </mxGeometry>
        </mxCell>
        <mxCell id="7qjSa7UYPRbw4jlqZfWL-41" value="" style="endArrow=classic;html=1;rounded=0;entryX=0.847;entryY=1.011;entryDx=0;entryDy=0;entryPerimeter=0;fillColor=#0050ef;strokeColor=#001DBC;startArrow=oval;startFill=1;" parent="1" edge="1">
          <mxGeometry width="50" height="50" relative="1" as="geometry">
            <mxPoint x="3441.24" y="2077.12" as="sourcePoint" />
            <mxPoint x="3439.999999999999" y="1819.9999999999998" as="targetPoint" />
          </mxGeometry>
        </mxCell>
        <mxCell id="7qjSa7UYPRbw4jlqZfWL-42" value="&lt;font style=&quot;font-size: 18px;&quot;&gt;EN &lt;br&gt;&lt;/font&gt;" style="edgeLabel;html=1;align=center;verticalAlign=middle;resizable=0;points=[];" parent="7qjSa7UYPRbw4jlqZfWL-41" vertex="1" connectable="0">
          <mxGeometry x="0.7432" y="-2" relative="1" as="geometry">
            <mxPoint y="7" as="offset" />
          </mxGeometry>
        </mxCell>
        <mxCell id="7qjSa7UYPRbw4jlqZfWL-43" value="" style="endArrow=none;html=1;rounded=0;fillColor=#0050ef;strokeColor=#001DBC;" parent="1" edge="1">
          <mxGeometry width="50" height="50" relative="1" as="geometry">
            <mxPoint x="3550" y="2078" as="sourcePoint" />
            <mxPoint x="3550" y="694" as="targetPoint" />
          </mxGeometry>
        </mxCell>
        <mxCell id="7qjSa7UYPRbw4jlqZfWL-45" value="" style="endArrow=none;html=1;rounded=0;fillColor=#0050ef;strokeColor=#001DBC;" parent="1" edge="1">
          <mxGeometry width="50" height="50" relative="1" as="geometry">
            <mxPoint x="3430" y="1670" as="sourcePoint" />
            <mxPoint x="3550" y="1670" as="targetPoint" />
          </mxGeometry>
        </mxCell>
        <mxCell id="7qjSa7UYPRbw4jlqZfWL-46" value="" style="endArrow=classic;html=1;rounded=0;fillColor=#0050ef;strokeColor=#001DBC;" parent="1" edge="1">
          <mxGeometry width="50" height="50" relative="1" as="geometry">
            <mxPoint x="3430" y="1670" as="sourcePoint" />
            <mxPoint x="3430" y="1620" as="targetPoint" />
          </mxGeometry>
        </mxCell>
        <mxCell id="7qjSa7UYPRbw4jlqZfWL-47" value="&lt;font style=&quot;font-size: 18px;&quot;&gt;EN&lt;/font&gt;" style="edgeLabel;html=1;align=center;verticalAlign=middle;resizable=0;points=[];" parent="7qjSa7UYPRbw4jlqZfWL-46" vertex="1" connectable="0">
          <mxGeometry x="-0.1" y="2" relative="1" as="geometry">
            <mxPoint x="1" as="offset" />
          </mxGeometry>
        </mxCell>
        <mxCell id="7qjSa7UYPRbw4jlqZfWL-48" value="" style="endArrow=none;html=1;rounded=0;fillColor=#0050ef;strokeColor=#001DBC;" parent="1" edge="1">
          <mxGeometry width="50" height="50" relative="1" as="geometry">
            <mxPoint x="3430" y="1373.42" as="sourcePoint" />
            <mxPoint x="3550" y="1373.42" as="targetPoint" />
          </mxGeometry>
        </mxCell>
        <mxCell id="7qjSa7UYPRbw4jlqZfWL-49" value="" style="endArrow=classic;html=1;rounded=0;fillColor=#0050ef;strokeColor=#001DBC;" parent="1" edge="1">
          <mxGeometry width="50" height="50" relative="1" as="geometry">
            <mxPoint x="3430" y="1373.42" as="sourcePoint" />
            <mxPoint x="3430" y="1323.42" as="targetPoint" />
          </mxGeometry>
        </mxCell>
        <mxCell id="7qjSa7UYPRbw4jlqZfWL-50" value="&lt;font style=&quot;font-size: 18px;&quot;&gt;EN&lt;/font&gt;" style="edgeLabel;html=1;align=center;verticalAlign=middle;resizable=0;points=[];" parent="7qjSa7UYPRbw4jlqZfWL-49" vertex="1" connectable="0">
          <mxGeometry x="-0.1" y="2" relative="1" as="geometry">
            <mxPoint x="1" as="offset" />
          </mxGeometry>
        </mxCell>
        <mxCell id="7qjSa7UYPRbw4jlqZfWL-51" value="" style="endArrow=none;html=1;rounded=0;fillColor=#0050ef;strokeColor=#001DBC;" parent="1" edge="1">
          <mxGeometry width="50" height="50" relative="1" as="geometry">
            <mxPoint x="3431" y="899.67" as="sourcePoint" />
            <mxPoint x="3550" y="899.67" as="targetPoint" />
          </mxGeometry>
        </mxCell>
        <mxCell id="7qjSa7UYPRbw4jlqZfWL-52" value="" style="endArrow=classic;html=1;rounded=0;fillColor=#0050ef;strokeColor=#001DBC;" parent="1" edge="1">
          <mxGeometry width="50" height="50" relative="1" as="geometry">
            <mxPoint x="3431" y="899.67" as="sourcePoint" />
            <mxPoint x="3431" y="849.67" as="targetPoint" />
          </mxGeometry>
        </mxCell>
        <mxCell id="7qjSa7UYPRbw4jlqZfWL-53" value="&lt;font style=&quot;font-size: 18px;&quot;&gt;EN&lt;/font&gt;" style="edgeLabel;html=1;align=center;verticalAlign=middle;resizable=0;points=[];" parent="7qjSa7UYPRbw4jlqZfWL-52" vertex="1" connectable="0">
          <mxGeometry x="-0.1" y="2" relative="1" as="geometry">
            <mxPoint x="1" as="offset" />
          </mxGeometry>
        </mxCell>
        <mxCell id="7qjSa7UYPRbw4jlqZfWL-54" value="" style="endArrow=classic;html=1;rounded=0;exitX=1;exitY=0.5;exitDx=0;exitDy=0;entryX=0;entryY=0.5;entryDx=0;entryDy=0;" parent="1" source="uQGv06zmIQrsjEMMD4d0-250" target="7qjSa7UYPRbw4jlqZfWL-32" edge="1">
          <mxGeometry width="50" height="50" relative="1" as="geometry">
            <mxPoint x="3160" y="960" as="sourcePoint" />
            <mxPoint x="3210" y="910" as="targetPoint" />
          </mxGeometry>
        </mxCell>
        <mxCell id="7qjSa7UYPRbw4jlqZfWL-55" value="" style="endArrow=classic;html=1;rounded=0;entryX=0.375;entryY=1.016;entryDx=0;entryDy=0;entryPerimeter=0;" parent="1" edge="1">
          <mxGeometry width="50" height="50" relative="1" as="geometry">
            <mxPoint x="3310" y="1369.67" as="sourcePoint" />
            <mxPoint x="3400" y="1324.3700000000001" as="targetPoint" />
            <Array as="points">
              <mxPoint x="3400" y="1370" />
            </Array>
          </mxGeometry>
        </mxCell>
        <mxCell id="7qjSa7UYPRbw4jlqZfWL-56" value="&lt;font style=&quot;font-size: 18px;&quot;&gt;SET&lt;/font&gt;" style="edgeLabel;html=1;align=center;verticalAlign=middle;resizable=0;points=[];" parent="7qjSa7UYPRbw4jlqZfWL-55" vertex="1" connectable="0">
          <mxGeometry x="-0.2356" y="-1" relative="1" as="geometry">
            <mxPoint as="offset" />
          </mxGeometry>
        </mxCell>
        <mxCell id="7qjSa7UYPRbw4jlqZfWL-57" value="&lt;font style=&quot;font-size: 18px;&quot;&gt;&#39;0&#39;&lt;/font&gt;" style="text;html=1;resizable=0;autosize=1;align=center;verticalAlign=middle;points=[];fillColor=none;strokeColor=none;rounded=0;fontSize=12;" parent="1" vertex="1">
          <mxGeometry x="3275" y="1349.67" width="40" height="40" as="geometry" />
        </mxCell>
        <mxCell id="7qjSa7UYPRbw4jlqZfWL-58" value="" style="endArrow=classic;html=1;rounded=0;entryX=0.375;entryY=1.016;entryDx=0;entryDy=0;entryPerimeter=0;" parent="1" edge="1">
          <mxGeometry width="50" height="50" relative="1" as="geometry">
            <mxPoint x="3315" y="894.97" as="sourcePoint" />
            <mxPoint x="3405" y="849.6700000000001" as="targetPoint" />
            <Array as="points">
              <mxPoint x="3405" y="895.3" />
            </Array>
          </mxGeometry>
        </mxCell>
        <mxCell id="7qjSa7UYPRbw4jlqZfWL-59" value="&lt;font style=&quot;font-size: 18px;&quot;&gt;SET&lt;/font&gt;" style="edgeLabel;html=1;align=center;verticalAlign=middle;resizable=0;points=[];" parent="7qjSa7UYPRbw4jlqZfWL-58" vertex="1" connectable="0">
          <mxGeometry x="-0.2356" y="-1" relative="1" as="geometry">
            <mxPoint as="offset" />
          </mxGeometry>
        </mxCell>
        <mxCell id="7qjSa7UYPRbw4jlqZfWL-60" value="&lt;font style=&quot;font-size: 18px;&quot;&gt;&#39;0&#39;&lt;/font&gt;" style="text;html=1;resizable=0;autosize=1;align=center;verticalAlign=middle;points=[];fillColor=none;strokeColor=none;rounded=0;fontSize=12;" parent="1" vertex="1">
          <mxGeometry x="3280" y="874.97" width="40" height="40" as="geometry" />
        </mxCell>
        <mxCell id="7qjSa7UYPRbw4jlqZfWL-61" value="" style="endArrow=classic;html=1;rounded=0;entryX=0.375;entryY=1.016;entryDx=0;entryDy=0;entryPerimeter=0;" parent="1" edge="1">
          <mxGeometry width="50" height="50" relative="1" as="geometry">
            <mxPoint x="3315" y="1665.8000000000002" as="sourcePoint" />
            <mxPoint x="3405" y="1620.5" as="targetPoint" />
            <Array as="points">
              <mxPoint x="3405" y="1666.13" />
            </Array>
          </mxGeometry>
        </mxCell>
        <mxCell id="7qjSa7UYPRbw4jlqZfWL-62" value="&lt;font style=&quot;font-size: 18px;&quot;&gt;SET&lt;/font&gt;" style="edgeLabel;html=1;align=center;verticalAlign=middle;resizable=0;points=[];" parent="7qjSa7UYPRbw4jlqZfWL-61" vertex="1" connectable="0">
          <mxGeometry x="-0.2356" y="-1" relative="1" as="geometry">
            <mxPoint as="offset" />
          </mxGeometry>
        </mxCell>
        <mxCell id="7qjSa7UYPRbw4jlqZfWL-63" value="&lt;font style=&quot;font-size: 18px;&quot;&gt;&#39;0&#39;&lt;/font&gt;" style="text;html=1;resizable=0;autosize=1;align=center;verticalAlign=middle;points=[];fillColor=none;strokeColor=none;rounded=0;fontSize=12;" parent="1" vertex="1">
          <mxGeometry x="3280" y="1645.8000000000002" width="40" height="40" as="geometry" />
        </mxCell>
        <mxCell id="7qjSa7UYPRbw4jlqZfWL-65" value="ALU_Ready" style="text;html=1;strokeColor=none;fillColor=none;align=center;verticalAlign=middle;whiteSpace=wrap;rounded=0;" parent="1" vertex="1">
          <mxGeometry x="2950" y="2040" width="60" height="40" as="geometry" />
        </mxCell>
        <mxCell id="7qjSa7UYPRbw4jlqZfWL-67" value="" style="endArrow=none;html=1;rounded=0;entryX=0.113;entryY=0.534;entryDx=0;entryDy=0;entryPerimeter=0;fillColor=#0050ef;strokeColor=#001DBC;" parent="1" edge="1">
          <mxGeometry width="50" height="50" relative="1" as="geometry">
            <mxPoint x="2642" y="480.41999999999996" as="sourcePoint" />
            <mxPoint x="2735" y="480.00378" as="targetPoint" />
          </mxGeometry>
        </mxCell>
        <mxCell id="7qjSa7UYPRbw4jlqZfWL-68" value="" style="endArrow=classic;html=1;rounded=0;entryX=0;entryY=0.5;entryDx=0;entryDy=0;fillColor=#0050ef;strokeColor=#001DBC;" parent="1" target="uQGv06zmIQrsjEMMD4d0-142" edge="1">
          <mxGeometry width="50" height="50" relative="1" as="geometry">
            <mxPoint x="2642.66" y="480" as="sourcePoint" />
            <mxPoint x="2643.3418181818174" y="699.8972727272727" as="targetPoint" />
          </mxGeometry>
        </mxCell>
        <mxCell id="7qjSa7UYPRbw4jlqZfWL-69" value="" style="endArrow=none;html=1;rounded=0;entryX=0.142;entryY=0.78;entryDx=0;entryDy=0;entryPerimeter=0;fillColor=#0050ef;strokeColor=#001DBC;" parent="1" edge="1">
          <mxGeometry width="50" height="50" relative="1" as="geometry">
            <mxPoint x="2798.08" y="970.2" as="sourcePoint" />
            <mxPoint x="2798" y="531" as="targetPoint" />
          </mxGeometry>
        </mxCell>
        <mxCell id="7qjSa7UYPRbw4jlqZfWL-70" value="" style="endArrow=none;html=1;rounded=0;fillColor=#0050ef;strokeColor=#001DBC;" parent="1" edge="1">
          <mxGeometry width="50" height="50" relative="1" as="geometry">
            <mxPoint x="2478" y="970" as="sourcePoint" />
            <mxPoint x="2798" y="970" as="targetPoint" />
          </mxGeometry>
        </mxCell>
        <mxCell id="7qjSa7UYPRbw4jlqZfWL-71" value="" style="endArrow=classic;html=1;rounded=0;entryX=0.052;entryY=0.41;entryDx=0;entryDy=0;entryPerimeter=0;fillColor=#0050ef;strokeColor=#001DBC;" parent="1" target="uQGv06zmIQrsjEMMD4d0-136" edge="1">
          <mxGeometry width="50" height="50" relative="1" as="geometry">
            <mxPoint x="2478" y="970" as="sourcePoint" />
            <mxPoint x="2538" y="940" as="targetPoint" />
          </mxGeometry>
        </mxCell>
        <mxCell id="7qjSa7UYPRbw4jlqZfWL-72" value="" style="endArrow=none;html=1;rounded=0;entryX=0.142;entryY=0.78;entryDx=0;entryDy=0;entryPerimeter=0;fillColor=#0050ef;strokeColor=#001DBC;" parent="1" edge="1">
          <mxGeometry width="50" height="50" relative="1" as="geometry">
            <mxPoint x="2858" y="991" as="sourcePoint" />
            <mxPoint x="2858" y="553" as="targetPoint" />
          </mxGeometry>
        </mxCell>
        <mxCell id="7qjSa7UYPRbw4jlqZfWL-75" value="" style="endArrow=none;html=1;rounded=0;endFill=0;fillColor=#0050ef;strokeColor=#001DBC;" parent="1" edge="1">
          <mxGeometry width="50" height="50" relative="1" as="geometry">
            <mxPoint x="2858" y="990" as="sourcePoint" />
            <mxPoint x="2588" y="990" as="targetPoint" />
          </mxGeometry>
        </mxCell>
        <mxCell id="7qjSa7UYPRbw4jlqZfWL-76" value="" style="endArrow=none;html=1;rounded=0;fillColor=#0050ef;strokeColor=#001DBC;" parent="1" edge="1">
          <mxGeometry width="50" height="50" relative="1" as="geometry">
            <mxPoint x="2588" y="1280" as="sourcePoint" />
            <mxPoint x="2588" y="990" as="targetPoint" />
          </mxGeometry>
        </mxCell>
        <mxCell id="7qjSa7UYPRbw4jlqZfWL-77" value="" style="endArrow=none;html=1;rounded=0;fillColor=#0050ef;strokeColor=#001DBC;" parent="1" edge="1">
          <mxGeometry width="50" height="50" relative="1" as="geometry">
            <mxPoint x="2478" y="1280" as="sourcePoint" />
            <mxPoint x="2588" y="1280" as="targetPoint" />
          </mxGeometry>
        </mxCell>
        <mxCell id="7qjSa7UYPRbw4jlqZfWL-78" value="" style="endArrow=classic;html=1;rounded=0;entryX=0.042;entryY=0.417;entryDx=0;entryDy=0;entryPerimeter=0;fillColor=#0050ef;strokeColor=#001DBC;" parent="1" target="uQGv06zmIQrsjEMMD4d0-157" edge="1">
          <mxGeometry width="50" height="50" relative="1" as="geometry">
            <mxPoint x="2478" y="1280" as="sourcePoint" />
            <mxPoint x="2668" y="1260" as="targetPoint" />
          </mxGeometry>
        </mxCell>
        <mxCell id="7qjSa7UYPRbw4jlqZfWL-80" value="&lt;div&gt;sel_mux_zero&lt;/div&gt;" style="text;html=1;strokeColor=none;fillColor=none;align=center;verticalAlign=middle;whiteSpace=wrap;rounded=0;rotation=-90;" parent="1" vertex="1">
          <mxGeometry x="2598" y="620" width="60" height="30" as="geometry" />
        </mxCell>
        <mxCell id="7qjSa7UYPRbw4jlqZfWL-81" value="&lt;div&gt;sel_mux_a&lt;/div&gt;" style="text;html=1;strokeColor=none;fillColor=none;align=center;verticalAlign=middle;whiteSpace=wrap;rounded=0;rotation=-90;" parent="1" vertex="1">
          <mxGeometry x="2754.25" y="599.6700000000001" width="60" height="30" as="geometry" />
        </mxCell>
        <mxCell id="7qjSa7UYPRbw4jlqZfWL-82" value="sel_mux_b" style="text;html=1;strokeColor=none;fillColor=none;align=center;verticalAlign=middle;whiteSpace=wrap;rounded=0;rotation=-90;" parent="1" vertex="1">
          <mxGeometry x="2814.25" y="620" width="60" height="30" as="geometry" />
        </mxCell>
        <mxCell id="7qjSa7UYPRbw4jlqZfWL-83" value="" style="endArrow=classic;html=1;rounded=0;entryX=0.5;entryY=1;entryDx=0;entryDy=0;startArrow=oval;startFill=1;startSize=9;" parent="1" target="uQGv06zmIQrsjEMMD4d0-250" edge="1">
          <mxGeometry width="50" height="50" relative="1" as="geometry">
            <mxPoint x="3150" y="1780" as="sourcePoint" />
            <mxPoint x="3080" y="1040" as="targetPoint" />
          </mxGeometry>
        </mxCell>
        <mxCell id="7qjSa7UYPRbw4jlqZfWL-86" value="32" style="text;html=1;resizable=0;autosize=1;align=center;verticalAlign=middle;points=[];fillColor=none;strokeColor=none;rounded=0;fontSize=12;" parent="1" vertex="1">
          <mxGeometry x="1380" y="1649.67" width="30" height="20" as="geometry" />
        </mxCell>
        <mxCell id="7qjSa7UYPRbw4jlqZfWL-87" value="" style="endArrow=none;html=1;rounded=0;fontSize=12;" parent="1" edge="1">
          <mxGeometry width="50" height="50" relative="1" as="geometry">
            <mxPoint x="1391" y="1674.67" as="sourcePoint" />
            <mxPoint x="1401" y="1664.67" as="targetPoint" />
          </mxGeometry>
        </mxCell>
        <mxCell id="7qjSa7UYPRbw4jlqZfWL-89" value="32" style="text;html=1;resizable=0;autosize=1;align=center;verticalAlign=middle;points=[];fillColor=none;strokeColor=none;rounded=0;fontSize=12;" parent="1" vertex="1">
          <mxGeometry x="2300" y="1760" width="30" height="20" as="geometry" />
        </mxCell>
        <mxCell id="7qjSa7UYPRbw4jlqZfWL-90" value="" style="endArrow=none;html=1;rounded=0;fontSize=12;" parent="1" edge="1">
          <mxGeometry width="50" height="50" relative="1" as="geometry">
            <mxPoint x="2311" y="1785" as="sourcePoint" />
            <mxPoint x="2321" y="1775" as="targetPoint" />
          </mxGeometry>
        </mxCell>
        <mxCell id="7qjSa7UYPRbw4jlqZfWL-91" value="32" style="text;html=1;resizable=0;autosize=1;align=center;verticalAlign=middle;points=[];fillColor=none;strokeColor=none;rounded=0;fontSize=12;" parent="1" vertex="1">
          <mxGeometry x="3150" y="1625.8000000000002" width="30" height="20" as="geometry" />
        </mxCell>
        <mxCell id="7qjSa7UYPRbw4jlqZfWL-92" value="" style="endArrow=none;html=1;rounded=0;fontSize=12;" parent="1" edge="1">
          <mxGeometry width="50" height="50" relative="1" as="geometry">
            <mxPoint x="3146" y="1642.17" as="sourcePoint" />
            <mxPoint x="3156" y="1632.17" as="targetPoint" />
          </mxGeometry>
        </mxCell>
        <mxCell id="7qjSa7UYPRbw4jlqZfWL-94" value="32" style="text;html=1;resizable=0;autosize=1;align=center;verticalAlign=middle;points=[];fillColor=none;strokeColor=none;rounded=0;fontSize=12;" parent="1" vertex="1">
          <mxGeometry x="3230" y="1760" width="30" height="20" as="geometry" />
        </mxCell>
        <mxCell id="7qjSa7UYPRbw4jlqZfWL-95" value="" style="endArrow=none;html=1;rounded=0;fontSize=12;" parent="1" edge="1">
          <mxGeometry width="50" height="50" relative="1" as="geometry">
            <mxPoint x="3241" y="1785" as="sourcePoint" />
            <mxPoint x="3251" y="1775" as="targetPoint" />
          </mxGeometry>
        </mxCell>
        <mxCell id="7qjSa7UYPRbw4jlqZfWL-96" value="32" style="text;html=1;resizable=0;autosize=1;align=center;verticalAlign=middle;points=[];fillColor=none;strokeColor=none;rounded=0;fontSize=12;" parent="1" vertex="1">
          <mxGeometry x="980" y="1520.17" width="30" height="20" as="geometry" />
        </mxCell>
        <mxCell id="7qjSa7UYPRbw4jlqZfWL-97" value="" style="endArrow=none;html=1;rounded=0;fontSize=12;" parent="1" edge="1">
          <mxGeometry width="50" height="50" relative="1" as="geometry">
            <mxPoint x="991" y="1545.17" as="sourcePoint" />
            <mxPoint x="1001" y="1535.17" as="targetPoint" />
          </mxGeometry>
        </mxCell>
        <mxCell id="7qjSa7UYPRbw4jlqZfWL-98" value="32" style="text;html=1;resizable=0;autosize=1;align=center;verticalAlign=middle;points=[];fillColor=none;strokeColor=none;rounded=0;fontSize=12;" parent="1" vertex="1">
          <mxGeometry x="3230" y="1559.67" width="30" height="20" as="geometry" />
        </mxCell>
        <mxCell id="7qjSa7UYPRbw4jlqZfWL-99" value="" style="endArrow=none;html=1;rounded=0;fontSize=12;" parent="1" edge="1">
          <mxGeometry width="50" height="50" relative="1" as="geometry">
            <mxPoint x="3240" y="1584.67" as="sourcePoint" />
            <mxPoint x="3250" y="1574.67" as="targetPoint" />
          </mxGeometry>
        </mxCell>
        <mxCell id="7qjSa7UYPRbw4jlqZfWL-102" value="32" style="text;html=1;resizable=0;autosize=1;align=center;verticalAlign=middle;points=[];fillColor=none;strokeColor=none;rounded=0;fontSize=12;" parent="1" vertex="1">
          <mxGeometry x="3245" y="1259.67" width="30" height="20" as="geometry" />
        </mxCell>
        <mxCell id="7qjSa7UYPRbw4jlqZfWL-103" value="" style="endArrow=none;html=1;rounded=0;fontSize=12;" parent="1" edge="1">
          <mxGeometry width="50" height="50" relative="1" as="geometry">
            <mxPoint x="3255" y="1288.42" as="sourcePoint" />
            <mxPoint x="3265" y="1278.42" as="targetPoint" />
          </mxGeometry>
        </mxCell>
        <mxCell id="7qjSa7UYPRbw4jlqZfWL-104" value="A" style="text;html=1;strokeColor=none;fillColor=none;align=center;verticalAlign=middle;whiteSpace=wrap;rounded=0;" parent="1" vertex="1">
          <mxGeometry x="2778" y="1209.67" width="60" height="30" as="geometry" />
        </mxCell>
        <mxCell id="7qjSa7UYPRbw4jlqZfWL-107" value="32" style="text;html=1;resizable=0;autosize=1;align=center;verticalAlign=middle;points=[];fillColor=none;strokeColor=none;rounded=0;fontSize=12;" parent="1" vertex="1">
          <mxGeometry x="2828" y="1305" width="30" height="20" as="geometry" />
        </mxCell>
        <mxCell id="7qjSa7UYPRbw4jlqZfWL-108" value="" style="endArrow=none;html=1;rounded=0;fontSize=12;" parent="1" edge="1">
          <mxGeometry width="50" height="50" relative="1" as="geometry">
            <mxPoint x="2839" y="1334.67" as="sourcePoint" />
            <mxPoint x="2849" y="1324.67" as="targetPoint" />
          </mxGeometry>
        </mxCell>
        <mxCell id="7qjSa7UYPRbw4jlqZfWL-109" value="B" style="text;html=1;strokeColor=none;fillColor=none;align=center;verticalAlign=middle;whiteSpace=wrap;rounded=0;" parent="1" vertex="1">
          <mxGeometry x="2778" y="1299.67" width="60" height="30" as="geometry" />
        </mxCell>
        <mxCell id="7qjSa7UYPRbw4jlqZfWL-111" value="" style="endArrow=classic;html=1;rounded=0;exitX=1;exitY=0.5;exitDx=0;exitDy=0;entryX=-0.025;entryY=0.495;entryDx=0;entryDy=0;entryPerimeter=0;" parent="1" source="uQGv06zmIQrsjEMMD4d0-187" target="7qjSa7UYPRbw4jlqZfWL-126" edge="1">
          <mxGeometry width="50" height="50" relative="1" as="geometry">
            <mxPoint x="3290" y="1150" as="sourcePoint" />
            <mxPoint x="3737.5862068965516" y="1283" as="targetPoint" />
          </mxGeometry>
        </mxCell>
        <mxCell id="7qjSa7UYPRbw4jlqZfWL-112" value="" style="endArrow=none;html=1;rounded=0;startArrow=oval;startFill=1;startSize=9;" parent="1" edge="1">
          <mxGeometry width="50" height="50" relative="1" as="geometry">
            <mxPoint x="3786" y="1284" as="sourcePoint" />
            <mxPoint x="3786" y="340" as="targetPoint" />
          </mxGeometry>
        </mxCell>
        <mxCell id="7qjSa7UYPRbw4jlqZfWL-113" value="" style="endArrow=none;html=1;rounded=0;" parent="1" edge="1">
          <mxGeometry width="50" height="50" relative="1" as="geometry">
            <mxPoint x="2256" y="340" as="sourcePoint" />
            <mxPoint x="3786" y="340" as="targetPoint" />
          </mxGeometry>
        </mxCell>
        <mxCell id="7qjSa7UYPRbw4jlqZfWL-114" value="32" style="text;html=1;resizable=0;autosize=1;align=center;verticalAlign=middle;points=[];fillColor=none;strokeColor=none;rounded=0;fontSize=12;" parent="1" vertex="1">
          <mxGeometry x="3590" y="1259.67" width="30" height="20" as="geometry" />
        </mxCell>
        <mxCell id="7qjSa7UYPRbw4jlqZfWL-115" value="" style="endArrow=none;html=1;rounded=0;fontSize=12;" parent="1" edge="1">
          <mxGeometry width="50" height="50" relative="1" as="geometry">
            <mxPoint x="3600" y="1288.42" as="sourcePoint" />
            <mxPoint x="3610" y="1278.42" as="targetPoint" />
          </mxGeometry>
        </mxCell>
        <mxCell id="7qjSa7UYPRbw4jlqZfWL-116" value="32" style="text;html=1;resizable=0;autosize=1;align=center;verticalAlign=middle;points=[];fillColor=none;strokeColor=none;rounded=0;fontSize=12;" parent="1" vertex="1">
          <mxGeometry x="3755" y="1177.5" width="30" height="20" as="geometry" />
        </mxCell>
        <mxCell id="7qjSa7UYPRbw4jlqZfWL-117" value="" style="endArrow=none;html=1;rounded=0;fontSize=12;" parent="1" edge="1">
          <mxGeometry width="50" height="50" relative="1" as="geometry">
            <mxPoint x="3775" y="1197.17" as="sourcePoint" />
            <mxPoint x="3795" y="1190" as="targetPoint" />
            <Array as="points">
              <mxPoint x="3795" y="1190" />
            </Array>
          </mxGeometry>
        </mxCell>
        <mxCell id="7qjSa7UYPRbw4jlqZfWL-118" value="32" style="text;html=1;resizable=0;autosize=1;align=center;verticalAlign=middle;points=[];fillColor=none;strokeColor=none;rounded=0;fontSize=12;" parent="1" vertex="1">
          <mxGeometry x="3936" y="1259.67" width="30" height="20" as="geometry" />
        </mxCell>
        <mxCell id="7qjSa7UYPRbw4jlqZfWL-119" value="" style="endArrow=none;html=1;rounded=0;fontSize=12;" parent="1" edge="1">
          <mxGeometry width="50" height="50" relative="1" as="geometry">
            <mxPoint x="3946" y="1288.42" as="sourcePoint" />
            <mxPoint x="3956" y="1278.42" as="targetPoint" />
          </mxGeometry>
        </mxCell>
        <mxCell id="7qjSa7UYPRbw4jlqZfWL-120" value="&lt;font style=&quot;font-size: 18px;&quot;&gt;0&lt;/font&gt;" style="text;html=1;strokeColor=none;fillColor=none;align=center;verticalAlign=middle;whiteSpace=wrap;rounded=0;" parent="1" vertex="1">
          <mxGeometry x="2968" y="679.6700000000001" width="60" height="30" as="geometry" />
        </mxCell>
        <mxCell id="7qjSa7UYPRbw4jlqZfWL-122" value="" style="endArrow=none;html=1;rounded=0;entryX=0.122;entryY=0.745;entryDx=0;entryDy=0;entryPerimeter=0;fillColor=#0050ef;strokeColor=#001DBC;" parent="1" target="uQGv06zmIQrsjEMMD4d0-69" edge="1">
          <mxGeometry width="50" height="50" relative="1" as="geometry">
            <mxPoint x="1730" y="879" as="sourcePoint" />
            <mxPoint x="1720" y="890" as="targetPoint" />
          </mxGeometry>
        </mxCell>
        <mxCell id="7qjSa7UYPRbw4jlqZfWL-123" value="" style="endArrow=none;html=1;rounded=0;fillColor=#0050ef;strokeColor=#001DBC;" parent="1" edge="1">
          <mxGeometry width="50" height="50" relative="1" as="geometry">
            <mxPoint x="1730" y="1100" as="sourcePoint" />
            <mxPoint x="1730" y="879" as="targetPoint" />
          </mxGeometry>
        </mxCell>
        <mxCell id="7qjSa7UYPRbw4jlqZfWL-124" value="" style="endArrow=none;html=1;rounded=0;fillColor=#0050ef;strokeColor=#001DBC;" parent="1" edge="1">
          <mxGeometry width="50" height="50" relative="1" as="geometry">
            <mxPoint x="1660" y="1100" as="sourcePoint" />
            <mxPoint x="1730" y="1099.67" as="targetPoint" />
          </mxGeometry>
        </mxCell>
        <mxCell id="7qjSa7UYPRbw4jlqZfWL-125" value="" style="endArrow=classic;html=1;rounded=0;entryX=0.497;entryY=0.869;entryDx=0;entryDy=0;entryPerimeter=0;fillColor=#0050ef;strokeColor=#001DBC;" parent="1" target="uQGv06zmIQrsjEMMD4d0-68" edge="1">
          <mxGeometry width="50" height="50" relative="1" as="geometry">
            <mxPoint x="1660" y="1100" as="sourcePoint" />
            <mxPoint x="1720" y="1060" as="targetPoint" />
          </mxGeometry>
        </mxCell>
        <mxCell id="7qjSa7UYPRbw4jlqZfWL-126" value="&lt;font style=&quot;font-size: 18px;&quot;&gt;&lt;b&gt;DRAM&lt;/b&gt;&lt;/font&gt;" style="whiteSpace=wrap;html=1;aspect=fixed;fillColor=#d5e8d4;strokeColor=none;" parent="1" vertex="1">
          <mxGeometry x="3996" y="1183.42" width="200" height="200" as="geometry" />
        </mxCell>
        <mxCell id="7qjSa7UYPRbw4jlqZfWL-127" value="addr" style="text;html=1;strokeColor=none;fillColor=none;align=center;verticalAlign=middle;whiteSpace=wrap;rounded=0;" parent="1" vertex="1">
          <mxGeometry x="3996" y="1269.67" width="40" height="20" as="geometry" />
        </mxCell>
        <mxCell id="7qjSa7UYPRbw4jlqZfWL-129" value="" style="endArrow=none;html=1;rounded=0;exitX=1;exitY=0.494;exitDx=0;exitDy=0;exitPerimeter=0;" parent="1" source="7qjSa7UYPRbw4jlqZfWL-16" edge="1">
          <mxGeometry width="50" height="50" relative="1" as="geometry">
            <mxPoint x="3466" y="1580.5" as="sourcePoint" />
            <mxPoint x="3886" y="1580" as="targetPoint" />
          </mxGeometry>
        </mxCell>
        <mxCell id="7qjSa7UYPRbw4jlqZfWL-130" value="" style="endArrow=none;html=1;rounded=0;" parent="1" edge="1">
          <mxGeometry width="50" height="50" relative="1" as="geometry">
            <mxPoint x="3886" y="1580" as="sourcePoint" />
            <mxPoint x="3886" y="1330" as="targetPoint" />
          </mxGeometry>
        </mxCell>
        <mxCell id="7qjSa7UYPRbw4jlqZfWL-131" value="" style="endArrow=classic;html=1;rounded=0;entryX=-0.02;entryY=0.731;entryDx=0;entryDy=0;entryPerimeter=0;" parent="1" target="7qjSa7UYPRbw4jlqZfWL-126" edge="1">
          <mxGeometry width="50" height="50" relative="1" as="geometry">
            <mxPoint x="3886" y="1330" as="sourcePoint" />
            <mxPoint x="3986" y="1330" as="targetPoint" />
          </mxGeometry>
        </mxCell>
        <mxCell id="7qjSa7UYPRbw4jlqZfWL-132" value="data" style="text;html=1;strokeColor=none;fillColor=none;align=center;verticalAlign=middle;whiteSpace=wrap;rounded=0;" parent="1" vertex="1">
          <mxGeometry x="3996" y="1320" width="40" height="20" as="geometry" />
        </mxCell>
        <mxCell id="7qjSa7UYPRbw4jlqZfWL-133" value="32" style="text;html=1;resizable=0;autosize=1;align=center;verticalAlign=middle;points=[];fillColor=none;strokeColor=none;rounded=0;fontSize=12;" parent="1" vertex="1">
          <mxGeometry x="3936" y="1305" width="30" height="20" as="geometry" />
        </mxCell>
        <mxCell id="7qjSa7UYPRbw4jlqZfWL-134" value="" style="endArrow=none;html=1;rounded=0;fontSize=12;" parent="1" edge="1">
          <mxGeometry width="50" height="50" relative="1" as="geometry">
            <mxPoint x="3946" y="1333.75" as="sourcePoint" />
            <mxPoint x="3956" y="1323.75" as="targetPoint" />
          </mxGeometry>
        </mxCell>
        <mxCell id="7qjSa7UYPRbw4jlqZfWL-136" value="" style="shape=trapezoid;perimeter=trapezoidPerimeter;whiteSpace=wrap;html=1;fixedSize=1;rotation=90;fillColor=#fad9d5;strokeColor=none;" parent="1" vertex="1">
          <mxGeometry x="3961" y="894.67" width="130" height="60" as="geometry" />
        </mxCell>
        <mxCell id="7qjSa7UYPRbw4jlqZfWL-138" value="" style="endArrow=classic;html=1;rounded=0;entryX=0.778;entryY=1.019;entryDx=0;entryDy=0;entryPerimeter=0;startArrow=oval;startFill=1;startSize=9;" parent="1" edge="1">
          <mxGeometry width="50" height="50" relative="1" as="geometry">
            <mxPoint x="3786" y="902.64" as="sourcePoint" />
            <mxPoint x="3994.8599999999997" y="903.4500000000002" as="targetPoint" />
            <Array as="points">
              <mxPoint x="3896" y="902.64" />
            </Array>
          </mxGeometry>
        </mxCell>
        <mxCell id="7qjSa7UYPRbw4jlqZfWL-139" value="" style="endArrow=none;html=1;rounded=0;" parent="1" edge="1">
          <mxGeometry width="50" height="50" relative="1" as="geometry">
            <mxPoint x="1010" y="360" as="sourcePoint" />
            <mxPoint x="3600" y="360" as="targetPoint" />
          </mxGeometry>
        </mxCell>
        <mxCell id="7qjSa7UYPRbw4jlqZfWL-140" value="" style="endArrow=none;html=1;rounded=0;" parent="1" edge="1">
          <mxGeometry width="50" height="50" relative="1" as="geometry">
            <mxPoint x="3600" y="960" as="sourcePoint" />
            <mxPoint x="3600" y="360" as="targetPoint" />
          </mxGeometry>
        </mxCell>
        <mxCell id="7qjSa7UYPRbw4jlqZfWL-141" value="" style="endArrow=classic;html=1;rounded=0;entryX=0.75;entryY=1;entryDx=0;entryDy=0;" parent="1" target="7qjSa7UYPRbw4jlqZfWL-136" edge="1">
          <mxGeometry width="50" height="50" relative="1" as="geometry">
            <mxPoint x="3600" y="959.43" as="sourcePoint" />
            <mxPoint x="3860" y="959.43" as="targetPoint" />
          </mxGeometry>
        </mxCell>
        <mxCell id="7qjSa7UYPRbw4jlqZfWL-142" value="" style="endArrow=none;html=1;rounded=0;" parent="1" edge="1">
          <mxGeometry width="50" height="50" relative="1" as="geometry">
            <mxPoint x="3460" y="810" as="sourcePoint" />
            <mxPoint x="4026" y="810" as="targetPoint" />
          </mxGeometry>
        </mxCell>
        <mxCell id="7qjSa7UYPRbw4jlqZfWL-143" value="" style="endArrow=classic;html=1;rounded=0;entryX=0;entryY=0.5;entryDx=0;entryDy=0;" parent="1" edge="1">
          <mxGeometry width="50" height="50" relative="1" as="geometry">
            <mxPoint x="4025.86" y="810" as="sourcePoint" />
            <mxPoint x="4025.859999999999" y="869.6700000000001" as="targetPoint" />
          </mxGeometry>
        </mxCell>
        <mxCell id="7qjSa7UYPRbw4jlqZfWL-144" value="32" style="text;html=1;resizable=0;autosize=1;align=center;verticalAlign=middle;points=[];fillColor=none;strokeColor=none;rounded=0;fontSize=12;" parent="1" vertex="1">
          <mxGeometry x="3931" y="882.64" width="30" height="20" as="geometry" />
        </mxCell>
        <mxCell id="7qjSa7UYPRbw4jlqZfWL-145" value="" style="endArrow=none;html=1;rounded=0;fontSize=12;" parent="1" edge="1">
          <mxGeometry width="50" height="50" relative="1" as="geometry">
            <mxPoint x="3946" y="907.31" as="sourcePoint" />
            <mxPoint x="3956" y="897.31" as="targetPoint" />
          </mxGeometry>
        </mxCell>
        <mxCell id="7qjSa7UYPRbw4jlqZfWL-146" value="32" style="text;html=1;resizable=0;autosize=1;align=center;verticalAlign=middle;points=[];fillColor=none;strokeColor=none;rounded=0;fontSize=12;" parent="1" vertex="1">
          <mxGeometry x="3931" y="939.9999999999999" width="30" height="20" as="geometry" />
        </mxCell>
        <mxCell id="7qjSa7UYPRbw4jlqZfWL-147" value="" style="endArrow=none;html=1;rounded=0;fontSize=12;" parent="1" edge="1">
          <mxGeometry width="50" height="50" relative="1" as="geometry">
            <mxPoint x="3946" y="964.6699999999998" as="sourcePoint" />
            <mxPoint x="3956" y="954.6699999999998" as="targetPoint" />
          </mxGeometry>
        </mxCell>
        <mxCell id="7qjSa7UYPRbw4jlqZfWL-148" value="32" style="text;html=1;resizable=0;autosize=1;align=center;verticalAlign=middle;points=[];fillColor=none;strokeColor=none;rounded=0;fontSize=12;" parent="1" vertex="1">
          <mxGeometry x="3756" y="849.67" width="30" height="20" as="geometry" />
        </mxCell>
        <mxCell id="7qjSa7UYPRbw4jlqZfWL-149" value="" style="endArrow=none;html=1;rounded=0;fontSize=12;" parent="1" edge="1">
          <mxGeometry width="50" height="50" relative="1" as="geometry">
            <mxPoint x="3776" y="869.34" as="sourcePoint" />
            <mxPoint x="3796" y="862.17" as="targetPoint" />
            <Array as="points">
              <mxPoint x="3796" y="862.17" />
            </Array>
          </mxGeometry>
        </mxCell>
        <mxCell id="7qjSa7UYPRbw4jlqZfWL-150" value="0" style="text;html=1;strokeColor=none;fillColor=none;align=center;verticalAlign=middle;whiteSpace=wrap;rounded=0;" parent="1" vertex="1">
          <mxGeometry x="4006" y="890" width="10" height="20" as="geometry" />
        </mxCell>
        <mxCell id="7qjSa7UYPRbw4jlqZfWL-151" value="1" style="text;html=1;strokeColor=none;fillColor=none;align=center;verticalAlign=middle;whiteSpace=wrap;rounded=0;" parent="1" vertex="1">
          <mxGeometry x="4006" y="949.67" width="10" height="20" as="geometry" />
        </mxCell>
        <mxCell id="7qjSa7UYPRbw4jlqZfWL-152" value="" style="endArrow=none;html=1;rounded=0;exitX=0.465;exitY=0.006;exitDx=0;exitDy=0;exitPerimeter=0;" parent="1" source="7qjSa7UYPRbw4jlqZfWL-136" edge="1">
          <mxGeometry width="50" height="50" relative="1" as="geometry">
            <mxPoint x="3706" y="950" as="sourcePoint" />
            <mxPoint x="4126" y="920" as="targetPoint" />
          </mxGeometry>
        </mxCell>
        <mxCell id="7qjSa7UYPRbw4jlqZfWL-153" value="" style="endArrow=none;html=1;rounded=0;" parent="1" edge="1">
          <mxGeometry width="50" height="50" relative="1" as="geometry">
            <mxPoint x="4126" y="920" as="sourcePoint" />
            <mxPoint x="4126" y="420" as="targetPoint" />
          </mxGeometry>
        </mxCell>
        <mxCell id="7qjSa7UYPRbw4jlqZfWL-154" value="" style="endArrow=none;html=1;rounded=0;" parent="1" edge="1">
          <mxGeometry width="50" height="50" relative="1" as="geometry">
            <mxPoint x="370" y="417.78" as="sourcePoint" />
            <mxPoint x="4126" y="417.78" as="targetPoint" />
            <Array as="points">
              <mxPoint x="2250" y="417.78" />
            </Array>
          </mxGeometry>
        </mxCell>
        <mxCell id="7qjSa7UYPRbw4jlqZfWL-155" value="" style="endArrow=none;html=1;rounded=0;" parent="1" edge="1">
          <mxGeometry width="50" height="50" relative="1" as="geometry">
            <mxPoint x="3786" y="1450" as="sourcePoint" />
            <mxPoint x="3786" y="1280" as="targetPoint" />
          </mxGeometry>
        </mxCell>
        <mxCell id="7qjSa7UYPRbw4jlqZfWL-156" value="" style="endArrow=none;html=1;rounded=0;" parent="1" edge="1">
          <mxGeometry width="50" height="50" relative="1" as="geometry">
            <mxPoint x="3786" y="1450" as="sourcePoint" />
            <mxPoint x="4306" y="1450" as="targetPoint" />
          </mxGeometry>
        </mxCell>
        <mxCell id="7qjSa7UYPRbw4jlqZfWL-157" value="" style="endArrow=classic;html=1;rounded=0;exitX=0.998;exitY=0.481;exitDx=0;exitDy=0;exitPerimeter=0;entryX=0.31;entryY=1.02;entryDx=0;entryDy=0;entryPerimeter=0;" parent="1" source="7qjSa7UYPRbw4jlqZfWL-126" target="7qjSa7UYPRbw4jlqZfWL-160" edge="1">
          <mxGeometry width="50" height="50" relative="1" as="geometry">
            <mxPoint x="4366" y="1460" as="sourcePoint" />
            <mxPoint x="4426" y="1280" as="targetPoint" />
          </mxGeometry>
        </mxCell>
        <mxCell id="7qjSa7UYPRbw4jlqZfWL-158" value="" style="endArrow=none;html=1;rounded=0;" parent="1" edge="1">
          <mxGeometry width="50" height="50" relative="1" as="geometry">
            <mxPoint x="4306" y="1450" as="sourcePoint" />
            <mxPoint x="4306" y="1340" as="targetPoint" />
          </mxGeometry>
        </mxCell>
        <mxCell id="7qjSa7UYPRbw4jlqZfWL-160" value="" style="shape=trapezoid;perimeter=trapezoidPerimeter;whiteSpace=wrap;html=1;fixedSize=1;rotation=90;fillColor=#fad9d5;strokeColor=none;" parent="1" vertex="1">
          <mxGeometry x="4396" y="1274.34" width="130" height="60" as="geometry" />
        </mxCell>
        <mxCell id="7qjSa7UYPRbw4jlqZfWL-161" value="0" style="text;html=1;strokeColor=none;fillColor=none;align=center;verticalAlign=middle;whiteSpace=wrap;rounded=0;" parent="1" vertex="1">
          <mxGeometry x="4441" y="1269.67" width="10" height="20" as="geometry" />
        </mxCell>
        <mxCell id="7qjSa7UYPRbw4jlqZfWL-162" value="1" style="text;html=1;strokeColor=none;fillColor=none;align=center;verticalAlign=middle;whiteSpace=wrap;rounded=0;" parent="1" vertex="1">
          <mxGeometry x="4441" y="1329.34" width="10" height="20" as="geometry" />
        </mxCell>
        <mxCell id="7qjSa7UYPRbw4jlqZfWL-163" value="" style="endArrow=classic;html=1;rounded=0;entryX=0.779;entryY=1.026;entryDx=0;entryDy=0;entryPerimeter=0;" parent="1" target="7qjSa7UYPRbw4jlqZfWL-160" edge="1">
          <mxGeometry width="50" height="50" relative="1" as="geometry">
            <mxPoint x="4306" y="1340" as="sourcePoint" />
            <mxPoint x="4386" y="1220" as="targetPoint" />
          </mxGeometry>
        </mxCell>
        <mxCell id="ZMDTc-KTuDpF_UWatmGV-16" style="edgeStyle=orthogonalEdgeStyle;rounded=0;orthogonalLoop=1;jettySize=auto;html=1;entryX=0.305;entryY=1.026;entryDx=0;entryDy=0;entryPerimeter=0;" parent="1" source="7qjSa7UYPRbw4jlqZfWL-164" target="0hPXFLh1vfFSdtqoii6U-16" edge="1">
          <mxGeometry relative="1" as="geometry">
            <mxPoint x="4916" y="1349.9999999999998" as="targetPoint" />
          </mxGeometry>
        </mxCell>
        <mxCell id="7qjSa7UYPRbw4jlqZfWL-164" value="&lt;b&gt;WR_DATA&lt;/b&gt;" style="whiteSpace=wrap;html=1;aspect=fixed;fillColor=#e1d5e7;strokeColor=none;" parent="1" vertex="1">
          <mxGeometry x="4656" y="1259.67" width="80" height="80" as="geometry" />
        </mxCell>
        <mxCell id="7qjSa7UYPRbw4jlqZfWL-165" value="" style="endArrow=classic;html=1;rounded=0;exitX=0.5;exitY=0;exitDx=0;exitDy=0;entryX=-0.006;entryY=0.555;entryDx=0;entryDy=0;entryPerimeter=0;" parent="1" source="7qjSa7UYPRbw4jlqZfWL-160" target="7qjSa7UYPRbw4jlqZfWL-164" edge="1">
          <mxGeometry width="50" height="50" relative="1" as="geometry">
            <mxPoint x="4476" y="1440" as="sourcePoint" />
            <mxPoint x="4526" y="1390" as="targetPoint" />
          </mxGeometry>
        </mxCell>
        <mxCell id="0hPXFLh1vfFSdtqoii6U-1" style="edgeStyle=orthogonalEdgeStyle;rounded=0;orthogonalLoop=1;jettySize=auto;html=1;" parent="1" edge="1">
          <mxGeometry relative="1" as="geometry">
            <mxPoint x="4856" y="1780" as="targetPoint" />
            <mxPoint x="4576.000000000001" y="1780" as="sourcePoint" />
          </mxGeometry>
        </mxCell>
        <mxCell id="7qjSa7UYPRbw4jlqZfWL-166" value="&lt;b&gt;IR&lt;/b&gt;" style="whiteSpace=wrap;html=1;aspect=fixed;fillColor=#e1d5e7;strokeColor=none;" parent="1" vertex="1">
          <mxGeometry x="4656" y="1740" width="80" height="80" as="geometry" />
        </mxCell>
        <mxCell id="7qjSa7UYPRbw4jlqZfWL-168" value="32" style="text;html=1;resizable=0;autosize=1;align=center;verticalAlign=middle;points=[];fillColor=none;strokeColor=none;rounded=0;fontSize=12;" parent="1" vertex="1">
          <mxGeometry x="4556" y="1760" width="30" height="20" as="geometry" />
        </mxCell>
        <mxCell id="7qjSa7UYPRbw4jlqZfWL-169" value="" style="endArrow=none;html=1;rounded=0;fontSize=12;" parent="1" edge="1">
          <mxGeometry width="50" height="50" relative="1" as="geometry">
            <mxPoint x="4567" y="1785" as="sourcePoint" />
            <mxPoint x="4577" y="1775" as="targetPoint" />
          </mxGeometry>
        </mxCell>
        <mxCell id="7qjSa7UYPRbw4jlqZfWL-170" value="32" style="text;html=1;resizable=0;autosize=1;align=center;verticalAlign=middle;points=[];fillColor=none;strokeColor=none;rounded=0;fontSize=12;" parent="1" vertex="1">
          <mxGeometry x="4596" y="1285" width="30" height="20" as="geometry" />
        </mxCell>
        <mxCell id="7qjSa7UYPRbw4jlqZfWL-171" value="" style="endArrow=none;html=1;rounded=0;fontSize=12;" parent="1" edge="1">
          <mxGeometry width="50" height="50" relative="1" as="geometry">
            <mxPoint x="4616" y="1309.34" as="sourcePoint" />
            <mxPoint x="4626" y="1299.34" as="targetPoint" />
          </mxGeometry>
        </mxCell>
        <mxCell id="7qjSa7UYPRbw4jlqZfWL-172" value="32" style="text;html=1;resizable=0;autosize=1;align=center;verticalAlign=middle;points=[];fillColor=none;strokeColor=none;rounded=0;fontSize=12;" parent="1" vertex="1">
          <mxGeometry x="4336" y="1260.6599999999999" width="30" height="20" as="geometry" />
        </mxCell>
        <mxCell id="7qjSa7UYPRbw4jlqZfWL-173" value="" style="endArrow=none;html=1;rounded=0;fontSize=12;" parent="1" edge="1">
          <mxGeometry width="50" height="50" relative="1" as="geometry">
            <mxPoint x="4356" y="1285" as="sourcePoint" />
            <mxPoint x="4366" y="1275" as="targetPoint" />
          </mxGeometry>
        </mxCell>
        <mxCell id="7qjSa7UYPRbw4jlqZfWL-174" value="32" style="text;html=1;resizable=0;autosize=1;align=center;verticalAlign=middle;points=[];fillColor=none;strokeColor=none;rounded=0;fontSize=12;" parent="1" vertex="1">
          <mxGeometry x="4336" y="1320.33" width="30" height="20" as="geometry" />
        </mxCell>
        <mxCell id="7qjSa7UYPRbw4jlqZfWL-175" value="" style="endArrow=none;html=1;rounded=0;fontSize=12;" parent="1" edge="1">
          <mxGeometry width="50" height="50" relative="1" as="geometry">
            <mxPoint x="4356" y="1344.6699999999998" as="sourcePoint" />
            <mxPoint x="4366" y="1334.6699999999998" as="targetPoint" />
          </mxGeometry>
        </mxCell>
        <mxCell id="7qjSa7UYPRbw4jlqZfWL-178" value="CU" style="ellipse;shape=cloud;whiteSpace=wrap;html=1;fontSize=25;fillColor=#fa6800;fontColor=#000000;strokeColor=none;gradientColor=none;opacity=70;" parent="1" vertex="1">
          <mxGeometry x="4561" y="2010" width="270" height="130" as="geometry" />
        </mxCell>
        <mxCell id="7qjSa7UYPRbw4jlqZfWL-179" value="" style="endArrow=classic;html=1;rounded=0;entryX=1;entryY=0.5;entryDx=0;entryDy=0;fillColor=#0050ef;strokeColor=#001DBC;" parent="1" target="7qjSa7UYPRbw4jlqZfWL-160" edge="1">
          <mxGeometry width="50" height="50" relative="1" as="geometry">
            <mxPoint x="4461" y="2070" as="sourcePoint" />
            <mxPoint x="4586" y="1740" as="targetPoint" />
          </mxGeometry>
        </mxCell>
        <mxCell id="7qjSa7UYPRbw4jlqZfWL-180" value="" style="endArrow=none;html=1;rounded=0;entryX=0.066;entryY=0.463;entryDx=0;entryDy=0;entryPerimeter=0;fillColor=#0050ef;strokeColor=#001DBC;" parent="1" target="7qjSa7UYPRbw4jlqZfWL-178" edge="1">
          <mxGeometry width="50" height="50" relative="1" as="geometry">
            <mxPoint x="4460" y="2070" as="sourcePoint" />
            <mxPoint x="4486" y="2030" as="targetPoint" />
          </mxGeometry>
        </mxCell>
        <mxCell id="7qjSa7UYPRbw4jlqZfWL-181" value="" style="endArrow=classic;html=1;rounded=0;entryX=0.375;entryY=1.016;entryDx=0;entryDy=0;entryPerimeter=0;" parent="1" edge="1">
          <mxGeometry width="50" height="50" relative="1" as="geometry">
            <mxPoint x="4591" y="1384.67" as="sourcePoint" />
            <mxPoint x="4681" y="1339.37" as="targetPoint" />
            <Array as="points">
              <mxPoint x="4681" y="1385" />
            </Array>
          </mxGeometry>
        </mxCell>
        <mxCell id="7qjSa7UYPRbw4jlqZfWL-182" value="&lt;font style=&quot;font-size: 18px;&quot;&gt;SET&lt;/font&gt;" style="edgeLabel;html=1;align=center;verticalAlign=middle;resizable=0;points=[];" parent="7qjSa7UYPRbw4jlqZfWL-181" vertex="1" connectable="0">
          <mxGeometry x="-0.2356" y="-1" relative="1" as="geometry">
            <mxPoint as="offset" />
          </mxGeometry>
        </mxCell>
        <mxCell id="7qjSa7UYPRbw4jlqZfWL-183" value="&lt;font style=&quot;font-size: 18px;&quot;&gt;&#39;0&#39;&lt;/font&gt;" style="text;html=1;resizable=0;autosize=1;align=center;verticalAlign=middle;points=[];fillColor=none;strokeColor=none;rounded=0;fontSize=12;" parent="1" vertex="1">
          <mxGeometry x="4556" y="1364.67" width="40" height="40" as="geometry" />
        </mxCell>
        <mxCell id="7qjSa7UYPRbw4jlqZfWL-184" value="" style="endArrow=classic;html=1;rounded=0;entryX=0.25;entryY=1;entryDx=0;entryDy=0;exitX=0.426;exitY=0.073;exitDx=0;exitDy=0;exitPerimeter=0;fillColor=#0050ef;strokeColor=#001DBC;" parent="1" source="7qjSa7UYPRbw4jlqZfWL-178" target="7qjSa7UYPRbw4jlqZfWL-166" edge="1">
          <mxGeometry width="50" height="50" relative="1" as="geometry">
            <mxPoint x="4726" y="1890" as="sourcePoint" />
            <mxPoint x="4776" y="1840" as="targetPoint" />
          </mxGeometry>
        </mxCell>
        <mxCell id="7qjSa7UYPRbw4jlqZfWL-185" value="&lt;font style=&quot;font-size: 18px;&quot;&gt;SET&lt;/font&gt;" style="edgeLabel;html=1;align=center;verticalAlign=middle;resizable=0;points=[];" parent="7qjSa7UYPRbw4jlqZfWL-184" vertex="1" connectable="0">
          <mxGeometry x="0.7006" y="4" relative="1" as="geometry">
            <mxPoint as="offset" />
          </mxGeometry>
        </mxCell>
        <mxCell id="7qjSa7UYPRbw4jlqZfWL-189" value="" style="endArrow=oval;html=1;rounded=0;fillColor=#0050ef;strokeColor=#001DBC;endFill=1;startSize=7;endSize=10;" parent="1" edge="1">
          <mxGeometry width="50" height="50" relative="1" as="geometry">
            <mxPoint x="4711" y="1870" as="sourcePoint" />
            <mxPoint x="4764" y="1870" as="targetPoint" />
          </mxGeometry>
        </mxCell>
        <mxCell id="7qjSa7UYPRbw4jlqZfWL-190" value="" style="endArrow=classic;html=1;rounded=0;fillColor=#0050ef;strokeColor=#001DBC;" parent="1" edge="1">
          <mxGeometry width="50" height="50" relative="1" as="geometry">
            <mxPoint x="4711" y="1870" as="sourcePoint" />
            <mxPoint x="4711" y="1820" as="targetPoint" />
          </mxGeometry>
        </mxCell>
        <mxCell id="7qjSa7UYPRbw4jlqZfWL-191" value="&lt;font style=&quot;font-size: 18px;&quot;&gt;EN&lt;/font&gt;" style="edgeLabel;html=1;align=center;verticalAlign=middle;resizable=0;points=[];" parent="7qjSa7UYPRbw4jlqZfWL-190" vertex="1" connectable="0">
          <mxGeometry x="-0.1" y="2" relative="1" as="geometry">
            <mxPoint x="1" as="offset" />
          </mxGeometry>
        </mxCell>
        <mxCell id="7qjSa7UYPRbw4jlqZfWL-192" value="" style="endArrow=none;html=1;rounded=0;exitX=0.753;exitY=0.158;exitDx=0;exitDy=0;exitPerimeter=0;fillColor=#0050ef;strokeColor=#001DBC;" parent="1" source="7qjSa7UYPRbw4jlqZfWL-178" edge="1">
          <mxGeometry width="50" height="50" relative="1" as="geometry">
            <mxPoint x="4756" y="1970" as="sourcePoint" />
            <mxPoint x="4766" y="665" as="targetPoint" />
          </mxGeometry>
        </mxCell>
        <mxCell id="7qjSa7UYPRbw4jlqZfWL-194" value="" style="endArrow=none;html=1;rounded=0;fillColor=#0050ef;strokeColor=#001DBC;" parent="1" edge="1">
          <mxGeometry width="50" height="50" relative="1" as="geometry">
            <mxPoint x="4716" y="1360" as="sourcePoint" />
            <mxPoint x="4764" y="1360" as="targetPoint" />
          </mxGeometry>
        </mxCell>
        <mxCell id="7qjSa7UYPRbw4jlqZfWL-196" value="&lt;font style=&quot;font-size: 18px;&quot;&gt;EN&lt;/font&gt;" style="edgeLabel;html=1;align=center;verticalAlign=middle;resizable=0;points=[];" parent="7qjSa7UYPRbw4jlqZfWL-194" vertex="1" connectable="0">
          <mxGeometry x="-0.7167" y="1" relative="1" as="geometry">
            <mxPoint x="13" y="1" as="offset" />
          </mxGeometry>
        </mxCell>
        <mxCell id="7qjSa7UYPRbw4jlqZfWL-195" value="" style="endArrow=classic;html=1;rounded=0;entryX=0.75;entryY=1;entryDx=0;entryDy=0;fillColor=#0050ef;strokeColor=#001DBC;" parent="1" target="7qjSa7UYPRbw4jlqZfWL-164" edge="1">
          <mxGeometry width="50" height="50" relative="1" as="geometry">
            <mxPoint x="4716" y="1360" as="sourcePoint" />
            <mxPoint x="4716" y="1440" as="targetPoint" />
          </mxGeometry>
        </mxCell>
        <mxCell id="qcByjzzipftFIXnVCQWM-1" value="" style="endArrow=none;html=1;rounded=0;startArrow=oval;startFill=1;startSize=10;" parent="1" edge="1">
          <mxGeometry width="50" height="50" relative="1" as="geometry">
            <mxPoint x="4166" y="1779.3400000000001" as="sourcePoint" />
            <mxPoint x="4166" y="1549.67" as="targetPoint" />
          </mxGeometry>
        </mxCell>
        <mxCell id="qcByjzzipftFIXnVCQWM-5" style="edgeStyle=orthogonalEdgeStyle;rounded=0;orthogonalLoop=1;jettySize=auto;html=1;entryX=0;entryY=0.5;entryDx=0;entryDy=0;" parent="1" source="qcByjzzipftFIXnVCQWM-2" target="qcByjzzipftFIXnVCQWM-4" edge="1">
          <mxGeometry relative="1" as="geometry" />
        </mxCell>
        <mxCell id="qcByjzzipftFIXnVCQWM-2" value="&lt;div&gt;&lt;b&gt;ADDRESS&lt;/b&gt;&lt;/div&gt;&lt;div&gt;&lt;b&gt;EXTRACTOR&lt;br&gt;&lt;/b&gt;&lt;/div&gt;" style="whiteSpace=wrap;html=1;aspect=fixed;fillColor=#dae8fc;strokeColor=none;" parent="1" vertex="1">
          <mxGeometry x="4246" y="1509.67" width="80" height="80" as="geometry" />
        </mxCell>
        <mxCell id="qcByjzzipftFIXnVCQWM-3" value="" style="endArrow=classic;html=1;rounded=0;entryX=0;entryY=0.5;entryDx=0;entryDy=0;" parent="1" target="qcByjzzipftFIXnVCQWM-2" edge="1">
          <mxGeometry width="50" height="50" relative="1" as="geometry">
            <mxPoint x="4166" y="1550" as="sourcePoint" />
            <mxPoint x="4196" y="1600" as="targetPoint" />
          </mxGeometry>
        </mxCell>
        <mxCell id="ZMDTc-KTuDpF_UWatmGV-15" style="edgeStyle=orthogonalEdgeStyle;rounded=0;orthogonalLoop=1;jettySize=auto;html=1;entryX=0.309;entryY=1.007;entryDx=0;entryDy=0;entryPerimeter=0;" parent="1" source="qcByjzzipftFIXnVCQWM-4" target="0hPXFLh1vfFSdtqoii6U-7" edge="1">
          <mxGeometry relative="1" as="geometry">
            <mxPoint x="4986" y="1550" as="targetPoint" />
            <Array as="points">
              <mxPoint x="4866" y="1550" />
            </Array>
          </mxGeometry>
        </mxCell>
        <mxCell id="qcByjzzipftFIXnVCQWM-4" value="&lt;b&gt;WR_ADDR&lt;/b&gt;" style="whiteSpace=wrap;html=1;aspect=fixed;fillColor=#e1d5e7;strokeColor=none;" parent="1" vertex="1">
          <mxGeometry x="4656" y="1509.67" width="80" height="80" as="geometry" />
        </mxCell>
        <mxCell id="qcByjzzipftFIXnVCQWM-6" value="32" style="text;html=1;resizable=0;autosize=1;align=center;verticalAlign=middle;points=[];fillColor=none;strokeColor=none;rounded=0;fontSize=12;" parent="1" vertex="1">
          <mxGeometry x="4186" y="1529.67" width="30" height="20" as="geometry" />
        </mxCell>
        <mxCell id="qcByjzzipftFIXnVCQWM-7" value="" style="endArrow=none;html=1;rounded=0;fontSize=12;" parent="1" edge="1">
          <mxGeometry width="50" height="50" relative="1" as="geometry">
            <mxPoint x="4197" y="1554.67" as="sourcePoint" />
            <mxPoint x="4207" y="1544.67" as="targetPoint" />
          </mxGeometry>
        </mxCell>
        <mxCell id="qcByjzzipftFIXnVCQWM-8" value="32" style="text;html=1;resizable=0;autosize=1;align=center;verticalAlign=middle;points=[];fillColor=none;strokeColor=none;rounded=0;fontSize=12;" parent="1" vertex="1">
          <mxGeometry x="4566" y="1529.67" width="30" height="20" as="geometry" />
        </mxCell>
        <mxCell id="qcByjzzipftFIXnVCQWM-9" value="" style="endArrow=none;html=1;rounded=0;fontSize=12;" parent="1" edge="1">
          <mxGeometry width="50" height="50" relative="1" as="geometry">
            <mxPoint x="4577" y="1554.67" as="sourcePoint" />
            <mxPoint x="4587" y="1544.67" as="targetPoint" />
          </mxGeometry>
        </mxCell>
        <mxCell id="qcByjzzipftFIXnVCQWM-10" value="" style="endArrow=classic;html=1;rounded=0;entryX=0.5;entryY=1;entryDx=0;entryDy=0;" parent="1" target="qcByjzzipftFIXnVCQWM-2" edge="1">
          <mxGeometry width="50" height="50" relative="1" as="geometry">
            <mxPoint x="4286" y="1640" as="sourcePoint" />
            <mxPoint x="4446" y="1600" as="targetPoint" />
          </mxGeometry>
        </mxCell>
        <mxCell id="qcByjzzipftFIXnVCQWM-11" value="&#39;0&#39; * 27" style="text;html=1;strokeColor=none;fillColor=none;align=center;verticalAlign=middle;whiteSpace=wrap;rounded=0;" parent="1" vertex="1">
          <mxGeometry x="4256" y="1639.67" width="60" height="30" as="geometry" />
        </mxCell>
        <mxCell id="qcByjzzipftFIXnVCQWM-12" value="" style="endArrow=oval;html=1;rounded=0;fillColor=#0050ef;strokeColor=#001DBC;endFill=1;startSize=7;endSize=10;" parent="1" edge="1">
          <mxGeometry width="50" height="50" relative="1" as="geometry">
            <mxPoint x="4716" y="1639" as="sourcePoint" />
            <mxPoint x="4764" y="1639" as="targetPoint" />
          </mxGeometry>
        </mxCell>
        <mxCell id="qcByjzzipftFIXnVCQWM-13" value="" style="endArrow=classic;html=1;rounded=0;fillColor=#0050ef;strokeColor=#001DBC;" parent="1" edge="1">
          <mxGeometry width="50" height="50" relative="1" as="geometry">
            <mxPoint x="4716" y="1639.67" as="sourcePoint" />
            <mxPoint x="4716" y="1589.67" as="targetPoint" />
          </mxGeometry>
        </mxCell>
        <mxCell id="qcByjzzipftFIXnVCQWM-14" value="&lt;font style=&quot;font-size: 18px;&quot;&gt;EN&lt;/font&gt;" style="edgeLabel;html=1;align=center;verticalAlign=middle;resizable=0;points=[];" parent="qcByjzzipftFIXnVCQWM-13" vertex="1" connectable="0">
          <mxGeometry x="-0.1" y="2" relative="1" as="geometry">
            <mxPoint x="1" as="offset" />
          </mxGeometry>
        </mxCell>
        <mxCell id="qcByjzzipftFIXnVCQWM-15" value="" style="endArrow=classic;html=1;rounded=0;entryX=0.375;entryY=1.016;entryDx=0;entryDy=0;entryPerimeter=0;" parent="1" edge="1">
          <mxGeometry width="50" height="50" relative="1" as="geometry">
            <mxPoint x="4583.5" y="1634.97" as="sourcePoint" />
            <mxPoint x="4673.5" y="1589.6699999999998" as="targetPoint" />
            <Array as="points">
              <mxPoint x="4673.5" y="1635.3" />
            </Array>
          </mxGeometry>
        </mxCell>
        <mxCell id="qcByjzzipftFIXnVCQWM-16" value="&lt;font style=&quot;font-size: 18px;&quot;&gt;SET&lt;/font&gt;" style="edgeLabel;html=1;align=center;verticalAlign=middle;resizable=0;points=[];" parent="qcByjzzipftFIXnVCQWM-15" vertex="1" connectable="0">
          <mxGeometry x="-0.2356" y="-1" relative="1" as="geometry">
            <mxPoint as="offset" />
          </mxGeometry>
        </mxCell>
        <mxCell id="qcByjzzipftFIXnVCQWM-17" value="&lt;font style=&quot;font-size: 18px;&quot;&gt;&#39;0&#39;&lt;/font&gt;" style="text;html=1;resizable=0;autosize=1;align=center;verticalAlign=middle;points=[];fillColor=none;strokeColor=none;rounded=0;fontSize=12;" parent="1" vertex="1">
          <mxGeometry x="4548.5" y="1614.97" width="40" height="40" as="geometry" />
        </mxCell>
        <mxCell id="ZMDTc-KTuDpF_UWatmGV-1" value="" style="endArrow=none;html=1;rounded=0;fillColor=#0050ef;strokeColor=#001DBC;" parent="1" edge="1">
          <mxGeometry width="50" height="50" relative="1" as="geometry">
            <mxPoint x="4096" y="2080" as="sourcePoint" />
            <mxPoint x="4597" y="2080" as="targetPoint" />
          </mxGeometry>
        </mxCell>
        <mxCell id="ZMDTc-KTuDpF_UWatmGV-2" value="" style="endArrow=classic;html=1;rounded=0;entryX=0.196;entryY=1.007;entryDx=0;entryDy=0;entryPerimeter=0;fillColor=#0050ef;strokeColor=#001DBC;" parent="1" edge="1">
          <mxGeometry width="50" height="50" relative="1" as="geometry">
            <mxPoint x="4036" y="2090" as="sourcePoint" />
            <mxPoint x="4036" y="1384.67" as="targetPoint" />
          </mxGeometry>
        </mxCell>
        <mxCell id="ZMDTc-KTuDpF_UWatmGV-3" value="" style="endArrow=classic;html=1;rounded=0;entryX=0.5;entryY=1;entryDx=0;entryDy=0;fillColor=#0050ef;strokeColor=#001DBC;" parent="1" target="7qjSa7UYPRbw4jlqZfWL-126" edge="1">
          <mxGeometry width="50" height="50" relative="1" as="geometry">
            <mxPoint x="4096" y="2080" as="sourcePoint" />
            <mxPoint x="4086" y="1930" as="targetPoint" />
          </mxGeometry>
        </mxCell>
        <mxCell id="ZMDTc-KTuDpF_UWatmGV-4" value="" style="endArrow=none;html=1;rounded=0;fillColor=#0050ef;strokeColor=#001DBC;" parent="1" edge="1">
          <mxGeometry width="50" height="50" relative="1" as="geometry">
            <mxPoint x="4036" y="2090" as="sourcePoint" />
            <mxPoint x="4590" y="2090" as="targetPoint" />
          </mxGeometry>
        </mxCell>
        <mxCell id="ZMDTc-KTuDpF_UWatmGV-5" value="EN" style="text;html=1;strokeColor=none;fillColor=none;align=center;verticalAlign=middle;whiteSpace=wrap;rounded=0;" parent="1" vertex="1">
          <mxGeometry x="4021" y="1359.67" width="30" height="20" as="geometry" />
        </mxCell>
        <mxCell id="ZMDTc-KTuDpF_UWatmGV-6" value="RW" style="text;html=1;strokeColor=none;fillColor=none;align=center;verticalAlign=middle;whiteSpace=wrap;rounded=0;" parent="1" vertex="1">
          <mxGeometry x="4081" y="1355" width="30" height="25.33" as="geometry" />
        </mxCell>
        <mxCell id="ZMDTc-KTuDpF_UWatmGV-7" value="DRAM_RW" style="text;html=1;strokeColor=none;fillColor=none;align=center;verticalAlign=middle;whiteSpace=wrap;rounded=0;rotation=-90;" parent="1" vertex="1">
          <mxGeometry x="4051" y="1519.67" width="60" height="30" as="geometry" />
        </mxCell>
        <mxCell id="ZMDTc-KTuDpF_UWatmGV-8" value="DRAM_Enable" style="text;html=1;strokeColor=none;fillColor=none;align=center;verticalAlign=middle;whiteSpace=wrap;rounded=0;rotation=-90;" parent="1" vertex="1">
          <mxGeometry x="3991" y="1510.17" width="60" height="30" as="geometry" />
        </mxCell>
        <mxCell id="ZMDTc-KTuDpF_UWatmGV-9" value="" style="endArrow=none;html=1;rounded=0;entryX=0.722;entryY=1.024;entryDx=0;entryDy=0;entryPerimeter=0;fillColor=#0050ef;strokeColor=#001DBC;endFill=0;" parent="1" target="7qjSa7UYPRbw4jlqZfWL-126" edge="1">
          <mxGeometry width="50" height="50" relative="1" as="geometry">
            <mxPoint x="4140" y="2111" as="sourcePoint" />
            <mxPoint x="4216" y="1500" as="targetPoint" />
          </mxGeometry>
        </mxCell>
        <mxCell id="ZMDTc-KTuDpF_UWatmGV-10" value="" style="endArrow=classic;html=1;rounded=0;fillColor=#0050ef;strokeColor=#001DBC;endFill=1;" parent="1" edge="1">
          <mxGeometry width="50" height="50" relative="1" as="geometry">
            <mxPoint x="4140" y="2110" as="sourcePoint" />
            <mxPoint x="4598" y="2110" as="targetPoint" />
          </mxGeometry>
        </mxCell>
        <mxCell id="ZMDTc-KTuDpF_UWatmGV-12" value="DRAM_Ready" style="text;html=1;strokeColor=none;fillColor=none;align=center;verticalAlign=middle;whiteSpace=wrap;rounded=0;rotation=90;" parent="1" vertex="1">
          <mxGeometry x="4126" y="1474.8400000000001" width="60" height="30" as="geometry" />
        </mxCell>
        <mxCell id="ZMDTc-KTuDpF_UWatmGV-13" value="s_mux_lmd" style="text;html=1;strokeColor=none;fillColor=none;align=center;verticalAlign=middle;whiteSpace=wrap;rounded=0;rotation=-90;" parent="1" vertex="1">
          <mxGeometry x="4416" y="1408.67" width="60" height="30" as="geometry" />
        </mxCell>
        <mxCell id="ZMDTc-KTuDpF_UWatmGV-17" value="&lt;font style=&quot;font-size: 18px;&quot;&gt;&lt;b&gt;ID&lt;/b&gt;&lt;/font&gt;" style="ellipse;shape=cloud;whiteSpace=wrap;html=1;fillColor=#e3c800;fontColor=#000000;strokeColor=#B09500;" parent="1" vertex="1">
          <mxGeometry x="5286" y="1351.75" width="120" height="80" as="geometry" />
        </mxCell>
        <mxCell id="ZMDTc-KTuDpF_UWatmGV-18" value="&lt;b&gt;&lt;font style=&quot;font-size: 18px;&quot;&gt;EXE&lt;/font&gt;&lt;/b&gt;" style="ellipse;shape=cloud;whiteSpace=wrap;html=1;fillColor=#e3c800;fontColor=#000000;strokeColor=#B09500;" parent="1" vertex="1">
          <mxGeometry x="5426" y="1353.25" width="120" height="80" as="geometry" />
        </mxCell>
        <mxCell id="ZMDTc-KTuDpF_UWatmGV-19" value="" style="endArrow=classic;html=1;rounded=0;startArrow=oval;startFill=1;startSize=10;" parent="1" edge="1">
          <mxGeometry width="50" height="50" relative="1" as="geometry">
            <mxPoint x="5356" y="1324.67" as="sourcePoint" />
            <mxPoint x="5496" y="1364.67" as="targetPoint" />
            <Array as="points">
              <mxPoint x="5496" y="1324.67" />
            </Array>
          </mxGeometry>
        </mxCell>
        <mxCell id="qLmmuz4XGK9rXVAtsMp2-1" value="" style="endArrow=none;html=1;rounded=0;exitX=1;exitY=0.5;exitDx=0;exitDy=0;" parent="1" source="uQGv06zmIQrsjEMMD4d0-1" edge="1">
          <mxGeometry width="50" height="50" relative="1" as="geometry">
            <mxPoint x="540" y="1510" as="sourcePoint" />
            <mxPoint x="550" y="1510" as="targetPoint" />
          </mxGeometry>
        </mxCell>
        <mxCell id="qLmmuz4XGK9rXVAtsMp2-2" value="" style="endArrow=none;html=1;rounded=0;exitX=1;exitY=0.5;exitDx=0;exitDy=0;" parent="1" source="uQGv06zmIQrsjEMMD4d0-4" edge="1">
          <mxGeometry width="50" height="50" relative="1" as="geometry">
            <mxPoint x="640" y="1260" as="sourcePoint" />
            <mxPoint x="720" y="1230" as="targetPoint" />
          </mxGeometry>
        </mxCell>
        <mxCell id="qLmmuz4XGK9rXVAtsMp2-3" value="" style="endArrow=none;html=1;rounded=0;startArrow=oval;startFill=1;" parent="1" edge="1">
          <mxGeometry width="50" height="50" relative="1" as="geometry">
            <mxPoint x="1210" y="1144" as="sourcePoint" />
            <mxPoint x="1210" y="1432" as="targetPoint" />
          </mxGeometry>
        </mxCell>
        <mxCell id="qLmmuz4XGK9rXVAtsMp2-4" value="" style="endArrow=none;html=1;rounded=0;" parent="1" edge="1">
          <mxGeometry width="50" height="50" relative="1" as="geometry">
            <mxPoint x="1310" y="1143.7250000000001" as="sourcePoint" />
            <mxPoint x="1210" y="1144" as="targetPoint" />
          </mxGeometry>
        </mxCell>
        <mxCell id="qLmmuz4XGK9rXVAtsMp2-5" value="" style="endArrow=none;html=1;rounded=0;startArrow=oval;startFill=1;" parent="1" edge="1">
          <mxGeometry width="50" height="50" relative="1" as="geometry">
            <mxPoint x="1540" y="1187" as="sourcePoint" />
            <mxPoint x="1480" y="1187" as="targetPoint" />
          </mxGeometry>
        </mxCell>
        <mxCell id="X-g61fbOzxmkUM89SYZy-9" value="" style="rounded=0;whiteSpace=wrap;html=1;fillStyle=dashed;fillColor=#E22020;strokeColor=#56517e;" parent="1" vertex="1">
          <mxGeometry x="2462.5" y="2240" width="475" height="349.67" as="geometry" />
        </mxCell>
        <mxCell id="X-g61fbOzxmkUM89SYZy-10" value="&lt;font style=&quot;font-size: 28px;&quot;&gt;ADD EXTERNAL COMPONENTS&amp;nbsp; LIKE FORW &amp;amp; COUNTERS&lt;br&gt;&lt;/font&gt;" style="text;html=1;strokeColor=none;fillColor=none;align=center;verticalAlign=middle;whiteSpace=wrap;rounded=0;" parent="1" vertex="1">
          <mxGeometry x="2450" y="2380.33" width="500" height="30" as="geometry" />
        </mxCell>
        <mxCell id="TsRPudFhaTuacCyqWK5w-3" value="" style="endArrow=none;html=1;rounded=0;endFill=0;startSize=9;endSize=9;startArrow=none;startFill=0;" parent="1" target="TsRPudFhaTuacCyqWK5w-2" edge="1">
          <mxGeometry width="50" height="50" relative="1" as="geometry">
            <mxPoint x="1010" y="560" as="sourcePoint" />
            <mxPoint x="2245" y="560" as="targetPoint" />
          </mxGeometry>
        </mxCell>
        <mxCell id="TsRPudFhaTuacCyqWK5w-2" value="NPC" style="whiteSpace=wrap;html=1;aspect=fixed;fillColor=#e1d5e7;strokeColor=none;" parent="1" vertex="1">
          <mxGeometry x="1850" y="519.6700000000001" width="80" height="80" as="geometry" />
        </mxCell>
        <mxCell id="TsRPudFhaTuacCyqWK5w-4" value="SET" style="endArrow=classic;html=1;rounded=0;fontSize=12;entryX=0.75;entryY=1;entryDx=0;entryDy=0;" parent="1" edge="1">
          <mxGeometry x="-0.6226" width="50" height="50" relative="1" as="geometry">
            <mxPoint x="1970" y="634.6700000000001" as="sourcePoint" />
            <mxPoint x="1900" y="599.6700000000001" as="targetPoint" />
            <Array as="points">
              <mxPoint x="1900" y="634.6700000000001" />
            </Array>
            <mxPoint as="offset" />
          </mxGeometry>
        </mxCell>
        <mxCell id="TsRPudFhaTuacCyqWK5w-5" value="&#39;0&#39;" style="text;html=1;resizable=0;autosize=1;align=center;verticalAlign=middle;points=[];fillColor=none;strokeColor=none;rounded=0;fontSize=12;" parent="1" vertex="1">
          <mxGeometry x="1965" y="625" width="30" height="20" as="geometry" />
        </mxCell>
        <mxCell id="TsRPudFhaTuacCyqWK5w-6" value="" style="endArrow=classic;html=1;rounded=0;fillColor=#0050ef;strokeColor=#001DBC;" parent="1" edge="1">
          <mxGeometry width="50" height="50" relative="1" as="geometry">
            <mxPoint x="1880" y="790" as="sourcePoint" />
            <mxPoint x="1880" y="600" as="targetPoint" />
          </mxGeometry>
        </mxCell>
        <mxCell id="TsRPudFhaTuacCyqWK5w-9" value="EN" style="edgeLabel;html=1;align=center;verticalAlign=middle;resizable=0;points=[];" parent="TsRPudFhaTuacCyqWK5w-6" vertex="1" connectable="0">
          <mxGeometry x="0.277" y="4" relative="1" as="geometry">
            <mxPoint x="4" y="-44" as="offset" />
          </mxGeometry>
        </mxCell>
        <mxCell id="TsRPudFhaTuacCyqWK5w-7" value="" style="endArrow=none;html=1;rounded=0;fillColor=#0050ef;strokeColor=#001DBC;" parent="1" edge="1">
          <mxGeometry width="50" height="50" relative="1" as="geometry">
            <mxPoint x="1880" y="790" as="sourcePoint" />
            <mxPoint x="1810" y="790" as="targetPoint" />
          </mxGeometry>
        </mxCell>
        <mxCell id="TsRPudFhaTuacCyqWK5w-8" value="" style="endArrow=none;html=1;rounded=0;exitX=0.499;exitY=0.116;exitDx=0;exitDy=0;exitPerimeter=0;fillColor=#0050ef;strokeColor=#001DBC;" parent="1" source="uQGv06zmIQrsjEMMD4d0-69" edge="1">
          <mxGeometry width="50" height="50" relative="1" as="geometry">
            <mxPoint x="1860" y="820" as="sourcePoint" />
            <mxPoint x="1810" y="790" as="targetPoint" />
          </mxGeometry>
        </mxCell>
        <mxCell id="TsRPudFhaTuacCyqWK5w-10" value="" style="endArrow=none;html=1;rounded=0;startArrow=oval;startFill=1;startSize=10;" parent="1" edge="1">
          <mxGeometry width="50" height="50" relative="1" as="geometry">
            <mxPoint x="1010" y="560" as="sourcePoint" />
            <mxPoint x="1010" y="360" as="targetPoint" />
          </mxGeometry>
        </mxCell>
        <mxCell id="TsRPudFhaTuacCyqWK5w-28" style="edgeStyle=orthogonalEdgeStyle;rounded=0;orthogonalLoop=1;jettySize=auto;html=1;entryX=0;entryY=0.5;entryDx=0;entryDy=0;" parent="1" source="TsRPudFhaTuacCyqWK5w-17" target="7qjSa7UYPRbw4jlqZfWL-16" edge="1">
          <mxGeometry relative="1" as="geometry" />
        </mxCell>
        <mxCell id="TsRPudFhaTuacCyqWK5w-17" value="" style="shape=trapezoid;perimeter=trapezoidPerimeter;whiteSpace=wrap;html=1;fixedSize=1;fontSize=12;rotation=90;fillColor=#fad9d5;strokeColor=none;" parent="1" vertex="1">
          <mxGeometry x="2630.5" y="1584.67" width="185" height="60" as="geometry" />
        </mxCell>
        <mxCell id="TsRPudFhaTuacCyqWK5w-18" value="10" style="text;html=1;align=center;verticalAlign=middle;resizable=0;points=[];autosize=1;strokeColor=none;fillColor=none;fontSize=12;" parent="1" vertex="1">
          <mxGeometry x="2703" y="1624.97" width="30" height="20" as="geometry" />
        </mxCell>
        <mxCell id="TsRPudFhaTuacCyqWK5w-19" value="01" style="text;html=1;align=center;verticalAlign=middle;resizable=0;points=[];autosize=1;strokeColor=none;fillColor=none;fontSize=12;" parent="1" vertex="1">
          <mxGeometry x="2703" y="1589.67" width="30" height="20" as="geometry" />
        </mxCell>
        <mxCell id="TsRPudFhaTuacCyqWK5w-20" value="00" style="text;html=1;align=center;verticalAlign=middle;resizable=0;points=[];autosize=1;strokeColor=none;fillColor=none;fontSize=12;" parent="1" vertex="1">
          <mxGeometry x="2703" y="1549.67" width="30" height="20" as="geometry" />
        </mxCell>
        <mxCell id="TsRPudFhaTuacCyqWK5w-21" value="11" style="text;html=1;align=center;verticalAlign=middle;resizable=0;points=[];autosize=1;strokeColor=none;fillColor=none;fontSize=12;" parent="1" vertex="1">
          <mxGeometry x="2703" y="1659.67" width="30" height="20" as="geometry" />
        </mxCell>
        <mxCell id="TsRPudFhaTuacCyqWK5w-22" value="" style="endArrow=oval;html=1;rounded=0;startArrow=none;startFill=0;endSize=10;startSize=10;endFill=1;" parent="1" edge="1">
          <mxGeometry width="50" height="50" relative="1" as="geometry">
            <mxPoint x="2318" y="1600" as="sourcePoint" />
            <mxPoint x="2318" y="1370" as="targetPoint" />
          </mxGeometry>
        </mxCell>
        <mxCell id="TsRPudFhaTuacCyqWK5w-23" value="" style="endArrow=classic;html=1;rounded=0;endFill=1;" parent="1" edge="1">
          <mxGeometry width="50" height="50" relative="1" as="geometry">
            <mxPoint x="2318" y="1600" as="sourcePoint" />
            <mxPoint x="2688" y="1600" as="targetPoint" />
          </mxGeometry>
        </mxCell>
        <mxCell id="TsRPudFhaTuacCyqWK5w-24" value="" style="endArrow=oval;html=1;rounded=0;endFill=1;endSize=10;" parent="1" edge="1">
          <mxGeometry width="50" height="50" relative="1" as="geometry">
            <mxPoint x="2358" y="1640" as="sourcePoint" />
            <mxPoint x="2358" y="1420" as="targetPoint" />
          </mxGeometry>
        </mxCell>
        <mxCell id="TsRPudFhaTuacCyqWK5w-26" value="" style="endArrow=classic;html=1;rounded=0;" parent="1" edge="1">
          <mxGeometry width="50" height="50" relative="1" as="geometry">
            <mxPoint x="2358" y="1640" as="sourcePoint" />
            <mxPoint x="2688" y="1640" as="targetPoint" />
          </mxGeometry>
        </mxCell>
        <mxCell id="TsRPudFhaTuacCyqWK5w-27" value="" style="edgeStyle=segmentEdgeStyle;endArrow=classic;html=1;curved=0;rounded=0;endSize=6;startSize=10;entryX=0.853;entryY=1.083;entryDx=0;entryDy=0;entryPerimeter=0;startArrow=oval;startFill=1;" parent="1" target="TsRPudFhaTuacCyqWK5w-17" edge="1">
          <mxGeometry width="50" height="50" relative="1" as="geometry">
            <mxPoint x="2588" y="1640" as="sourcePoint" />
            <mxPoint x="2678" y="1680" as="targetPoint" />
            <Array as="points">
              <mxPoint x="2588" y="1680" />
            </Array>
          </mxGeometry>
        </mxCell>
        <mxCell id="0hPXFLh1vfFSdtqoii6U-11" style="edgeStyle=orthogonalEdgeStyle;rounded=0;orthogonalLoop=1;jettySize=auto;html=1;endArrow=none;endFill=0;" parent="1" source="0hPXFLh1vfFSdtqoii6U-2" edge="1">
          <mxGeometry relative="1" as="geometry">
            <mxPoint x="5096" y="1400" as="targetPoint" />
            <Array as="points">
              <mxPoint x="5096" y="1780" />
              <mxPoint x="5096" y="1626" />
            </Array>
          </mxGeometry>
        </mxCell>
        <mxCell id="0hPXFLh1vfFSdtqoii6U-2" value="&lt;font size=&quot;1&quot;&gt;&lt;b style=&quot;font-size: 18px;&quot;&gt;=&lt;/b&gt;&lt;/font&gt;" style="whiteSpace=wrap;html=1;aspect=fixed;fillColor=#dae8fc;strokeColor=none;" parent="1" vertex="1">
          <mxGeometry x="4856" y="1740" width="80" height="80" as="geometry" />
        </mxCell>
        <mxCell id="0hPXFLh1vfFSdtqoii6U-3" value="" style="endArrow=classic;html=1;rounded=0;entryX=0.5;entryY=1;entryDx=0;entryDy=0;" parent="1" target="0hPXFLh1vfFSdtqoii6U-2" edge="1">
          <mxGeometry width="50" height="50" relative="1" as="geometry">
            <mxPoint x="4896" y="1850" as="sourcePoint" />
            <mxPoint x="4896" y="1840" as="targetPoint" />
          </mxGeometry>
        </mxCell>
        <mxCell id="0hPXFLh1vfFSdtqoii6U-4" value="JTYPE_JAL" style="text;html=1;strokeColor=none;fillColor=none;align=center;verticalAlign=middle;whiteSpace=wrap;rounded=0;" parent="1" vertex="1">
          <mxGeometry x="4866" y="1850" width="60" height="30" as="geometry" />
        </mxCell>
        <mxCell id="0hPXFLh1vfFSdtqoii6U-5" value="6" style="text;html=1;resizable=0;autosize=1;align=center;verticalAlign=middle;points=[];fillColor=none;strokeColor=none;rounded=0;fontSize=12;" parent="1" vertex="1">
          <mxGeometry x="4796" y="1755" width="30" height="30" as="geometry" />
        </mxCell>
        <mxCell id="0hPXFLh1vfFSdtqoii6U-6" value="" style="endArrow=none;html=1;rounded=0;fontSize=12;" parent="1" edge="1">
          <mxGeometry width="50" height="50" relative="1" as="geometry">
            <mxPoint x="4807" y="1785" as="sourcePoint" />
            <mxPoint x="4817" y="1775" as="targetPoint" />
          </mxGeometry>
        </mxCell>
        <mxCell id="0hPXFLh1vfFSdtqoii6U-44" style="edgeStyle=orthogonalEdgeStyle;rounded=0;orthogonalLoop=1;jettySize=auto;html=1;entryX=0.539;entryY=1.014;entryDx=0;entryDy=0;entryPerimeter=0;" parent="1" source="0hPXFLh1vfFSdtqoii6U-7" target="ZMDTc-KTuDpF_UWatmGV-17" edge="1">
          <mxGeometry relative="1" as="geometry" />
        </mxCell>
        <mxCell id="0hPXFLh1vfFSdtqoii6U-7" value="" style="shape=trapezoid;perimeter=trapezoidPerimeter;whiteSpace=wrap;html=1;fixedSize=1;fontSize=12;rotation=90;fillColor=#fad9d5;strokeColor=none;" parent="1" vertex="1">
          <mxGeometry x="4961" y="1544.67" width="130" height="60" as="geometry" />
        </mxCell>
        <mxCell id="0hPXFLh1vfFSdtqoii6U-8" value="" style="endArrow=classic;html=1;rounded=0;entryX=0.697;entryY=0.999;entryDx=0;entryDy=0;entryPerimeter=0;" parent="1" target="0hPXFLh1vfFSdtqoii6U-7" edge="1">
          <mxGeometry width="50" height="50" relative="1" as="geometry">
            <mxPoint x="4916" y="1600.0544993639837" as="sourcePoint" />
            <mxPoint x="4936" y="1600" as="targetPoint" />
          </mxGeometry>
        </mxCell>
        <mxCell id="0hPXFLh1vfFSdtqoii6U-13" value="31" style="text;html=1;strokeColor=none;fillColor=none;align=center;verticalAlign=middle;whiteSpace=wrap;rounded=0;" parent="1" vertex="1">
          <mxGeometry x="4896" y="1584.67" width="20" height="30" as="geometry" />
        </mxCell>
        <mxCell id="0hPXFLh1vfFSdtqoii6U-14" value="0" style="text;html=1;strokeColor=none;fillColor=none;align=center;verticalAlign=middle;whiteSpace=wrap;rounded=0;" parent="1" vertex="1">
          <mxGeometry x="5006" y="1539.67" width="10" height="20" as="geometry" />
        </mxCell>
        <mxCell id="0hPXFLh1vfFSdtqoii6U-15" value="1" style="text;html=1;strokeColor=none;fillColor=none;align=center;verticalAlign=middle;whiteSpace=wrap;rounded=0;" parent="1" vertex="1">
          <mxGeometry x="5006" y="1589.67" width="10" height="20" as="geometry" />
        </mxCell>
        <mxCell id="0hPXFLh1vfFSdtqoii6U-47" style="edgeStyle=orthogonalEdgeStyle;rounded=0;orthogonalLoop=1;jettySize=auto;html=1;endArrow=none;endFill=0;" parent="1" source="0hPXFLh1vfFSdtqoii6U-16" edge="1">
          <mxGeometry relative="1" as="geometry">
            <mxPoint x="5356" y="1324.67" as="targetPoint" />
          </mxGeometry>
        </mxCell>
        <mxCell id="0hPXFLh1vfFSdtqoii6U-16" value="" style="shape=trapezoid;perimeter=trapezoidPerimeter;whiteSpace=wrap;html=1;fixedSize=1;fontSize=12;rotation=90;fillColor=#fad9d5;strokeColor=none;" parent="1" vertex="1">
          <mxGeometry x="4961" y="1294.67" width="130" height="60" as="geometry" />
        </mxCell>
        <mxCell id="0hPXFLh1vfFSdtqoii6U-17" value="0" style="text;html=1;strokeColor=none;fillColor=none;align=center;verticalAlign=middle;whiteSpace=wrap;rounded=0;" parent="1" vertex="1">
          <mxGeometry x="5006" y="1289.67" width="10" height="20" as="geometry" />
        </mxCell>
        <mxCell id="0hPXFLh1vfFSdtqoii6U-18" value="1" style="text;html=1;strokeColor=none;fillColor=none;align=center;verticalAlign=middle;whiteSpace=wrap;rounded=0;" parent="1" vertex="1">
          <mxGeometry x="5006" y="1339.67" width="10" height="20" as="geometry" />
        </mxCell>
        <mxCell id="0hPXFLh1vfFSdtqoii6U-19" value="" style="endArrow=none;html=1;rounded=0;" parent="1" edge="1">
          <mxGeometry width="50" height="50" relative="1" as="geometry">
            <mxPoint x="5026" y="1400" as="sourcePoint" />
            <mxPoint x="5096" y="1400" as="targetPoint" />
          </mxGeometry>
        </mxCell>
        <mxCell id="0hPXFLh1vfFSdtqoii6U-20" value="" style="endArrow=classic;html=1;rounded=0;entryX=1;entryY=0.5;entryDx=0;entryDy=0;" parent="1" target="0hPXFLh1vfFSdtqoii6U-16" edge="1">
          <mxGeometry width="50" height="50" relative="1" as="geometry">
            <mxPoint x="5026" y="1400" as="sourcePoint" />
            <mxPoint x="5096" y="1400" as="targetPoint" />
          </mxGeometry>
        </mxCell>
        <mxCell id="0hPXFLh1vfFSdtqoii6U-21" value="" style="endArrow=oval;html=1;rounded=0;startArrow=none;startFill=0;endFill=1;endSize=10;" parent="1" edge="1">
          <mxGeometry width="50" height="50" relative="1" as="geometry">
            <mxPoint x="5026" y="1649.67" as="sourcePoint" />
            <mxPoint x="5096" y="1649.67" as="targetPoint" />
          </mxGeometry>
        </mxCell>
        <mxCell id="0hPXFLh1vfFSdtqoii6U-22" value="" style="endArrow=classic;html=1;rounded=0;entryX=1;entryY=0.5;entryDx=0;entryDy=0;" parent="1" edge="1">
          <mxGeometry width="50" height="50" relative="1" as="geometry">
            <mxPoint x="5026" y="1649.67" as="sourcePoint" />
            <mxPoint x="5026" y="1629.67" as="targetPoint" />
          </mxGeometry>
        </mxCell>
        <mxCell id="0hPXFLh1vfFSdtqoii6U-42" style="edgeStyle=orthogonalEdgeStyle;rounded=0;orthogonalLoop=1;jettySize=auto;html=1;entryX=0;entryY=0.5;entryDx=0;entryDy=0;" parent="1" source="0hPXFLh1vfFSdtqoii6U-23" target="0hPXFLh1vfFSdtqoii6U-30" edge="1">
          <mxGeometry relative="1" as="geometry" />
        </mxCell>
        <mxCell id="0hPXFLh1vfFSdtqoii6U-23" value="&lt;b&gt;NPC&lt;/b&gt;" style="whiteSpace=wrap;html=1;aspect=fixed;fillColor=#e1d5e7;strokeColor=none;" parent="1" vertex="1">
          <mxGeometry x="3380" y="565.0000000000002" width="80" height="80" as="geometry" />
        </mxCell>
        <mxCell id="0hPXFLh1vfFSdtqoii6U-24" value="" style="endArrow=none;html=1;rounded=0;fillColor=#0050ef;strokeColor=#001DBC;" parent="1" edge="1">
          <mxGeometry width="50" height="50" relative="1" as="geometry">
            <mxPoint x="3430" y="694.3299999999999" as="sourcePoint" />
            <mxPoint x="3549" y="694.3299999999999" as="targetPoint" />
          </mxGeometry>
        </mxCell>
        <mxCell id="0hPXFLh1vfFSdtqoii6U-25" value="" style="endArrow=classic;html=1;rounded=0;fillColor=#0050ef;strokeColor=#001DBC;" parent="1" edge="1">
          <mxGeometry width="50" height="50" relative="1" as="geometry">
            <mxPoint x="3430" y="694.3299999999999" as="sourcePoint" />
            <mxPoint x="3430" y="644.3299999999999" as="targetPoint" />
          </mxGeometry>
        </mxCell>
        <mxCell id="0hPXFLh1vfFSdtqoii6U-26" value="&lt;font style=&quot;font-size: 18px;&quot;&gt;EN&lt;/font&gt;" style="edgeLabel;html=1;align=center;verticalAlign=middle;resizable=0;points=[];" parent="0hPXFLh1vfFSdtqoii6U-25" vertex="1" connectable="0">
          <mxGeometry x="-0.1" y="2" relative="1" as="geometry">
            <mxPoint x="1" as="offset" />
          </mxGeometry>
        </mxCell>
        <mxCell id="0hPXFLh1vfFSdtqoii6U-27" value="" style="endArrow=classic;html=1;rounded=0;entryX=0.375;entryY=1.016;entryDx=0;entryDy=0;entryPerimeter=0;" parent="1" edge="1">
          <mxGeometry width="50" height="50" relative="1" as="geometry">
            <mxPoint x="3315" y="689.6700000000001" as="sourcePoint" />
            <mxPoint x="3405" y="644.3700000000001" as="targetPoint" />
            <Array as="points">
              <mxPoint x="3405" y="690" />
            </Array>
          </mxGeometry>
        </mxCell>
        <mxCell id="0hPXFLh1vfFSdtqoii6U-28" value="&lt;font style=&quot;font-size: 18px;&quot;&gt;SET&lt;/font&gt;" style="edgeLabel;html=1;align=center;verticalAlign=middle;resizable=0;points=[];" parent="0hPXFLh1vfFSdtqoii6U-27" vertex="1" connectable="0">
          <mxGeometry x="-0.2356" y="-1" relative="1" as="geometry">
            <mxPoint as="offset" />
          </mxGeometry>
        </mxCell>
        <mxCell id="0hPXFLh1vfFSdtqoii6U-29" value="&lt;font style=&quot;font-size: 18px;&quot;&gt;&#39;0&#39;&lt;/font&gt;" style="text;html=1;resizable=0;autosize=1;align=center;verticalAlign=middle;points=[];fillColor=none;strokeColor=none;rounded=0;fontSize=12;" parent="1" vertex="1">
          <mxGeometry x="3280" y="669.6700000000001" width="40" height="40" as="geometry" />
        </mxCell>
        <mxCell id="0hPXFLh1vfFSdtqoii6U-40" style="edgeStyle=orthogonalEdgeStyle;rounded=0;orthogonalLoop=1;jettySize=auto;html=1;endArrow=none;endFill=0;" parent="1" source="0hPXFLh1vfFSdtqoii6U-30" edge="1">
          <mxGeometry relative="1" as="geometry">
            <mxPoint x="4886" y="1360" as="targetPoint" />
          </mxGeometry>
        </mxCell>
        <mxCell id="0hPXFLh1vfFSdtqoii6U-30" value="&lt;b&gt;NPC&lt;/b&gt;" style="whiteSpace=wrap;html=1;aspect=fixed;fillColor=#e1d5e7;strokeColor=none;" parent="1" vertex="1">
          <mxGeometry x="4656" y="565.0000000000002" width="80" height="80" as="geometry" />
        </mxCell>
        <mxCell id="0hPXFLh1vfFSdtqoii6U-31" value="" style="endArrow=classic;html=1;rounded=0;entryX=0.375;entryY=1.016;entryDx=0;entryDy=0;entryPerimeter=0;" parent="1" edge="1">
          <mxGeometry width="50" height="50" relative="1" as="geometry">
            <mxPoint x="4591" y="689.6700000000001" as="sourcePoint" />
            <mxPoint x="4681" y="644.3700000000001" as="targetPoint" />
            <Array as="points">
              <mxPoint x="4681" y="690" />
            </Array>
          </mxGeometry>
        </mxCell>
        <mxCell id="0hPXFLh1vfFSdtqoii6U-32" value="&lt;font style=&quot;font-size: 18px;&quot;&gt;SET&lt;/font&gt;" style="edgeLabel;html=1;align=center;verticalAlign=middle;resizable=0;points=[];" parent="0hPXFLh1vfFSdtqoii6U-31" vertex="1" connectable="0">
          <mxGeometry x="-0.2356" y="-1" relative="1" as="geometry">
            <mxPoint as="offset" />
          </mxGeometry>
        </mxCell>
        <mxCell id="0hPXFLh1vfFSdtqoii6U-33" value="&lt;font style=&quot;font-size: 18px;&quot;&gt;&#39;0&#39;&lt;/font&gt;" style="text;html=1;resizable=0;autosize=1;align=center;verticalAlign=middle;points=[];fillColor=none;strokeColor=none;rounded=0;fontSize=12;" parent="1" vertex="1">
          <mxGeometry x="4556" y="669.6700000000001" width="40" height="40" as="geometry" />
        </mxCell>
        <mxCell id="0hPXFLh1vfFSdtqoii6U-36" value="" style="endArrow=none;html=1;rounded=0;fillColor=#0050ef;strokeColor=#001DBC;" parent="1" edge="1">
          <mxGeometry width="50" height="50" relative="1" as="geometry">
            <mxPoint x="4716" y="665" as="sourcePoint" />
            <mxPoint x="4766" y="665" as="targetPoint" />
          </mxGeometry>
        </mxCell>
        <mxCell id="0hPXFLh1vfFSdtqoii6U-37" value="&lt;font style=&quot;font-size: 18px;&quot;&gt;EN&lt;/font&gt;" style="edgeLabel;html=1;align=center;verticalAlign=middle;resizable=0;points=[];" parent="0hPXFLh1vfFSdtqoii6U-36" vertex="1" connectable="0">
          <mxGeometry x="-0.7167" y="1" relative="1" as="geometry">
            <mxPoint x="13" y="1" as="offset" />
          </mxGeometry>
        </mxCell>
        <mxCell id="0hPXFLh1vfFSdtqoii6U-38" value="" style="endArrow=classic;html=1;rounded=0;entryX=0.75;entryY=1;entryDx=0;entryDy=0;fillColor=#0050ef;strokeColor=#001DBC;" parent="1" edge="1">
          <mxGeometry width="50" height="50" relative="1" as="geometry">
            <mxPoint x="4716" y="665" as="sourcePoint" />
            <mxPoint x="4716" y="645" as="targetPoint" />
          </mxGeometry>
        </mxCell>
        <mxCell id="0hPXFLh1vfFSdtqoii6U-41" value="" style="endArrow=classic;html=1;rounded=0;entryX=0.769;entryY=0.99;entryDx=0;entryDy=0;entryPerimeter=0;" parent="1" target="0hPXFLh1vfFSdtqoii6U-16" edge="1">
          <mxGeometry width="50" height="50" relative="1" as="geometry">
            <mxPoint x="4886" y="1360" as="sourcePoint" />
            <mxPoint x="5006" y="1370" as="targetPoint" />
          </mxGeometry>
        </mxCell>
        <mxCell id="0hPXFLh1vfFSdtqoii6U-43" value="" style="edgeStyle=elbowEdgeStyle;elbow=horizontal;endArrow=classic;html=1;curved=0;rounded=0;endSize=8;startSize=8;entryX=0;entryY=0.5;entryDx=0;entryDy=0;" parent="1" target="0hPXFLh1vfFSdtqoii6U-23" edge="1">
          <mxGeometry width="50" height="50" relative="1" as="geometry">
            <mxPoint x="3300" y="560" as="sourcePoint" />
            <mxPoint x="2800" y="850" as="targetPoint" />
          </mxGeometry>
        </mxCell>
        <mxCell id="0hPXFLh1vfFSdtqoii6U-48" value="" style="endArrow=classic;html=1;rounded=0;entryX=0.583;entryY=0.153;entryDx=0;entryDy=0;entryPerimeter=0;" parent="1" target="ZMDTc-KTuDpF_UWatmGV-17" edge="1">
          <mxGeometry width="50" height="50" relative="1" as="geometry">
            <mxPoint x="5356" y="1330" as="sourcePoint" />
            <mxPoint x="5316" y="1330" as="targetPoint" />
          </mxGeometry>
        </mxCell>
        <mxCell id="wucaELW-UO4wmeecHl3e-1" value="" style="endArrow=none;dashed=1;html=1;dashPattern=1 3;strokeWidth=8;rounded=0;" parent="1" edge="1">
          <mxGeometry width="50" height="50" relative="1" as="geometry">
            <mxPoint x="1140" y="1920" as="sourcePoint" />
            <mxPoint x="1140" y="280" as="targetPoint" />
          </mxGeometry>
        </mxCell>
        <mxCell id="wucaELW-UO4wmeecHl3e-3" value="&lt;font style=&quot;font-size: 34px;&quot;&gt;INSTRUCTION FETCH&lt;/font&gt;" style="text;html=1;align=center;verticalAlign=middle;resizable=0;points=[];autosize=1;strokeColor=none;fillColor=none;" parent="1" vertex="1">
          <mxGeometry x="480" y="219" width="380" height="50" as="geometry" />
        </mxCell>
        <mxCell id="wucaELW-UO4wmeecHl3e-4" value="" style="endArrow=none;dashed=1;html=1;dashPattern=1 3;strokeWidth=8;rounded=0;" parent="1" edge="1">
          <mxGeometry width="50" height="50" relative="1" as="geometry">
            <mxPoint x="2187" y="1920" as="sourcePoint" />
            <mxPoint x="2187" y="280" as="targetPoint" />
          </mxGeometry>
        </mxCell>
        <mxCell id="wucaELW-UO4wmeecHl3e-5" value="&lt;font style=&quot;font-size: 34px;&quot;&gt;INSTRUCTION DECODE&lt;/font&gt;" style="text;html=1;align=center;verticalAlign=middle;resizable=0;points=[];autosize=1;strokeColor=none;fillColor=none;" parent="1" vertex="1">
          <mxGeometry x="1440" y="219" width="410" height="50" as="geometry" />
        </mxCell>
        <mxCell id="wucaELW-UO4wmeecHl3e-7" value="" style="endArrow=none;dashed=1;html=1;dashPattern=1 3;strokeWidth=8;rounded=0;" parent="1" edge="1">
          <mxGeometry width="50" height="50" relative="1" as="geometry">
            <mxPoint x="3730" y="1923.67" as="sourcePoint" />
            <mxPoint x="3730" y="283.67" as="targetPoint" />
          </mxGeometry>
        </mxCell>
        <mxCell id="wucaELW-UO4wmeecHl3e-8" value="&lt;span style=&quot;font-size: 34px;&quot;&gt;EXECUTE/&lt;br&gt;ADDRESS CALCULATION&lt;/span&gt;" style="text;html=1;align=center;verticalAlign=middle;resizable=0;points=[];autosize=1;" parent="1" vertex="1">
          <mxGeometry x="2760" y="194" width="430" height="100" as="geometry" />
        </mxCell>
      </root>
    </mxGraphModel>
  </diagram>
</mxfile>
